<?xml version="1.0" encoding="utf-8"?>
<!-- Generator: Adobe Illustrator 23.1.1, SVG Export Plug-In . SVG Version: 6.00 Build 0)  -->
<svg version="1.1" id="Calque_1" xmlns="http://www.w3.org/2000/svg" xmlns:xlink="http://www.w3.org/1999/xlink" x="0px" y="0px"
	 viewBox="0 0 338.98 343.93" style="enable-background:new 0 0 338.98 343.93;" xml:space="preserve">
<style type="text/css">
	.st0{fill:#FFFFFF;}
	.st1{fill:#5AA86F;}
	.st2{fill:#485175;}
	.st3{fill:#F7E8D3;}
	.st4{fill:#F1573F;}
	.st5{fill:#2D302F;}
	.st6{fill:#FFFFFF;stroke:#000000;stroke-miterlimit:10;}
	.st7{fill:#E7F4EC;}
	.st8{fill:#547146;}
	.st9{fill:#BCCBBC;}
	.st10{fill:#EAE9DC;}
	.st11{fill:#275E39;}
	.st12{fill:#050008;}
	.st13{clip-path:url(#SVGID_2_);}
	.st14{stroke:#000000;stroke-width:1.7036;stroke-miterlimit:10;}
	.st15{fill:#F9F8F4;}
	.st16{fill:#148B20;stroke:#1C881F;stroke-miterlimit:10;}
	.st17{fill:#148B20;stroke:#148B20;stroke-miterlimit:10;}
	.st18{stroke:#000000;stroke-miterlimit:10;}
	.st19{fill:#148B20;}
	.st20{enable-background:new    ;}
	.st21{fill:#F8F7F3;}
	.st22{fill:#1C8B20;stroke:#1C8B20;}
</style>
<path id="Tracé_123" class="st17" d="M324.18,112.64c0.17-0.41,0.15-0.87-0.03-1.27c-0.71-1.63-1.49-3.22-2.3-4.8
	c-14.88-37.05-40.79-71.18-78.41-86.6c-18.49-7.59-38.8-12.73-58.37-16.74c-15.28-3.14-33.42-5.19-47.36,3.27
	c-0.1-0.07-0.22-0.11-0.35-0.13c-0.39-0.25-0.87-0.33-1.32-0.23C86.64,16.72,43.11,52.56,19.05,96.16
	c-25.33,45.9-23.97,100-0.5,146.18c22.54,44.33,64.24,79.24,111.48,94.31c47.45,15.13,97.6,3.93,138.12-23.69
	c17.45-11.91,32.52-27,44.4-44.47c0.08,0.08,0.16,0.16,0.24,0.25c0.5-0.87,0.94-1.77,1.33-2.69c0.26-0.64,0.65-1.22,1.15-1.69
	c7.2-11.26,12.93-23.39,17.07-36.09C344.22,191.45,337.44,148.44,324.18,112.64z M328.2,230.25c-0.84,2.75-1.81,5.45-2.84,8.12
	c-0.48,2.81-1.6,5.48-3.27,7.79c-2.73,5.99-5.88,11.78-9.43,17.32l-0.06-0.07c-0.57,1.08-1.22,2.12-1.95,3.11l0.01,0.01
	c-3.35,4.94-6.97,9.69-10.87,14.21c-1.03,2.2-2.51,4.16-4.34,5.77c-3.58,3.18-6.86,6.62-10.64,9.59c-0.28,0.22-0.58,0.43-0.86,0.65
	c-1.04,0.92-2.08,1.84-3.14,2.74c-0.01-0.03-0.02-0.06-0.03-0.09l-0.13-0.23c-0.6,0.42-1.2,0.84-1.8,1.25l0.5,0.28
	c-5.88,4.86-12.07,9.33-18.52,13.41c-0.12-0.31-0.22-0.62-0.32-0.92c-0.38,0.3-0.75,0.61-1.12,0.93c0.1,0.22,0.21,0.44,0.32,0.67
	l0.01,0.02c-15.02,9.34-31.34,16.41-48.42,21c-23,6-47.14,6.14-70.21,0.42c0.04-0.35,0.09-0.67,0.14-1
	c-0.58-0.05-1.17-0.1-1.75-0.14c-0.03,0.25-0.07,0.48-0.09,0.74c-14.67-3.74-28.78-9.41-41.96-16.84c0.02-0.07,0.03-0.14,0.05-0.21
	c-0.56-0.32-1.12-0.66-1.68-1c0,0.09-0.01,0.18-0.01,0.27c-13.25-7.63-25.57-16.78-36.71-27.25C15.07,249.48-7.3,188.04,9.08,128.87
	c15.58-56.3,66.7-105.02,123.94-118.12l-0.1,0.13c1.8-0.58,3.54-1.4,5.36-1.99c0.04-0.08,0.07-0.17,0.1-0.26
	c2.86-1.62,5.92-2.88,9.1-3.73c5.6-3.7,12.7-1.84,19.62-1.51l-0.03-0.02c0.15,0.01,0.3,0.03,0.45,0.04
	c0.66,0.03,1.31,0.04,1.97,0.02c0.55-0.02,1.1,0.1,1.6,0.33c12.27,1.45,24.86,5.28,35.95,8.65c-0.02,0.04-0.04,0.09-0.05,0.13
	c2.31,0.41,4.57,1.05,6.75,1.91c1.04,0.35,2.1,0.65,3.15,0.94l-0.11-0.08c0.89,0.26,1.77,0.52,2.65,0.78
	c0.71,0.19,1.42,0.41,2.13,0.62c5.33,1.59,10.61,3.28,15.81,5.18c3.72,1.08,7.31,2.54,10.74,4.34c3.27,1.46,6.5,3.05,9.67,4.79
	c14.91,8.19,26.83,21.1,37.1,34.45c4.71,6.16,9.01,12.61,12.89,19.32c1.55,1.79,2.89,3.74,4.02,5.81c1.28,2.6,2.38,5.28,3.64,7.89
	c2.56,5.29,4.64,10.54,6.7,16.03c0.15,0.4,0.22,0.82,0.22,1.24C335.93,152.57,339.27,194.05,328.2,230.25L328.2,230.25z"/>
<path id="Tracé_124_1_" class="st18" d="M314.01,116.54c0.15-0.38,0.14-0.81-0.03-1.19c-0.66-1.52-1.4-3.01-2.16-4.48
	c-13.9-34.61-38.11-66.49-73.25-80.91c-17.27-7.09-36.25-11.89-54.53-15.64c-14.27-2.93-31.22-4.85-44.25,3.06
	c-0.1-0.07-0.21-0.11-0.33-0.12c-0.37-0.23-0.81-0.31-1.23-0.21c-46.15,9.89-86.81,43.37-109.29,84.11
	c-23.66,42.89-22.4,93.42-0.46,136.57c21.05,41.42,60.02,74.03,104.14,88.11c44.33,14.14,91.18,3.67,129.04-22.13
	c16.31-11.13,30.38-25.22,41.48-41.54c0.08,0.07,0.15,0.15,0.22,0.23c0.46-0.81,0.87-1.65,1.24-2.51c0.24-0.6,0.61-1.14,1.08-1.58
	c6.73-10.52,12.08-21.85,15.95-33.72C332.72,190.17,326.39,149.98,314.01,116.54z M317.77,226.42c-0.79,2.57-1.69,5.09-2.65,7.58
	c-0.45,2.63-1.49,5.12-3.05,7.28c-2.55,5.6-5.49,11-8.81,16.18l-0.05-0.06c-0.53,1.01-1.14,1.98-1.82,2.9l0.01,0.01
	c-3.12,4.62-6.51,9.05-10.15,13.28c-0.97,2.05-2.35,3.89-4.06,5.39c-3.34,2.97-6.41,6.18-9.94,8.95c-0.27,0.21-0.53,0.4-0.8,0.6
	c-0.98,0.86-1.94,1.72-2.94,2.56l-0.03-0.08l-0.12-0.22c-0.56,0.39-1.11,0.78-1.68,1.17l0.46,0.26c-5.49,4.54-11.27,8.72-17.3,12.52
	c-0.11-0.29-0.2-0.58-0.3-0.86c-0.35,0.28-0.7,0.57-1.04,0.87c0.1,0.21,0.19,0.42,0.3,0.62l0.02,0.01
	c-14.03,8.72-29.28,15.33-45.24,19.62c-21.49,5.6-44.04,5.73-65.59,0.39c0.03-0.32,0.09-0.62,0.14-0.93
	c-0.55-0.05-1.09-0.1-1.64-0.13c-0.03,0.23-0.06,0.45-0.09,0.69c-13.7-3.49-26.88-8.78-39.2-15.73l0.05-0.19
	c-0.53-0.3-1.05-0.62-1.57-0.94l-0.01,0.25c-12.38-7.13-23.89-15.67-34.29-25.45c-41.16-38.6-62.05-96.01-46.75-151.28
	C34.2,79.11,81.96,33.59,135.43,21.35l-0.1,0.12c1.68-0.54,3.31-1.31,5-1.86c0.04-0.08,0.07-0.16,0.09-0.24
	c2.67-1.52,5.53-2.68,8.5-3.48c5.23-3.46,11.86-1.71,18.33-1.41l-0.03-0.02c0.14,0.01,0.28,0.03,0.42,0.03
	c0.61,0.03,1.23,0.04,1.84,0.02c0.52-0.02,1.03,0.09,1.49,0.31c11.47,1.35,23.22,4.93,33.59,8.08c-0.02,0.04-0.03,0.08-0.04,0.12
	c2.15,0.39,4.26,0.98,6.3,1.78c0.97,0.33,1.96,0.61,2.94,0.88l-0.1-0.07c0.83,0.24,1.65,0.48,2.48,0.73
	c0.66,0.19,1.32,0.38,1.98,0.59c4.98,1.49,9.91,3.06,14.76,4.84c3.47,1.01,6.84,2.37,10.04,4.06c3.05,1.36,6.07,2.84,9.03,4.47
	c13.92,7.66,25.07,19.71,34.65,32.18c4.4,5.75,8.42,11.78,12.05,18.06c1.44,1.67,2.7,3.49,3.76,5.43c1.19,2.43,2.22,4.94,3.4,7.38
	c2.39,4.95,4.33,9.85,6.25,14.97c0.14,0.37,0.21,0.76,0.21,1.16C324.99,153.85,328.11,192.59,317.77,226.42L317.77,226.42z"/>
</svg>
