<?xml version="1.0" encoding="utf-8"?>
<!-- Generator: Adobe Illustrator 23.1.1, SVG Export Plug-In . SVG Version: 6.00 Build 0)  -->
<svg version="1.1" id="Calque_1" xmlns="http://www.w3.org/2000/svg" xmlns:xlink="http://www.w3.org/1999/xlink" x="0px" y="0px"
	 viewBox="0 0 336.65 340.58" style="enable-background:new 0 0 336.65 340.58;" xml:space="preserve">
<style type="text/css">
	.st0{fill:#FFFFFF;}
	.st1{fill:#5AA86F;}
	.st2{fill:#485175;}
	.st3{fill:#F7E8D3;}
	.st4{fill:#F1573F;}
	.st5{fill:#2D302F;}
	.st6{fill:#FFFFFF;stroke:#000000;stroke-miterlimit:10;}
	.st7{fill:#E7F4EC;}
	.st8{fill:#547146;}
	.st9{fill:#BCCBBC;}
	.st10{fill:#EAE9DC;}
	.st11{fill:#275E39;}
	.st12{fill:#050008;}
	.st13{clip-path:url(#SVGID_2_);}
	.st14{stroke:#000000;stroke-width:1.7036;stroke-miterlimit:10;}
	.st15{fill:#F9F8F4;}
	.st16{fill:#148B20;stroke:#1C881F;stroke-miterlimit:10;}
	.st17{fill:#148B20;stroke:#148B20;stroke-miterlimit:10;}
	.st18{stroke:#000000;stroke-miterlimit:10;}
	.st19{fill:#148B20;}
	.st20{enable-background:new    ;}
	.st21{fill:#F8F7F3;}
	.st22{fill:#1C8B20;stroke:#1C8B20;}
</style>
<path id="Tracé_121" class="st22" d="M321.95,111.55c0.16-0.41,0.15-0.86-0.03-1.26c-0.71-1.61-1.48-3.19-2.29-4.75
	c-14.78-36.69-40.51-70.48-77.87-85.76c-18.36-7.51-38.54-12.6-57.97-16.58c-15.17-3.11-33.19-5.14-47.04,3.23
	c-0.1-0.07-0.22-0.11-0.34-0.13c-0.39-0.24-0.86-0.32-1.31-0.23C86.04,16.56,42.82,52.05,18.92,95.23
	c-25.15,45.45-23.8,99.02-0.49,144.75c22.38,43.9,63.8,78.47,110.71,93.39c47.12,14.99,96.93,3.89,137.17-23.46
	c17.33-11.79,32.29-26.72,44.1-44.04c0.08,0.08,0.16,0.16,0.24,0.24c0.49-0.86,0.93-1.75,1.32-2.66c0.25-0.63,0.64-1.21,1.14-1.68
	c7.15-11.14,12.85-23.15,16.95-35.74C341.84,189.58,335.11,146.99,321.95,111.55z M325.95,228.01c-0.84,2.72-1.8,5.39-2.82,8.04
	c-0.48,2.79-1.59,5.43-3.25,7.72c-2.71,5.93-5.84,11.66-9.36,17.15c-0.02-0.02-0.04-0.04-0.06-0.07c-0.57,1.07-1.21,2.1-1.93,3.08
	l0.01,0.01c-3.32,4.9-6.93,9.6-10.79,14.08c-1.03,2.18-2.5,4.12-4.31,5.71c-3.55,3.15-6.82,6.55-10.57,9.49
	c-0.28,0.22-0.57,0.42-0.85,0.64c-1.03,0.91-2.06,1.83-3.12,2.72c-0.01-0.03-0.02-0.06-0.03-0.08l-0.13-0.23
	c-0.59,0.42-1.19,0.83-1.78,1.24c0.16,0.09,0.32,0.19,0.49,0.28c-5.84,4.81-11.99,9.24-18.39,13.27c-0.12-0.31-0.21-0.61-0.32-0.91
	c-0.37,0.3-0.74,0.61-1.11,0.92c0.1,0.22,0.2,0.44,0.32,0.66c0,0.01,0.01,0.01,0.01,0.02c-14.92,9.25-31.12,16.25-48.08,20.79
	c-22.84,5.94-46.81,6.08-69.72,0.41c0.04-0.34,0.09-0.66,0.15-0.99c-0.58-0.05-1.16-0.1-1.74-0.14c-0.03,0.25-0.07,0.48-0.09,0.73
	c-14.56-3.7-28.57-9.31-41.67-16.68c0.02-0.07,0.03-0.14,0.05-0.21c-0.56-0.32-1.12-0.65-1.67-0.99c0,0.09-0.01,0.18-0.01,0.27
	c-13.15-7.55-25.38-16.61-36.45-26.98C14.96,247.04-7.25,186.2,9.01,127.62c15.48-55.75,66.24-104,123.08-116.97
	c-0.03,0.04-0.07,0.09-0.1,0.13c1.79-0.57,3.52-1.39,5.32-1.97c0.04-0.08,0.07-0.17,0.1-0.26c2.84-1.61,5.88-2.85,9.04-3.69
	c5.56-3.67,12.61-1.82,19.48-1.5l-0.03-0.02c0.15,0.01,0.3,0.03,0.45,0.04c0.65,0.02,1.31,0.04,1.96,0.02
	c0.55-0.02,1.09,0.1,1.58,0.33c12.19,1.44,24.69,5.23,35.7,8.57c-0.02,0.04-0.03,0.09-0.05,0.13c2.29,0.41,4.53,1.04,6.7,1.89
	c1.03,0.35,2.08,0.64,3.13,0.93c-0.04-0.03-0.07-0.06-0.11-0.08c0.88,0.25,1.76,0.52,2.64,0.77c0.71,0.19,1.41,0.4,2.11,0.62
	c5.29,1.58,10.54,3.25,15.7,5.13c3.69,1.07,7.26,2.51,10.67,4.3c3.25,1.45,6.45,3.02,9.6,4.74c14.8,8.11,26.65,20.9,36.84,34.11
	c4.67,6.1,8.95,12.49,12.8,19.14c1.53,1.77,2.87,3.7,3.99,5.76c1.27,2.57,2.36,5.23,3.62,7.81c2.54,5.24,4.6,10.44,6.65,15.87
	c0.15,0.39,0.22,0.81,0.22,1.23C333.62,151.09,336.93,192.16,325.95,228.01L325.95,228.01z"/>
<path id="Tracé_122_1_" class="st18" d="M176.59,166.78c0.01-0.02,0.01-0.05,0-0.07c-0.04-0.1-0.09-0.19-0.14-0.28
	c-0.8-2.26-2.47-4.11-4.64-5.12c-1.12-0.44-2.27-0.77-3.45-0.99c-0.93-0.28-1.92-0.21-2.8,0.19c-0.01,0-0.01-0.01-0.02-0.01
	c-0.02-0.02-0.05-0.02-0.08-0.01c-2.96,0.72-5.47,2.66-6.92,5.33c-1.45,2.7-1.46,5.94-0.03,8.65c1.38,2.65,3.75,4.66,6.6,5.58
	c2.79,0.82,5.81,0.3,8.17-1.4c1.03-0.7,1.92-1.6,2.63-2.63l0.01,0.02c0.03-0.05,0.06-0.1,0.08-0.16c0.02-0.04,0.04-0.07,0.07-0.1
	c0.43-0.67,0.77-1.38,1.01-2.14C177.66,171.35,177.49,168.95,176.59,166.78z M176.83,173.74c-0.05,0.16-0.11,0.32-0.17,0.48
	c-0.03,0.17-0.09,0.32-0.19,0.46c-0.16,0.35-0.35,0.7-0.56,1.03l0,0c-0.03,0.06-0.07,0.13-0.11,0.18l0,0
	c-0.2,0.29-0.41,0.57-0.64,0.84c-0.06,0.13-0.15,0.25-0.26,0.34c-0.21,0.19-0.41,0.39-0.63,0.57l-0.05,0.04
	c-0.06,0.05-0.12,0.11-0.19,0.16c0,0,0,0,0-0.01l-0.01-0.01l-0.11,0.07l0.03,0.02c-0.35,0.29-0.72,0.55-1.1,0.79
	c-0.01-0.02-0.01-0.04-0.02-0.05l-0.07,0.06c0.01,0.01,0.01,0.03,0.02,0.04l0,0c-0.89,0.55-1.85,0.97-2.86,1.24
	c-1.36,0.36-2.79,0.36-4.16,0.03c0-0.02,0.01-0.04,0.01-0.06l-0.1-0.01c0,0.02,0,0.03-0.01,0.04c-0.87-0.22-1.7-0.56-2.48-1v-0.01
	l-0.1-0.06c0,0.01,0,0.01,0,0.02c-0.78-0.45-1.51-0.99-2.17-1.61c-2.69-2.4-3.83-6.09-2.96-9.58c1.05-3.45,3.83-6.11,7.33-6.99
	l-0.01,0.01c0.11-0.03,0.21-0.08,0.32-0.12c0,0,0-0.01,0.01-0.02c0.17-0.1,0.35-0.17,0.54-0.22c0.37-0.15,0.77-0.18,1.16-0.09l0,0
	h0.03c0.04,0,0.08,0,0.12,0c0.03,0,0.06,0.01,0.09,0.02c0.72,0.11,1.43,0.28,2.13,0.51v0.01c0.14,0.02,0.27,0.06,0.4,0.11
	c0.06,0.02,0.12,0.04,0.19,0.06l-0.01-0.01l0.16,0.05l0.13,0.04c0.31,0.09,0.63,0.19,0.94,0.31c0.22,0.06,0.43,0.15,0.64,0.26
	c0.19,0.09,0.38,0.18,0.57,0.28c0.86,0.52,1.61,1.22,2.19,2.04c0.28,0.36,0.53,0.75,0.76,1.14c0.09,0.11,0.17,0.22,0.24,0.34
	c0.08,0.15,0.14,0.31,0.21,0.47c0.15,0.31,0.27,0.62,0.4,0.95c0.01,0.02,0.01,0.05,0.01,0.07
	C177.33,169.13,177.45,171.5,176.83,173.74L176.83,173.74z"/>
<path id="Tracé_123_2_" class="st18" d="M174.3,167.66c0.01-0.02,0.01-0.04,0-0.06c-0.03-0.07-0.07-0.14-0.1-0.21
	c-0.6-1.7-1.85-3.08-3.48-3.84c-0.84-0.33-1.71-0.58-2.59-0.74c-0.69-0.21-1.44-0.16-2.1,0.15c0,0-0.01-0.01-0.02-0.01
	c-0.02-0.01-0.04-0.01-0.06-0.01c-2.22,0.54-4.1,1.99-5.19,4c-1.09,2.02-1.1,4.46-0.02,6.49c1.04,1.99,2.81,3.49,4.95,4.19
	c2.1,0.62,4.36,0.23,6.13-1.05c0.77-0.53,1.44-1.2,1.97-1.97l0.01,0.01c0.02-0.04,0.04-0.08,0.06-0.12
	c0.01-0.03,0.03-0.05,0.05-0.07c0.32-0.5,0.57-1.04,0.76-1.6C175.11,171.09,174.98,169.29,174.3,167.66z M174.48,172.88
	c-0.04,0.12-0.08,0.24-0.13,0.36c-0.02,0.12-0.07,0.24-0.15,0.35c-0.12,0.27-0.26,0.52-0.42,0.77l0,0
	c-0.03,0.05-0.05,0.09-0.09,0.14l0,0c-0.15,0.22-0.31,0.43-0.48,0.63c-0.05,0.1-0.11,0.18-0.19,0.26c-0.16,0.14-0.3,0.29-0.47,0.43
	l-0.04,0.03c-0.05,0.04-0.09,0.08-0.14,0.12l0,0l-0.01-0.01L172.3,176l0.02,0.01c-0.26,0.22-0.54,0.41-0.82,0.59
	c-0.01-0.01-0.01-0.03-0.01-0.04l-0.05,0.04l0.01,0.03l0,0c-0.67,0.41-1.39,0.73-2.15,0.93c-1.02,0.27-2.09,0.27-3.12,0.02
	c0-0.02,0-0.03,0.01-0.04l-0.08-0.01c0,0.01,0,0.02,0,0.03c-0.65-0.17-1.28-0.42-1.86-0.75v-0.01l-0.07-0.04c0,0,0,0.01,0,0.01
	c-0.59-0.34-1.13-0.74-1.63-1.21c-2.02-1.8-2.87-4.56-2.22-7.19c0.79-2.59,2.87-4.58,5.5-5.24v0.01c0.08-0.03,0.16-0.06,0.24-0.09
	c0,0,0-0.01,0-0.01c0.13-0.07,0.26-0.13,0.4-0.17c0.28-0.11,0.58-0.14,0.87-0.07l0,0h0.02h0.09c0.02,0,0.05,0,0.07,0.02
	c0.54,0.08,1.08,0.21,1.6,0.38v0.01c0.1,0.02,0.2,0.05,0.3,0.08c0.05,0.02,0.09,0.03,0.14,0.04l0,0l0.12,0.03l0.09,0.03
	c0.24,0.07,0.47,0.15,0.7,0.23c0.17,0.05,0.32,0.11,0.48,0.19c0.15,0.06,0.29,0.14,0.43,0.21c0.65,0.39,1.21,0.91,1.65,1.53
	c0.21,0.27,0.4,0.56,0.57,0.86c0.07,0.08,0.13,0.17,0.18,0.26c0.06,0.11,0.1,0.23,0.16,0.35c0.11,0.23,0.21,0.47,0.3,0.71
	c0.01,0.02,0.01,0.04,0.01,0.06C174.86,169.43,174.95,171.21,174.48,172.88L174.48,172.88z"/>
<path id="Tracé_124_3_" class="st18" d="M172.93,168.18c0.01-0.01,0.01-0.03,0-0.05c-0.03-0.06-0.05-0.11-0.08-0.17
	c-0.48-1.36-1.48-2.47-2.78-3.07c-0.67-0.26-1.36-0.46-2.07-0.59c-0.56-0.17-1.15-0.13-1.68,0.12c0,0-0.01,0-0.01,0
	c-0.01-0.01-0.03-0.01-0.05-0.01c-1.77,0.43-3.28,1.6-4.15,3.2c-0.87,1.62-0.88,3.57-0.02,5.19c0.83,1.59,2.25,2.79,3.96,3.35
	c1.68,0.49,3.48,0.18,4.9-0.84c0.62-0.42,1.15-0.96,1.58-1.58l0.01,0.01c0.02-0.03,0.03-0.07,0.05-0.1
	c0.01-0.02,0.02-0.04,0.04-0.06c0.26-0.4,0.46-0.83,0.61-1.28C173.57,170.93,173.47,169.49,172.93,168.18z M173.07,172.36
	c-0.03,0.1-0.06,0.19-0.1,0.29c-0.02,0.1-0.06,0.19-0.12,0.28c-0.1,0.21-0.21,0.42-0.33,0.61l0,0c-0.02,0.04-0.04,0.08-0.07,0.11
	l0,0c-0.12,0.17-0.25,0.34-0.39,0.5c-0.04,0.08-0.09,0.14-0.15,0.2c-0.13,0.11-0.24,0.23-0.38,0.34l-0.03,0.02
	c-0.04,0.03-0.07,0.06-0.11,0.1l0,0v-0.01l-0.06,0.04l0.02,0.01c-0.21,0.17-0.43,0.33-0.66,0.48c0-0.01-0.01-0.02-0.01-0.03
	l-0.04,0.03l0.01,0.02l0,0c-0.53,0.33-1.11,0.58-1.72,0.74c-0.82,0.21-1.67,0.22-2.49,0.02c0-0.01,0-0.02,0.01-0.04h-0.06
	c0,0.01,0,0.02,0,0.03c-0.52-0.13-1.02-0.34-1.49-0.6v-0.01l-0.06-0.04v0.01c-0.47-0.27-0.91-0.6-1.3-0.97
	c-1.61-1.44-2.3-3.65-1.78-5.75c0.63-2.07,2.3-3.66,4.4-4.19l0,0c0.06-0.02,0.13-0.05,0.19-0.07c0,0,0-0.01,0-0.01
	c0.1-0.06,0.21-0.1,0.32-0.13c0.22-0.09,0.47-0.11,0.7-0.05h0.08c0.02,0,0.04,0,0.06,0.01c0.43,0.07,0.86,0.17,1.28,0.31l0,0
	c0.08,0.01,0.16,0.04,0.24,0.07c0.04,0.01,0.07,0.02,0.11,0.03l0,0l0.09,0.03l0.07,0.02c0.19,0.06,0.38,0.12,0.56,0.18
	c0.13,0.04,0.26,0.09,0.38,0.15c0.12,0.05,0.23,0.11,0.34,0.17c0.52,0.31,0.97,0.73,1.32,1.22c0.17,0.22,0.32,0.45,0.46,0.69
	c0.05,0.06,0.1,0.13,0.14,0.21c0.05,0.09,0.08,0.19,0.13,0.28c0.09,0.19,0.17,0.37,0.24,0.57c0.01,0.01,0.01,0.03,0.01,0.04
	C173.38,169.59,173.45,171.02,173.07,172.36L173.07,172.36z"/>
</svg>
