<?xml version="1.0" encoding="utf-8"?>
<!-- Generator: Adobe Illustrator 23.1.1, SVG Export Plug-In . SVG Version: 6.00 Build 0)  -->
<svg version="1.1" id="Calque_1" xmlns="http://www.w3.org/2000/svg" xmlns:xlink="http://www.w3.org/1999/xlink" x="0px" y="0px"
	 viewBox="0 0 348.88 549" style="enable-background:new 0 0 348.88 549;" xml:space="preserve">
<style type="text/css">
	.st0{fill:#FFFFFF;}
	.st1{fill:#5AA86F;}
	.st2{fill:#485175;}
	.st3{fill:#F7E8D3;}
	.st4{fill:#F1573F;}
	.st5{fill:#2D302F;}
	.st6{fill:#FFFFFF;stroke:#000000;stroke-miterlimit:10;}
	.st7{fill:#E7F4EC;}
	.st8{fill:#547146;}
	.st9{fill:#BCCBBC;}
	.st10{fill:#EAE9DC;}
	.st11{fill:#275E39;}
	.st12{fill:#050008;}
	.st13{clip-path:url(#SVGID_2_);}
	.st14{stroke:#000000;stroke-width:1.7036;stroke-miterlimit:10;}
	.st15{fill:#F9F8F4;}
	.st16{fill:#148B20;stroke:#1C881F;stroke-miterlimit:10;}
	.st17{fill:#148B20;stroke:#148B20;stroke-miterlimit:10;}
	.st18{stroke:#000000;stroke-miterlimit:10;}
	.st19{fill:#148B20;}
	.st20{enable-background:new    ;}
	.st21{fill:#F8F7F3;}
	.st22{fill:#1C8B20;stroke:#1C8B20;}
	.st23{fill:#048D14;}
	.st24{fill:none;stroke:#000000;stroke-width:5;stroke-linecap:round;stroke-linejoin:round;}
	.st25{stroke:#000000;stroke-width:4.669952e-03;stroke-miterlimit:10;}
	.st26{stroke:#000000;stroke-width:0.096;stroke-miterlimit:10;}
	.st27{stroke:#000000;stroke-width:0.0566;stroke-miterlimit:10;}
	.st28{stroke:#000000;stroke-width:0.0902;stroke-miterlimit:10;}
	.st29{stroke:#000000;stroke-width:0.0884;stroke-miterlimit:10;}
	.st30{stroke:#000000;stroke-width:0.167;stroke-miterlimit:10;}
	.st31{stroke:#000000;stroke-width:0.0762;stroke-miterlimit:10;}
	.st32{stroke:#000000;stroke-width:0.0219;stroke-miterlimit:10;}
	.st33{stroke:#000000;stroke-width:0.0543;stroke-miterlimit:10;}
	.st34{stroke:#000000;stroke-width:0.0601;stroke-miterlimit:10;}
	.st35{stroke:#000000;stroke-width:0.0782;stroke-miterlimit:10;}
	.st36{stroke:#000000;stroke-width:0.3088;stroke-miterlimit:10;}
	.st37{stroke:#000000;stroke-width:0.1976;stroke-miterlimit:10;}
	.st38{stroke:#000000;stroke-width:0.2875;stroke-miterlimit:10;}
	.st39{stroke:#000000;stroke-width:0.059;stroke-miterlimit:10;}
	.st40{stroke:#000000;stroke-width:0.2493;stroke-miterlimit:10;}
	.st41{stroke:#000000;stroke-width:0.5508;stroke-miterlimit:10;}
	.st42{stroke:#000000;stroke-width:0.676;stroke-miterlimit:10;}
	.st43{stroke:#000000;stroke-width:0.4515;stroke-miterlimit:10;}
	.st44{stroke:#000000;stroke-width:1.704;stroke-miterlimit:10;}
	.st45{fill:#148B20;stroke:#148B20;stroke-width:2;}
	.st46{stroke:#000000;stroke-width:2;stroke-miterlimit:10;}
	.st47{stroke:#000000;stroke-width:3;stroke-miterlimit:10;}
	.st48{font-family:'Lunchtype-ExpandedMedium';}
	.st49{font-size:10px;}
</style>
<g id="Composant_25_1" transform="translate(1 1.466)">
	<path id="Tracé_128_21_" class="st46" d="M189.3,197.9c0.09-0.24,0.09-0.51-0.02-0.74c-0.42-0.95-0.87-1.88-1.35-2.81
		c-8.7-21.67-23.86-41.62-45.86-50.65c-10.81-4.44-22.69-7.44-34.14-9.79c-8.94-1.83-19.55-3.03-27.7,1.91
		c-0.06-0.04-0.13-0.07-0.2-0.08c-0.23-0.14-0.51-0.19-0.77-0.13c-28.89,6.19-54.35,27.15-68.42,52.65
		c-14.81,26.85-14.02,58.48-0.29,85.49c13.17,25.93,37.57,46.35,65.19,55.16c27.75,8.85,57.08,2.3,80.78-13.85
		c10.21-6.97,19.02-15.79,25.97-26.01c0.05,0.05,0.1,0.1,0.14,0.14c0.29-0.51,0.55-1.03,0.77-1.57c0.15-0.38,0.38-0.71,0.67-0.99
		c4.21-6.58,7.56-13.68,9.98-21.11C201.02,244,197.06,218.84,189.3,197.9z M191.65,266.69c-0.49,1.61-1.06,3.19-1.66,4.75
		c-0.28,1.65-0.94,3.2-1.91,4.56c-1.6,3.5-3.44,6.89-5.51,10.13l-0.03-0.04c-0.33,0.63-0.72,1.24-1.14,1.81l0.01,0.01
		c-1.96,2.89-4.08,5.67-6.35,8.32c-0.61,1.29-1.47,2.43-2.54,3.38c-2.09,1.86-4.01,3.87-6.22,5.6c-0.17,0.13-0.34,0.25-0.5,0.38
		c-0.61,0.54-1.22,1.08-1.84,1.61l-0.02-0.05l-0.07-0.14c-0.35,0.25-0.7,0.49-1.05,0.73l0.29,0.17c-3.44,2.84-7.06,5.46-10.83,7.84
		c-0.07-0.18-0.12-0.36-0.19-0.54c-0.22,0.18-0.44,0.36-0.65,0.54c0.06,0.13,0.12,0.26,0.18,0.39l0.01,0.01
		c-8.79,5.46-18.33,9.6-28.32,12.28c-13.45,3.51-27.57,3.59-41.06,0.24c0.02-0.2,0.06-0.39,0.08-0.58
		c-0.34-0.03-0.68-0.06-1.03-0.08c-0.02,0.14-0.04,0.28-0.05,0.43c-8.58-2.19-16.83-5.5-24.54-9.85l0.03-0.12
		c-0.33-0.19-0.66-0.39-0.98-0.59l-0.01,0.16c-7.75-4.46-14.95-9.81-21.47-15.93C8.52,277.93-4.56,242,5.01,207.4
		c9.11-32.93,39.01-61.43,72.49-69.09l-0.06,0.08c1.05-0.34,2.07-0.82,3.13-1.17c0.02-0.05,0.04-0.1,0.06-0.15
		c1.67-0.95,3.46-1.68,5.32-2.18c3.28-2.16,7.43-1.07,11.48-0.88L97.41,134c0.09,0.01,0.17,0.02,0.26,0.02
		c0.39,0.01,0.77,0.02,1.15,0.01c0.32-0.01,0.64,0.06,0.93,0.2c7.18,0.85,14.54,3.09,21.03,5.06c-0.01,0.02-0.02,0.05-0.03,0.08
		c1.35,0.24,2.67,0.61,3.95,1.12c0.61,0.21,1.22,0.38,1.84,0.55l-0.06-0.05c0.52,0.15,1.04,0.3,1.56,0.46
		c0.41,0.12,0.83,0.24,1.24,0.37c3.12,0.93,6.21,1.92,9.24,3.03c2.18,0.63,4.28,1.48,6.29,2.54c1.91,0.85,3.8,1.78,5.65,2.8
		c8.72,4.79,15.69,12.34,21.69,20.15c2.75,3.6,5.27,7.38,7.54,11.3c0.9,1.05,1.69,2.19,2.35,3.4c0.75,1.52,1.39,3.09,2.13,4.62
		c1.5,3.1,2.71,6.17,3.91,9.37c0.09,0.23,0.13,0.48,0.13,0.72C196.17,221.26,198.13,245.52,191.65,266.69L191.65,266.69z"/>
	<path id="Tracé_128-2" class="st46" d="M341,196.75c0.07-0.17,0.06-0.36-0.01-0.52c-0.29-0.67-0.61-1.33-0.95-1.97
		c-6.12-15.23-16.77-29.26-32.24-35.61c-7.77-3.03-15.81-5.33-24-6.88c-6.28-1.29-13.74-2.13-19.48,1.35
		c-0.04-0.03-0.09-0.05-0.14-0.05c-0.16-0.1-0.36-0.14-0.54-0.09c-20.31,4.35-38.21,19.09-48.1,37.02
		c-10.41,18.88-9.86,41.12-0.2,60.11c9.6,18.44,26.06,32.36,45.83,38.78c19.51,6.22,40.13,1.62,56.79-9.74
		c7.18-4.9,13.37-11.1,18.25-18.28c0.03,0.03,0.07,0.07,0.1,0.1c0.2-0.36,0.39-0.73,0.55-1.11c0.11-0.26,0.27-0.5,0.47-0.7
		c2.96-4.63,5.32-9.62,7.02-14.84C349.24,229.15,346.45,211.47,341,196.75z M342.66,245.11c-0.35,1.13-0.74,2.24-1.17,3.34
		c-0.2,1.16-0.66,2.25-1.34,3.2c-1.12,2.46-2.42,4.84-3.88,7.12l-0.02-0.03c-0.23,0.44-0.5,0.87-0.8,1.28l0,0
		c-1.38,2.03-2.87,3.99-4.47,5.85c-0.43,0.9-1.03,1.71-1.78,2.37c-1.47,1.3-2.82,2.72-4.37,3.94c-0.12,0.09-0.23,0.18-0.35,0.27
		c-0.43,0.38-0.86,0.76-1.29,1.13l-0.01-0.04l-0.05-0.1c-0.24,0.17-0.49,0.34-0.74,0.51l0.2,0.12c-2.42,2-4.96,3.84-7.61,5.51
		c-0.05-0.13-0.09-0.25-0.13-0.38c-0.15,0.12-0.31,0.25-0.46,0.38c0.04,0.09,0.08,0.18,0.13,0.27l0.01,0.01
		c-6.18,3.84-12.89,6.75-19.91,8.63c-9.46,2.46-19.38,2.52-28.87,0.17c0.02-0.14,0.04-0.27,0.06-0.41
		c-0.24-0.02-0.48-0.04-0.72-0.06c-0.01,0.1-0.03,0.2-0.04,0.3c-6.03-1.54-11.83-3.87-17.26-6.92l0.02-0.09
		c-0.23-0.13-0.46-0.27-0.69-0.41v0.11c-5.45-3.14-10.51-6.89-15.09-11.2c-18.11-16.99-27.31-42.25-20.58-66.58
		c6.41-23.15,27.43-43.18,50.96-48.57l-0.04,0.06c0.74-0.24,1.46-0.58,2.2-0.82c0.02-0.03,0.03-0.07,0.04-0.11
		c1.18-0.67,2.43-1.18,3.74-1.53c2.3-1.52,5.22-0.75,8.07-0.62l-0.01-0.01c0.06,0,0.12,0.01,0.18,0.01
		c0.27,0.01,0.54,0.02,0.81,0.01c0.23-0.01,0.45,0.04,0.66,0.14c5.02,0.75,9.97,1.94,14.78,3.56c-0.01,0.02-0.01,0.04-0.02,0.05
		c0.95,0.17,1.88,0.43,2.77,0.79c0.43,0.14,0.86,0.27,1.3,0.39l-0.05-0.03c0.37,0.11,0.73,0.21,1.1,0.32
		c0.29,0.08,0.58,0.17,0.87,0.26c2.19,0.65,4.36,1.35,6.5,2.13c1.53,0.44,3.01,1.04,4.42,1.79c1.34,0.6,2.67,1.25,3.97,1.97
		c6.13,3.37,11.03,8.68,15.25,14.17c1.94,2.53,3.71,5.19,5.3,7.95c0.64,0.73,1.19,1.54,1.65,2.39c0.52,1.07,0.98,2.17,1.5,3.25
		c1.05,2.18,1.91,4.33,2.75,6.59c0.06,0.16,0.09,0.34,0.09,0.51C345.83,213.17,347.21,230.22,342.66,245.11L342.66,245.11z"/>
	<path id="Tracé_128-3" class="st47" d="M175.78,89.46c0.03-0.08,0.03-0.17-0.01-0.24c-0.14-0.31-0.29-0.62-0.45-0.93
		c-2.88-7.16-7.88-13.76-15.15-16.74c-3.65-1.42-7.43-2.51-11.28-3.24c-2.95-0.61-6.46-1-9.15,0.63c-0.02-0.01-0.04-0.02-0.07-0.02
		c-0.08-0.05-0.17-0.06-0.25-0.04c-9.55,2.05-17.96,8.97-22.61,17.4c-4.75,8.81-4.79,19.41-0.1,28.25
		c4.51,8.67,12.25,15.21,21.55,18.23c9.17,2.93,18.86,0.76,26.7-4.58c3.37-2.3,6.29-5.22,8.58-8.59c0.01,0.01,0.03,0.03,0.05,0.05
		c0.1-0.17,0.18-0.34,0.26-0.52c0.05-0.12,0.13-0.24,0.22-0.33c1.39-2.18,2.5-4.52,3.3-6.98C179.65,104.7,178.34,96.38,175.78,89.46
		z M176.56,112.2c-0.16,0.53-0.35,1.05-0.55,1.57c-0.09,0.54-0.31,1.06-0.63,1.51c-0.53,1.16-1.14,2.28-1.82,3.35l-0.01-0.01
		c-0.11,0.21-0.24,0.41-0.38,0.6l0,0c-0.65,0.96-1.35,1.87-2.1,2.75c-0.2,0.43-0.49,0.8-0.84,1.12c-0.69,0.61-1.33,1.28-2.06,1.85
		c-0.05,0.04-0.11,0.08-0.17,0.12c-0.2,0.18-0.4,0.36-0.61,0.53v-0.02l-0.02-0.04c-0.11,0.08-0.23,0.16-0.35,0.24l0.1,0.05
		c-1.14,0.94-2.33,1.8-3.58,2.59c-0.02-0.06-0.04-0.12-0.06-0.18c-0.07,0.06-0.15,0.12-0.22,0.18c0.02,0.04,0.04,0.09,0.06,0.13l0,0
		c-2.9,1.8-6.06,3.17-9.36,4.06c-4.45,1.16-9.11,1.19-13.57,0.08c0.01-0.07,0.02-0.13,0.03-0.19c-0.11-0.01-0.23-0.02-0.34-0.03
		c-0.01,0.05-0.01,0.09-0.02,0.14c-2.84-0.72-5.56-1.82-8.11-3.25l0.01-0.04c-0.11-0.06-0.22-0.13-0.32-0.19v0.05
		c-2.56-1.47-4.94-3.24-7.1-5.27c-8.51-7.99-12.84-19.86-9.67-31.3c3.01-10.88,12.89-20.3,23.96-22.83l-0.02,0.03
		c0.35-0.11,0.68-0.27,1.04-0.39c0.01-0.02,0.01-0.03,0.02-0.05c0.55-0.31,1.14-0.55,1.76-0.72c1.08-0.72,2.45-0.35,3.79-0.29h-0.01
		l0.09,0.01c0.13,0.01,0.25,0.01,0.38,0c0.11,0,0.21,0.02,0.31,0.07c2.36,0.35,4.69,0.91,6.95,1.67c0,0.01-0.01,0.02-0.01,0.02
		c0.44,0.08,0.88,0.2,1.3,0.37c0.2,0.07,0.4,0.12,0.61,0.18l-0.02-0.01l0.51,0.15c0.14,0.04,0.27,0.08,0.41,0.12
		c1.03,0.31,2.05,0.63,3.05,1c0.72,0.21,1.41,0.49,2.08,0.84c0.63,0.28,1.26,0.59,1.87,0.93c2.82,1.7,5.26,3.97,7.17,6.66
		c0.91,1.19,1.74,2.44,2.49,3.74c0.3,0.35,0.56,0.72,0.78,1.12c0.25,0.5,0.46,1.02,0.7,1.53c0.5,1.02,0.9,2.04,1.29,3.1
		c0.03,0.08,0.04,0.16,0.04,0.24C178.05,97.18,178.7,105.2,176.56,112.2z"/>
	<path id="Tracé_128-4" class="st47" d="M319.11,99.55c0.03-0.08,0.03-0.17-0.01-0.25c-0.14-0.32-0.3-0.64-0.46-0.95
		c-2.95-7.34-8.08-14.09-15.52-17.15c-3.74-1.46-7.61-2.57-11.56-3.32c-3.03-0.62-6.62-1.03-9.38,0.65
		c-0.02-0.01-0.04-0.02-0.07-0.03c-0.08-0.05-0.17-0.07-0.26-0.04c-9.78,2.1-18.4,9.19-23.16,17.82c-4.86,9.03-4.9,19.88-0.1,28.94
		c4.62,8.88,12.55,15.58,22.07,18.67c9.39,3,19.32,0.78,27.35-4.69c3.46-2.36,6.44-5.34,8.79-8.8c0.02,0.02,0.03,0.03,0.05,0.05
		c0.1-0.17,0.19-0.35,0.26-0.53c0.05-0.13,0.13-0.24,0.23-0.34c1.43-2.23,2.56-4.63,3.38-7.14
		C323.07,115.16,321.73,106.64,319.11,99.55z M319.91,122.84c-0.17,0.54-0.36,1.08-0.56,1.61c-0.1,0.56-0.32,1.08-0.65,1.54
		c-0.54,1.19-1.16,2.33-1.87,3.43l-0.01-0.01c-0.11,0.21-0.24,0.42-0.39,0.61l0,0c-0.66,0.98-1.38,1.92-2.15,2.82
		c-0.21,0.44-0.5,0.82-0.86,1.14c-0.71,0.63-1.36,1.31-2.11,1.9c-0.06,0.04-0.11,0.09-0.17,0.13c-0.21,0.18-0.41,0.37-0.62,0.54
		v-0.02l-0.02-0.04c-0.12,0.08-0.24,0.17-0.36,0.25l0.1,0.06c-1.16,0.96-2.39,1.85-3.67,2.65c-0.02-0.06-0.04-0.12-0.06-0.18
		c-0.07,0.06-0.15,0.12-0.22,0.18c0.02,0.04,0.04,0.09,0.06,0.13l0,0c-2.97,1.85-6.2,3.25-9.59,4.16c-4.55,1.19-9.33,1.21-13.9,0.08
		c0.01-0.07,0.02-0.13,0.03-0.2c-0.12-0.01-0.23-0.02-0.35-0.03c0,0.05-0.01,0.1-0.02,0.15c-2.9-0.74-5.7-1.86-8.31-3.33l0.01-0.04
		c-0.11-0.06-0.22-0.13-0.33-0.2v0.05c-2.62-1.51-5.06-3.32-7.27-5.4c-8.72-8.18-13.15-20.35-9.91-32.06
		c3.09-11.15,13.21-20.79,24.54-23.39l-0.02,0.03c0.36-0.12,0.7-0.28,1.06-0.39c0.01-0.02,0.01-0.03,0.02-0.05
		c0.57-0.32,1.17-0.57,1.8-0.74c1.11-0.73,2.51-0.36,3.89-0.3h-0.01l0.09,0.01c0.13,0,0.26,0.01,0.39,0c0.11,0,0.22,0.02,0.32,0.07
		c2.42,0.36,4.8,0.94,7.12,1.71c0,0.01-0.01,0.02-0.01,0.02c0.46,0.08,0.9,0.21,1.34,0.38c0.21,0.07,0.41,0.13,0.62,0.19l-0.02-0.02
		l0.53,0.15c0.14,0.04,0.28,0.08,0.42,0.12c1.05,0.32,2.1,0.65,3.13,1.03c0.74,0.21,1.45,0.5,2.13,0.86
		c0.65,0.29,1.29,0.6,1.91,0.95c2.89,1.75,5.39,4.07,7.34,6.82c0.93,1.22,1.79,2.5,2.55,3.83c0.31,0.35,0.58,0.74,0.8,1.15
		c0.25,0.51,0.47,1.05,0.72,1.56c0.51,1.05,0.92,2.09,1.33,3.17c0.03,0.08,0.04,0.16,0.05,0.24
		C321.44,107.46,322.1,115.67,319.91,122.84L319.91,122.84z"/>
	<path id="Tracé_128-5" class="st47" d="M261.75,46.97c0.03-0.08,0.03-0.17-0.01-0.25c-0.14-0.32-0.3-0.64-0.46-0.95
		c-2.95-7.34-8.08-14.09-15.52-17.15c-3.74-1.46-7.61-2.57-11.56-3.32c-3.03-0.62-6.62-1.03-9.38,0.65
		c-0.02-0.01-0.04-0.02-0.07-0.03c-0.08-0.05-0.17-0.07-0.26-0.04c-9.78,2.1-18.4,9.19-23.16,17.83c-4.86,9.03-4.9,19.88-0.1,28.94
		c4.62,8.88,12.55,15.58,22.07,18.67c9.4,3,19.32,0.78,27.35-4.69c3.46-2.36,6.44-5.34,8.79-8.8c0.02,0.02,0.03,0.03,0.05,0.05
		c0.1-0.17,0.19-0.35,0.26-0.53c0.05-0.13,0.13-0.24,0.23-0.34c1.42-2.23,2.56-4.63,3.38-7.14
		C265.72,62.58,264.38,54.06,261.75,46.97z M262.55,70.26c-0.17,0.54-0.36,1.08-0.56,1.61c-0.1,0.56-0.32,1.08-0.65,1.54
		c-0.54,1.19-1.16,2.33-1.87,3.43l-0.01-0.01c-0.11,0.21-0.24,0.42-0.39,0.61l0,0c-0.66,0.98-1.38,1.92-2.15,2.82
		c-0.21,0.44-0.5,0.82-0.86,1.14c-0.71,0.63-1.36,1.31-2.11,1.9c-0.06,0.04-0.11,0.09-0.17,0.13c-0.21,0.18-0.41,0.37-0.62,0.54
		v-0.02l-0.02-0.04c-0.12,0.08-0.24,0.17-0.36,0.25l0.1,0.06c-1.16,0.96-2.39,1.85-3.67,2.65c-0.02-0.06-0.04-0.12-0.06-0.18
		c-0.07,0.06-0.15,0.12-0.22,0.18c0.02,0.04,0.04,0.09,0.06,0.13l0,0c-2.97,1.85-6.2,3.25-9.59,4.16c-4.55,1.19-9.33,1.21-13.9,0.08
		c0.01-0.07,0.02-0.13,0.03-0.2c-0.12-0.01-0.23-0.02-0.35-0.03c0,0.05-0.01,0.1-0.02,0.15c-2.9-0.74-5.7-1.86-8.31-3.33l0.01-0.04
		c-0.11-0.06-0.22-0.13-0.33-0.2v0.05c-2.62-1.51-5.06-3.32-7.27-5.4c-8.72-8.18-13.15-20.35-9.91-32.06
		c3.09-11.15,13.21-20.79,24.54-23.39l-0.02,0.03c0.35-0.11,0.7-0.28,1.06-0.39c0.01-0.02,0.01-0.03,0.02-0.05
		c0.57-0.32,1.17-0.57,1.8-0.74c1.11-0.73,2.51-0.36,3.88-0.3h-0.01l0.09,0.01c0.13,0,0.26,0.01,0.39,0c0.11,0,0.22,0.02,0.32,0.07
		c2.42,0.36,4.8,0.94,7.12,1.71c0,0.01-0.01,0.02-0.01,0.03c0.46,0.08,0.9,0.21,1.34,0.38c0.21,0.07,0.41,0.13,0.62,0.19l-0.02-0.02
		l0.53,0.15c0.14,0.04,0.28,0.08,0.42,0.12c1.05,0.32,2.1,0.65,3.13,1.03c0.74,0.21,1.45,0.5,2.13,0.86
		c0.65,0.29,1.29,0.6,1.91,0.95c2.89,1.75,5.39,4.07,7.34,6.82c0.93,1.22,1.79,2.5,2.55,3.83c0.31,0.35,0.58,0.74,0.8,1.15
		c0.25,0.51,0.47,1.05,0.72,1.56c0.51,1.05,0.92,2.09,1.33,3.17c0.03,0.08,0.04,0.16,0.05,0.25
		C264.08,54.88,264.74,63.09,262.55,70.26L262.55,70.26z"/>
	<path id="Tracé_128-6" class="st47" d="M246.68,122.1c0.03-0.08,0.03-0.17-0.01-0.24c-0.14-0.31-0.29-0.62-0.45-0.93
		c-2.88-7.16-7.88-13.76-15.15-16.74c-3.65-1.42-7.43-2.51-11.28-3.24c-2.95-0.61-6.46-1-9.15,0.63c-0.02-0.01-0.04-0.02-0.07-0.02
		c-0.08-0.05-0.17-0.06-0.25-0.04c-9.55,2.05-17.96,8.97-22.61,17.4c-4.75,8.81-4.79,19.41-0.1,28.25
		c4.51,8.67,12.25,15.21,21.54,18.23c9.17,2.93,18.86,0.76,26.7-4.58c3.37-2.3,6.28-5.22,8.58-8.59l0.05,0.05
		c0.1-0.17,0.18-0.34,0.26-0.52c0.05-0.12,0.13-0.24,0.22-0.33c1.39-2.18,2.5-4.52,3.3-6.98
		C250.55,137.33,249.24,129.02,246.68,122.1z M247.46,144.83c-0.16,0.53-0.35,1.05-0.55,1.57c-0.09,0.54-0.31,1.06-0.63,1.51
		c-0.53,1.16-1.14,2.28-1.82,3.35l-0.01-0.01c-0.11,0.21-0.24,0.41-0.38,0.6l0,0c-0.65,0.96-1.35,1.87-2.1,2.75
		c-0.2,0.42-0.49,0.8-0.84,1.12c-0.69,0.61-1.33,1.28-2.06,1.85c-0.05,0.04-0.11,0.08-0.17,0.12c-0.2,0.18-0.4,0.36-0.61,0.53v-0.02
		l-0.02-0.04c-0.11,0.08-0.23,0.16-0.35,0.24l0.1,0.05c-1.14,0.94-2.33,1.8-3.58,2.59c-0.02-0.06-0.04-0.12-0.06-0.18
		c-0.07,0.06-0.15,0.12-0.22,0.18c0.02,0.04,0.04,0.09,0.06,0.13l0,0c-2.9,1.8-6.06,3.17-9.36,4.06c-4.45,1.16-9.11,1.19-13.57,0.08
		c0.01-0.07,0.02-0.13,0.03-0.19c-0.11-0.01-0.23-0.02-0.34-0.03c-0.01,0.05-0.01,0.09-0.02,0.14c-2.84-0.72-5.56-1.82-8.11-3.26
		l0.01-0.04c-0.11-0.06-0.22-0.13-0.32-0.19v0.05c-2.56-1.47-4.94-3.24-7.1-5.27c-8.51-7.99-12.84-19.86-9.67-31.3
		c3.01-10.88,12.89-20.3,23.96-22.83l-0.02,0.03c0.35-0.11,0.68-0.27,1.04-0.39c0.01-0.02,0.01-0.03,0.02-0.05
		c0.55-0.31,1.14-0.56,1.76-0.72c1.08-0.71,2.45-0.35,3.79-0.29h-0.01l0.09,0.01c0.13,0.01,0.25,0.01,0.38,0
		c0.11,0,0.21,0.02,0.31,0.07c2.36,0.35,4.68,0.91,6.95,1.67l-0.01,0.02c0.44,0.08,0.88,0.2,1.3,0.37c0.2,0.07,0.4,0.13,0.61,0.18
		l-0.02-0.02l0.51,0.15c0.14,0.04,0.27,0.08,0.41,0.12c1.03,0.31,2.05,0.63,3.05,1c0.72,0.21,1.41,0.49,2.08,0.84
		c0.63,0.28,1.26,0.59,1.87,0.93c2.82,1.7,5.26,3.97,7.17,6.66c0.91,1.19,1.74,2.44,2.49,3.74c0.3,0.35,0.56,0.72,0.78,1.12
		c0.25,0.5,0.46,1.02,0.7,1.52c0.5,1.02,0.9,2.04,1.29,3.1c0.03,0.08,0.04,0.16,0.04,0.24C248.95,129.82,249.6,137.83,247.46,144.83
		L247.46,144.83z"/>
	<path id="Tracé_128-7" class="st46" d="M330.57,321.18c0.03-0.07,0.02-0.14-0.01-0.21c-0.12-0.27-0.24-0.53-0.38-0.79
		c-2.44-6.07-6.69-11.67-12.86-14.2c-3.1-1.21-6.3-2.13-9.57-2.74c-2.5-0.52-5.48-0.85-7.77,0.54c-0.02-0.01-0.04-0.02-0.06-0.02
		c-0.06-0.04-0.14-0.05-0.22-0.04c-8.1,1.73-15.23,7.61-19.18,14.76c-4.03,7.47-4.06,16.46-0.08,23.97
		c3.83,7.35,10.39,12.9,18.28,15.46c7.78,2.48,16,0.64,22.65-3.88c2.86-1.95,5.33-4.43,7.28-7.29l0.04,0.04
		c0.08-0.14,0.15-0.29,0.22-0.44c0.04-0.1,0.11-0.2,0.19-0.28c1.18-1.85,2.12-3.83,2.8-5.92
		C333.86,334.11,332.75,327.05,330.57,321.18z M331.23,340.47c-0.14,0.45-0.3,0.89-0.46,1.33c-0.08,0.46-0.26,0.9-0.54,1.28
		c-0.45,0.98-0.96,1.93-1.55,2.84l-0.01-0.01c-0.09,0.18-0.2,0.35-0.32,0.51l0,0c-0.55,0.81-1.14,1.59-1.78,2.33
		c-0.17,0.36-0.41,0.68-0.71,0.95c-0.59,0.52-1.12,1.08-1.74,1.57c-0.05,0.04-0.09,0.07-0.14,0.11c-0.17,0.15-0.34,0.3-0.52,0.45
		v-0.01l-0.02-0.04c-0.1,0.07-0.2,0.13-0.29,0.2l0.08,0.05c-0.96,0.8-1.98,1.53-3.04,2.2c-0.02-0.05-0.04-0.1-0.05-0.15
		c-0.06,0.05-0.12,0.1-0.18,0.15c0.02,0.04,0.03,0.07,0.05,0.11l0,0c-2.46,1.53-5.14,2.69-7.94,3.44
		c-3.77,0.98-7.73,1.01-11.51,0.07c0.01-0.06,0.02-0.11,0.02-0.16c-0.1-0.01-0.19-0.02-0.29-0.02c0,0.04-0.01,0.08-0.02,0.12
		c-2.4-0.61-4.72-1.54-6.88-2.76l0.01-0.03c-0.09-0.05-0.18-0.11-0.27-0.16v0.05c-2.17-1.25-4.19-2.75-6.02-4.47
		c-7.22-6.77-10.89-16.85-8.2-26.55c2.91-9.57,10.62-16.92,20.32-19.37l-0.02,0.02c0.29-0.1,0.58-0.23,0.88-0.33
		c0.01-0.01,0.01-0.03,0.02-0.04c0.47-0.27,0.97-0.47,1.49-0.61c0.92-0.61,2.08-0.3,3.22-0.25h-0.01l0.07,0.01
		c0.11,0,0.21,0.01,0.32,0c0.09,0,0.18,0.02,0.26,0.06c2,0.3,3.97,0.77,5.89,1.42c0,0.01,0,0.01-0.01,0.02
		c0.38,0.07,0.75,0.17,1.11,0.31c0.17,0.06,0.34,0.11,0.52,0.15l-0.02-0.01l0.44,0.13c0.12,0.03,0.23,0.07,0.35,0.1
		c0.87,0.26,1.74,0.54,2.59,0.85c0.61,0.18,1.2,0.42,1.76,0.71c0.54,0.24,1.07,0.5,1.58,0.79c2.39,1.45,4.46,3.37,6.08,5.65
		c0.77,1.01,1.48,2.07,2.11,3.17c0.25,0.29,0.48,0.61,0.66,0.95c0.21,0.43,0.39,0.87,0.6,1.29c0.42,0.87,0.76,1.73,1.1,2.63
		c0.02,0.06,0.04,0.13,0.04,0.2C332.61,327.68,332.94,334.27,331.23,340.47z"/>
	<path id="Tracé_128-8" class="st46" d="M327.39,389.24c0.03-0.07,0.02-0.14-0.01-0.21c-0.12-0.27-0.24-0.53-0.38-0.79
		c-2.44-6.07-6.69-11.67-12.86-14.2c-3.1-1.21-6.3-2.13-9.57-2.74c-2.5-0.51-5.48-0.85-7.77,0.54c-0.02-0.01-0.04-0.02-0.06-0.02
		c-0.06-0.04-0.14-0.05-0.22-0.04c-8.1,1.73-15.23,7.61-19.18,14.76c-4.03,7.47-4.06,16.46-0.08,23.97
		c3.83,7.35,10.39,12.9,18.28,15.46c7.78,2.48,16,0.64,22.64-3.88c2.86-1.95,5.33-4.43,7.28-7.29l0.04,0.04
		c0.08-0.14,0.15-0.29,0.22-0.44c0.04-0.11,0.11-0.2,0.19-0.28c1.18-1.85,2.12-3.83,2.8-5.92
		C330.67,402.16,329.56,395.11,327.39,389.24z M328.05,408.52c-0.14,0.45-0.3,0.89-0.46,1.33c-0.08,0.46-0.26,0.9-0.54,1.28
		c-0.45,0.98-0.96,1.93-1.55,2.84l-0.01-0.01c-0.09,0.18-0.2,0.35-0.32,0.51l0,0c-0.55,0.81-1.14,1.59-1.78,2.33
		c-0.17,0.36-0.41,0.68-0.71,0.95c-0.59,0.52-1.12,1.09-1.74,1.57c-0.05,0.04-0.09,0.07-0.14,0.11c-0.17,0.15-0.34,0.3-0.52,0.45
		v-0.01l-0.02-0.04c-0.1,0.07-0.2,0.14-0.29,0.21l0.08,0.05c-0.96,0.8-1.98,1.53-3.04,2.2c-0.02-0.05-0.04-0.1-0.05-0.15
		c-0.06,0.05-0.12,0.1-0.18,0.15c0.02,0.04,0.03,0.07,0.05,0.11l0,0c-2.46,1.53-5.14,2.69-7.94,3.44
		c-3.77,0.98-7.73,1.01-11.51,0.07c0.01-0.06,0.02-0.11,0.02-0.16c-0.1-0.01-0.19-0.02-0.29-0.02c0,0.04-0.01,0.08-0.02,0.12
		c-2.4-0.61-4.72-1.54-6.88-2.76l0.01-0.03c-0.09-0.05-0.18-0.11-0.27-0.16v0.04c-2.17-1.25-4.19-2.75-6.02-4.47
		c-7.22-6.77-10.89-16.85-8.2-26.55c2.91-9.57,10.62-16.92,20.32-19.37l-0.02,0.02c0.29-0.09,0.58-0.23,0.88-0.33
		c0.01-0.01,0.01-0.03,0.02-0.04c0.47-0.27,0.97-0.47,1.49-0.61c0.92-0.61,2.08-0.3,3.22-0.25h-0.01l0.07,0.01
		c0.11,0,0.21,0.01,0.32,0c0.09,0,0.18,0.02,0.26,0.05c2,0.3,3.97,0.78,5.89,1.42c0,0.01,0,0.01-0.01,0.02
		c0.38,0.07,0.75,0.17,1.11,0.31c0.17,0.06,0.34,0.11,0.52,0.15l-0.02-0.01l0.44,0.13c0.12,0.03,0.23,0.07,0.35,0.1
		c0.87,0.26,1.74,0.54,2.59,0.85c0.61,0.18,1.2,0.42,1.76,0.71c0.54,0.24,1.07,0.5,1.58,0.78c2.39,1.45,4.46,3.37,6.08,5.65
		c0.77,1.01,1.48,2.07,2.11,3.17c0.25,0.29,0.47,0.61,0.66,0.95c0.21,0.43,0.39,0.87,0.6,1.29c0.42,0.87,0.76,1.73,1.1,2.63
		c0.02,0.06,0.04,0.13,0.04,0.2C329.42,395.74,329.75,402.32,328.05,408.52z"/>
	<path id="Tracé_128-9" class="st46" d="M270.75,336.34c0.06-0.14,0.05-0.3-0.01-0.44c-0.25-0.57-0.52-1.12-0.8-1.67
		c-5.19-12.92-14.23-24.83-27.35-30.21c-6.59-2.57-13.41-4.52-20.36-5.84c-5.33-1.09-11.66-1.81-16.52,1.14
		c-0.04-0.02-0.08-0.04-0.12-0.05c-0.14-0.09-0.3-0.12-0.46-0.08c-17.23,3.69-32.41,16.19-40.81,31.41
		c-8.84,16.01-8.36,34.88-0.17,50.99c8.15,15.64,22.11,27.46,38.89,32.9c16.55,5.28,34.05,1.37,48.18-8.26
		c6.09-4.15,11.34-9.42,15.49-15.51c0.03,0.03,0.06,0.06,0.08,0.09c0.17-0.3,0.33-0.62,0.46-0.94c0.09-0.22,0.23-0.43,0.4-0.59
		c2.51-3.93,4.51-8.16,5.95-12.59C277.73,363.84,275.37,348.83,270.75,336.34z M272.15,377.37c-0.29,0.96-0.63,1.9-0.99,2.83
		c-0.17,0.98-0.56,1.91-1.14,2.72c-0.95,2.09-2.05,4.11-3.29,6.04l-0.02-0.02c-0.2,0.38-0.43,0.74-0.68,1.08l0,0
		c-1.17,1.72-2.43,3.38-3.79,4.96c-0.36,0.77-0.88,1.45-1.51,2.01c-1.25,1.11-2.39,2.31-3.71,3.34c-0.1,0.08-0.2,0.15-0.3,0.23
		c-0.36,0.32-0.73,0.64-1.1,0.96l-0.01-0.03l-0.05-0.08c-0.21,0.15-0.42,0.29-0.63,0.44l0.17,0.1c-2.05,1.69-4.21,3.26-6.46,4.68
		c-0.04-0.11-0.07-0.22-0.11-0.32c-0.13,0.11-0.26,0.22-0.39,0.32c0.03,0.08,0.07,0.16,0.11,0.23l0.01,0.01
		c-5.24,3.26-10.93,5.72-16.89,7.32c-8.02,2.09-16.44,2.14-24.49,0.14c0.01-0.12,0.03-0.23,0.05-0.35c-0.2-0.02-0.41-0.04-0.61-0.05
		c-0.01,0.09-0.02,0.17-0.03,0.26c-5.12-1.3-10.04-3.28-14.64-5.88l0.02-0.07c-0.2-0.11-0.39-0.23-0.59-0.35v0.1
		c-4.62-2.66-8.92-5.85-12.8-9.5c-15.37-14.41-23.17-35.85-17.46-56.49c5.44-19.64,23.27-36.64,43.24-41.21l-0.03,0.05
		c0.63-0.2,1.24-0.49,1.87-0.7c0.01-0.03,0.03-0.06,0.03-0.09c1-0.57,2.07-1,3.18-1.3c1.95-1.29,4.43-0.64,6.85-0.53l-0.01-0.01
		c0.05,0,0.1,0.01,0.16,0.01c0.23,0.01,0.46,0.01,0.69,0.01c0.19-0.01,0.38,0.03,0.56,0.12c4.26,0.64,8.46,1.65,12.54,3.02
		c-0.01,0.02-0.01,0.03-0.02,0.05c0.8,0.14,1.59,0.37,2.35,0.67c0.36,0.12,0.73,0.23,1.1,0.33l-0.04-0.03
		c0.31,0.09,0.62,0.18,0.93,0.27c0.25,0.07,0.49,0.14,0.74,0.22c1.86,0.56,3.7,1.14,5.51,1.81c1.3,0.38,2.55,0.88,3.75,1.51
		c1.14,0.51,2.27,1.06,3.37,1.67c5.2,2.86,9.36,7.36,12.94,12.02c1.64,2.15,3.15,4.4,4.5,6.74c0.54,0.62,1.01,1.3,1.4,2.03
		c0.45,0.91,0.83,1.84,1.27,2.75c0.89,1.85,1.62,3.68,2.33,5.59c0.05,0.14,0.08,0.28,0.08,0.43
		C274.85,350.27,276.01,364.74,272.15,377.37L272.15,377.37z"/>
	<path id="Tracé_128-10" class="st47" d="M96.05,81.19c0.03-0.08,0.03-0.17-0.01-0.25c-0.14-0.32-0.3-0.64-0.46-0.95
		c-2.94-7.34-8.08-14.09-15.52-17.15c-3.74-1.46-7.61-2.57-11.56-3.32c-3.03-0.62-6.62-1.03-9.38,0.65
		c-0.02-0.01-0.04-0.02-0.07-0.02c-0.08-0.05-0.17-0.07-0.26-0.04c-9.78,2.1-18.4,9.19-23.16,17.83c-4.86,9.03-4.9,19.88-0.1,28.94
		c4.62,8.88,12.55,15.58,22.07,18.67c9.39,3,19.32,0.78,27.35-4.69c3.46-2.36,6.44-5.34,8.79-8.8c0.02,0.02,0.03,0.03,0.05,0.05
		c0.1-0.17,0.19-0.35,0.26-0.53c0.05-0.13,0.13-0.24,0.23-0.34c1.43-2.23,2.56-4.63,3.38-7.15C100.01,96.79,98.67,88.28,96.05,81.19
		z M96.85,104.48c-0.17,0.54-0.36,1.08-0.56,1.61c-0.1,0.56-0.32,1.08-0.65,1.54c-0.54,1.19-1.16,2.33-1.87,3.43l-0.01-0.01
		c-0.11,0.21-0.24,0.42-0.39,0.61l0,0c-0.66,0.98-1.38,1.92-2.15,2.82c-0.21,0.44-0.5,0.82-0.86,1.14c-0.71,0.63-1.36,1.31-2.11,1.9
		c-0.06,0.04-0.11,0.09-0.17,0.13c-0.21,0.18-0.41,0.37-0.62,0.54v-0.02l-0.03-0.04c-0.12,0.08-0.24,0.17-0.36,0.25l0.1,0.06
		c-1.16,0.96-2.39,1.85-3.67,2.65c-0.02-0.06-0.04-0.12-0.06-0.18c-0.07,0.06-0.15,0.12-0.22,0.18c0.02,0.04,0.04,0.09,0.06,0.13
		l0,0c-2.97,1.85-6.2,3.25-9.59,4.16c-4.55,1.19-9.33,1.21-13.9,0.08c0.01-0.07,0.02-0.13,0.03-0.2c-0.12-0.01-0.23-0.02-0.35-0.03
		c0,0.05-0.01,0.1-0.02,0.15c-2.9-0.74-5.7-1.86-8.31-3.34l0.01-0.04c-0.11-0.06-0.22-0.13-0.33-0.2v0.05
		c-2.62-1.51-5.06-3.32-7.27-5.39c-8.72-8.18-13.15-20.35-9.91-32.06c3.09-11.15,13.21-20.79,24.54-23.39l-0.02,0.03
		c0.35-0.12,0.7-0.28,1.06-0.39c0.01-0.02,0.01-0.03,0.02-0.05c0.57-0.32,1.17-0.57,1.8-0.74c1.11-0.73,2.51-0.36,3.88-0.3h-0.01
		l0.09,0.01c0.13,0,0.26,0.01,0.39,0c0.11,0,0.22,0.02,0.32,0.07c2.42,0.36,4.8,0.94,7.12,1.71c0,0.01-0.01,0.02-0.01,0.03
		c0.46,0.08,0.9,0.21,1.34,0.38c0.21,0.07,0.41,0.13,0.62,0.19l-0.02-0.02l0.53,0.15c0.14,0.04,0.28,0.08,0.42,0.12
		c1.06,0.32,2.1,0.65,3.13,1.02c0.74,0.21,1.45,0.5,2.13,0.86c0.65,0.29,1.29,0.6,1.91,0.95c2.89,1.75,5.39,4.07,7.34,6.82
		c0.93,1.22,1.78,2.5,2.55,3.83c0.31,0.35,0.58,0.74,0.8,1.15c0.25,0.51,0.47,1.05,0.72,1.56c0.51,1.05,0.92,2.09,1.33,3.17
		c0.03,0.08,0.04,0.16,0.04,0.24C98.38,89.1,99.04,97.31,96.85,104.48L96.85,104.48z"/>
	<path id="Tracé_128-11" class="st47" d="M143.05,22.24c0.03-0.08,0.03-0.17-0.01-0.25c-0.14-0.32-0.3-0.64-0.46-0.95
		c-2.95-7.34-8.08-14.09-15.52-17.15c-3.74-1.46-7.61-2.57-11.56-3.32c-3.03-0.62-6.62-1.03-9.38,0.65
		c-0.02-0.01-0.04-0.02-0.07-0.03c-0.08-0.05-0.17-0.07-0.26-0.04c-9.78,2.1-18.4,9.19-23.16,17.83c-4.86,9.03-4.9,19.88-0.1,28.94
		c4.62,8.88,12.55,15.58,22.07,18.67c9.39,3,19.32,0.78,27.35-4.69c3.46-2.36,6.44-5.34,8.79-8.8c0.02,0.02,0.03,0.03,0.05,0.05
		c0.1-0.17,0.19-0.35,0.26-0.53c0.05-0.13,0.13-0.24,0.23-0.33c1.43-2.23,2.56-4.63,3.38-7.15
		C147.02,37.84,145.68,29.33,143.05,22.24z M143.85,45.53c-0.17,0.54-0.36,1.08-0.56,1.61c-0.1,0.56-0.32,1.08-0.65,1.54
		c-0.54,1.19-1.16,2.33-1.87,3.43l-0.01-0.01c-0.11,0.21-0.24,0.42-0.39,0.61l0,0c-0.66,0.98-1.38,1.92-2.15,2.82
		c-0.21,0.44-0.5,0.82-0.86,1.14c-0.71,0.63-1.36,1.31-2.11,1.9c-0.06,0.04-0.11,0.08-0.17,0.13c-0.21,0.18-0.41,0.37-0.62,0.54
		v-0.02l-0.03-0.04c-0.12,0.08-0.24,0.17-0.35,0.25l0.1,0.06c-1.16,0.96-2.39,1.85-3.67,2.65c-0.02-0.06-0.04-0.12-0.06-0.18
		c-0.07,0.06-0.15,0.12-0.22,0.18c0.02,0.04,0.04,0.09,0.06,0.13l0,0c-2.97,1.85-6.2,3.25-9.59,4.16c-4.55,1.19-9.33,1.21-13.9,0.08
		c0.01-0.07,0.02-0.13,0.03-0.2c-0.12-0.01-0.23-0.02-0.35-0.03c0,0.05-0.01,0.1-0.02,0.15c-2.9-0.74-5.7-1.86-8.31-3.33l0.01-0.04
		c-0.11-0.06-0.22-0.13-0.33-0.2v0.05c-2.62-1.51-5.06-3.32-7.27-5.39c-8.72-8.18-13.15-20.35-9.91-32.06
		c3.08-11.14,13.2-20.79,24.53-23.38l-0.02,0.03c0.36-0.12,0.7-0.28,1.06-0.39c0.01-0.02,0.01-0.03,0.02-0.05
		c0.57-0.32,1.17-0.57,1.8-0.74c1.11-0.73,2.51-0.36,3.89-0.3h-0.01l0.09,0.01c0.13,0,0.26,0.01,0.39,0c0.11,0,0.22,0.02,0.32,0.07
		c2.42,0.36,4.8,0.94,7.12,1.71c0,0.01-0.01,0.02-0.01,0.03c0.46,0.08,0.9,0.21,1.34,0.38c0.21,0.07,0.41,0.13,0.62,0.19l-0.02-0.02
		l0.53,0.15c0.14,0.04,0.28,0.08,0.42,0.12c1.06,0.32,2.1,0.65,3.13,1.03c0.74,0.21,1.45,0.5,2.13,0.86
		c0.65,0.29,1.29,0.6,1.91,0.95c2.89,1.75,5.39,4.07,7.34,6.82c0.93,1.22,1.78,2.5,2.55,3.83c0.31,0.35,0.58,0.74,0.8,1.15
		c0.25,0.51,0.47,1.05,0.72,1.56c0.51,1.05,0.92,2.09,1.33,3.17c0.03,0.08,0.04,0.16,0.04,0.25
		C145.38,30.14,146.04,38.36,143.85,45.53L143.85,45.53z"/>
	<path id="Tracé_128-12" class="st46" d="M152.14,389.86c0.06-0.16,0.06-0.34-0.01-0.49c-0.28-0.63-0.58-1.25-0.9-1.87
		c-5.79-14.41-15.87-27.69-30.5-33.7c-7.35-2.86-14.96-5.04-22.71-6.52c-5.94-1.22-13-2.02-18.43,1.27
		c-0.04-0.03-0.09-0.04-0.14-0.05c-0.15-0.1-0.34-0.13-0.51-0.09c-19.22,4.12-36.15,18.06-45.51,35.03
		c-9.85,17.86-9.33,38.91-0.19,56.87c9.09,17.44,24.66,30.62,43.37,36.69c18.46,5.89,37.97,1.53,53.74-9.22
		c6.79-4.63,12.65-10.5,17.27-17.3c0.03,0.03,0.06,0.06,0.09,0.1c0.19-0.34,0.36-0.69,0.51-1.05c0.1-0.25,0.25-0.47,0.45-0.66
		c2.8-4.38,5.03-9.1,6.64-14.04C159.93,420.52,157.3,403.79,152.14,389.86z M153.7,435.62c-0.33,1.07-0.7,2.12-1.1,3.16
		c-0.19,1.09-0.62,2.13-1.27,3.03c-1.06,2.33-2.29,4.58-3.67,6.74l-0.02-0.03c-0.22,0.42-0.48,0.82-0.76,1.21l0,0
		c-1.3,1.92-2.71,3.77-4.23,5.53c-0.4,0.86-0.98,1.62-1.69,2.25c-1.39,1.23-2.67,2.58-4.14,3.73c-0.11,0.09-0.22,0.17-0.33,0.25
		c-0.41,0.36-0.81,0.72-1.22,1.07l-0.01-0.03l-0.05-0.09c-0.23,0.16-0.46,0.33-0.7,0.49l0.19,0.11c-2.29,1.89-4.69,3.63-7.2,5.22
		c-0.05-0.12-0.08-0.24-0.12-0.36c-0.15,0.12-0.29,0.24-0.43,0.36c0.04,0.09,0.08,0.17,0.12,0.26l0.01,0.01
		c-5.85,3.63-12.19,6.39-18.84,8.17c-8.95,2.33-18.34,2.39-27.32,0.16c0.01-0.13,0.04-0.26,0.06-0.39
		c-0.23-0.02-0.46-0.04-0.68-0.05c-0.01,0.1-0.03,0.19-0.04,0.28c-5.71-1.45-11.2-3.66-16.33-6.55l0.02-0.08
		c-0.22-0.13-0.44-0.26-0.65-0.39v0.11c-5.16-2.97-9.95-6.53-14.28-10.6c-17.14-16.08-25.84-39.98-19.47-63
		c6.06-21.9,25.95-40.86,48.22-45.96l-0.04,0.05c0.7-0.23,1.38-0.55,2.08-0.78c0.02-0.03,0.03-0.07,0.04-0.1
		c1.11-0.63,2.3-1.12,3.54-1.45c2.18-1.44,4.94-0.71,7.63-0.59l-0.01-0.01l0.18,0.01c0.26,0.01,0.51,0.02,0.76,0.01
		c0.21-0.01,0.43,0.04,0.62,0.13c4.75,0.71,9.43,1.84,13.99,3.37c-0.01,0.02-0.01,0.03-0.02,0.05c0.9,0.16,1.78,0.41,2.62,0.74
		c0.4,0.14,0.82,0.25,1.23,0.36l-0.04-0.03c0.35,0.1,0.69,0.2,1.04,0.3c0.28,0.08,0.55,0.16,0.83,0.24
		c2.07,0.62,4.13,1.27,6.15,2.02c1.45,0.42,2.85,0.99,4.18,1.69c1.27,0.57,2.53,1.18,3.76,1.86c5.8,3.19,10.44,8.21,14.43,13.4
		c1.83,2.4,3.51,4.91,5.02,7.52c0.6,0.69,1.13,1.45,1.56,2.26c0.5,1.01,0.92,2.06,1.42,3.07c1,2.06,1.8,4.1,2.6,6.23
		c0.06,0.15,0.09,0.32,0.09,0.48C156.71,405.4,158.01,421.54,153.7,435.62z"/>
	<path id="Tracé_128-13" class="st46" d="M238.33,452.81c0.04-0.11,0.04-0.23-0.01-0.33c-0.19-0.42-0.39-0.84-0.6-1.25
		c-3.89-9.68-10.66-18.6-20.49-22.63c-4.94-1.92-10.05-3.39-15.26-4.38c-3.99-0.82-8.73-1.35-12.38,0.85
		c-0.03-0.02-0.06-0.03-0.09-0.03c-0.1-0.06-0.23-0.09-0.34-0.06c-12.91,2.77-24.28,12.13-30.57,23.52
		c-6.62,12-6.26,26.13-0.13,38.2c6.1,11.72,16.56,20.57,29.13,24.64c12.4,3.95,25.5,1.03,36.09-6.19c4.56-3.11,8.5-7.05,11.6-11.62
		l0.06,0.06c0.13-0.23,0.24-0.46,0.35-0.7c0.07-0.17,0.17-0.32,0.3-0.44c1.88-2.94,3.38-6.11,4.46-9.43
		C243.56,473.4,241.79,462.16,238.33,452.81z M239.38,483.54c-0.22,0.72-0.47,1.42-0.74,2.12c-0.13,0.73-0.42,1.43-0.85,2.04
		c-0.71,1.57-1.54,3.08-2.46,4.53l-0.01-0.02c-0.15,0.28-0.32,0.55-0.51,0.81l0,0c-0.87,1.29-1.82,2.53-2.84,3.72
		c-0.27,0.57-0.66,1.09-1.13,1.51c-0.93,0.83-1.79,1.73-2.78,2.5c-0.07,0.06-0.15,0.11-0.23,0.17c-0.27,0.24-0.54,0.48-0.82,0.72
		l-0.01-0.02l-0.03-0.06c-0.15,0.11-0.31,0.22-0.47,0.33l0.13,0.07c-1.54,1.27-3.15,2.44-4.84,3.5c-0.03-0.08-0.06-0.16-0.08-0.24
		c-0.1,0.08-0.2,0.16-0.29,0.24c0.03,0.06,0.05,0.12,0.08,0.17l0,0c-3.93,2.44-8.19,4.29-12.65,5.49
		c-6.01,1.57-12.32,1.6-18.34,0.11c0.01-0.09,0.02-0.17,0.04-0.26c-0.15-0.01-0.3-0.03-0.46-0.04c-0.01,0.07-0.02,0.13-0.02,0.19
		c-3.83-0.98-7.52-2.46-10.96-4.4l0.01-0.05c-0.15-0.08-0.29-0.17-0.44-0.26v0.07c-3.46-1.99-6.68-4.38-9.59-7.12
		c-11.51-10.8-17.35-26.85-13.07-42.31c4.07-14.71,17.43-27.44,32.38-30.87l-0.02,0.03c0.47-0.15,0.93-0.37,1.4-0.52
		c0.01-0.02,0.02-0.05,0.03-0.07c0.75-0.42,1.55-0.75,2.38-0.97c1.46-0.97,3.32-0.48,5.13-0.4l-0.01-0.01l0.12,0.01
		c0.17,0.01,0.34,0.01,0.51,0.01c0.14,0,0.29,0.03,0.42,0.09c3.19,0.48,6.33,1.24,9.39,2.26c-0.01,0.01-0.01,0.02-0.01,0.03
		c0.6,0.11,1.19,0.28,1.76,0.5c0.27,0.09,0.55,0.17,0.82,0.24l-0.03-0.02l0.7,0.2c0.18,0.05,0.37,0.11,0.55,0.16
		c1.39,0.42,2.77,0.86,4.13,1.35c0.97,0.28,1.91,0.66,2.81,1.13c0.85,0.38,1.7,0.8,2.53,1.25c3.9,2.14,7.01,5.51,9.69,9
		c1.23,1.61,2.36,3.3,3.37,5.05c0.4,0.47,0.76,0.98,1.05,1.52c0.33,0.68,0.62,1.38,0.95,2.06c0.67,1.38,1.21,2.76,1.75,4.19
		c0.04,0.1,0.06,0.21,0.06,0.32C241.4,463.24,242.27,474.08,239.38,483.54L239.38,483.54z"/>
	<path id="Tracé_128-14" class="st46" d="M287.4,481.43c0.02-0.05,0.02-0.1,0-0.14c-0.08-0.18-0.17-0.36-0.26-0.54
		c-1.68-4.19-4.61-8.05-8.87-9.8c-2.14-0.83-4.35-1.47-6.6-1.89c-1.73-0.35-3.78-0.59-5.36,0.37c-0.01-0.01-0.03-0.01-0.04-0.02
		c-0.04-0.03-0.1-0.04-0.15-0.03c-5.65,1.38-10.46,5.08-13.23,10.18c-2.78,5.16-2.8,11.36-0.06,16.54
		c2.64,5.07,7.17,8.9,12.61,10.67c5.34,1.57,11.11,0.58,15.63-2.68c1.97-1.35,3.68-3.05,5.02-5.03c0.01,0.01,0.02,0.02,0.03,0.03
		c0.06-0.1,0.11-0.2,0.15-0.3c0.03-0.07,0.07-0.14,0.13-0.19c0.81-1.27,1.46-2.65,1.93-4.08
		C289.66,490.34,288.9,485.48,287.4,481.43z M287.85,494.73c-0.1,0.31-0.2,0.62-0.32,0.92c-0.05,0.32-0.18,0.62-0.37,0.88
		c-0.31,0.68-0.67,1.33-1.07,1.96l-0.01-0.01c-0.06,0.12-0.14,0.24-0.22,0.35l0,0c-0.38,0.56-0.79,1.1-1.23,1.61
		c-0.12,0.25-0.28,0.47-0.49,0.65c-0.4,0.36-0.78,0.75-1.2,1.08c-0.03,0.03-0.07,0.05-0.1,0.07c-0.12,0.1-0.23,0.21-0.36,0.31v-0.01
		l-0.01-0.03l-0.2,0.14l0.06,0.03c-0.67,0.55-1.37,1.06-2.1,1.52c-0.01-0.03-0.02-0.07-0.04-0.1c-0.04,0.03-0.09,0.07-0.13,0.1
		c0.01,0.03,0.02,0.05,0.04,0.08l0,0c-1.7,1.06-3.55,1.86-5.48,2.38c-2.6,0.68-5.33,0.69-7.94,0.05c0-0.04,0.01-0.08,0.02-0.11
		c-0.07-0.01-0.13-0.01-0.2-0.02c0,0.03-0.01,0.05-0.01,0.08c-1.66-0.42-3.26-1.06-4.75-1.9l0.01-0.02
		c-0.06-0.04-0.13-0.08-0.19-0.11v0.03c-1.5-0.86-2.89-1.9-4.15-3.08c-4.98-4.67-7.51-11.63-5.66-18.32
		c2.01-6.6,7.33-11.67,14.02-13.36l-0.01,0.02c0.2-0.07,0.4-0.16,0.61-0.22c0-0.01,0.01-0.02,0.01-0.03
		c0.32-0.18,0.67-0.32,1.03-0.42c0.7-0.29,1.48-0.35,2.22-0.17l0,0h0.05c0.08,0,0.15,0,0.22,0c0.06,0,0.12,0.01,0.18,0.04
		c1.38,0.21,2.74,0.53,4.07,0.98l-0.01,0.02c0.26,0.05,0.52,0.12,0.76,0.22c0.12,0.04,0.24,0.07,0.36,0.11l-0.01-0.01l0.3,0.09
		c0.08,0.02,0.16,0.04,0.24,0.07c0.6,0.18,1.2,0.37,1.79,0.59c0.42,0.12,0.83,0.29,1.22,0.49c0.37,0.16,0.73,0.34,1.09,0.54
		c1.65,1,3.08,2.33,4.2,3.9c0.53,0.7,1.02,1.43,1.46,2.19c0.17,0.2,0.33,0.42,0.45,0.66c0.14,0.29,0.27,0.6,0.41,0.89
		c0.29,0.6,0.52,1.19,0.76,1.81c0.02,0.04,0.03,0.09,0.03,0.14C288.79,485.92,289.03,490.46,287.85,494.73L287.85,494.73z"/>
	<path id="Tracé_128-15" class="st46" d="M305.79,520.92c0.02-0.04,0.02-0.09,0-0.13c-0.07-0.16-0.15-0.32-0.23-0.48
		c-1.48-3.68-4.05-7.07-7.79-8.61c-1.88-0.73-3.82-1.29-5.8-1.66c-1.52-0.31-3.32-0.52-4.71,0.33c-0.01-0.01-0.02-0.01-0.03-0.01
		c-0.04-0.02-0.09-0.03-0.13-0.02c-4.96,1.21-9.18,4.46-11.63,8.95c-2.44,4.53-2.46,9.98-0.05,14.53c2.32,4.46,6.3,7.82,11.08,9.37
		c4.69,1.38,9.76,0.51,13.73-2.35c1.73-1.18,3.23-2.68,4.41-4.42l0.02,0.03c0.05-0.09,0.09-0.18,0.13-0.27
		c0.03-0.06,0.07-0.12,0.11-0.17c0.72-1.12,1.29-2.32,1.7-3.59C307.78,528.76,307.11,524.48,305.79,520.92z M306.19,532.61
		c-0.08,0.27-0.18,0.54-0.28,0.81c-0.05,0.28-0.16,0.54-0.33,0.78c-0.27,0.6-0.58,1.17-0.94,1.72l-0.01-0.01
		c-0.06,0.11-0.12,0.21-0.19,0.31l0,0c-0.33,0.49-0.69,0.96-1.08,1.41c-0.1,0.22-0.25,0.41-0.43,0.57
		c-0.36,0.32-0.68,0.66-1.06,0.95c-0.03,0.02-0.06,0.04-0.08,0.07c-0.1,0.09-0.21,0.18-0.31,0.27v-0.01l-0.01-0.02
		c-0.06,0.04-0.12,0.08-0.18,0.12l0.05,0.03c-0.58,0.48-1.2,0.93-1.84,1.33c-0.01-0.03-0.02-0.06-0.03-0.09
		c-0.04,0.03-0.07,0.06-0.11,0.09c0.01,0.02,0.02,0.04,0.03,0.07l0,0c-1.49,0.93-3.11,1.63-4.81,2.09c-2.29,0.6-4.68,0.61-6.98,0.04
		c0-0.03,0.01-0.07,0.02-0.1l-0.17-0.01c0,0.02-0.01,0.05-0.01,0.07c-1.46-0.37-2.86-0.93-4.17-1.67v-0.02
		c-0.05-0.03-0.11-0.07-0.17-0.1v0.03c-1.32-0.76-2.54-1.67-3.65-2.71c-4.38-4.11-6.6-10.21-4.97-16.09
		c1.76-5.8,6.44-10.25,12.32-11.74l-0.01,0.01c0.18-0.06,0.35-0.14,0.53-0.2c0-0.01,0.01-0.02,0.01-0.03
		c0.28-0.16,0.59-0.28,0.9-0.37c0.62-0.25,1.3-0.31,1.95-0.15l0,0h0.04c0.07,0,0.13,0,0.2,0c0.05,0,0.11,0.01,0.16,0.03
		c1.21,0.18,2.41,0.47,3.57,0.86v0.01c0.23,0.04,0.45,0.1,0.67,0.19c0.1,0.03,0.21,0.07,0.31,0.09l-0.01-0.01l0.26,0.08
		c0.07,0.02,0.14,0.04,0.21,0.06c0.53,0.16,1.05,0.33,1.57,0.52c0.37,0.11,0.73,0.25,1.07,0.43c0.32,0.14,0.65,0.3,0.96,0.47
		c1.45,0.88,2.7,2.04,3.69,3.42c0.47,0.61,0.9,1.25,1.28,1.92c0.15,0.18,0.29,0.37,0.4,0.58c0.13,0.26,0.24,0.53,0.36,0.78
		c0.26,0.53,0.46,1.05,0.67,1.59c0.01,0.04,0.02,0.08,0.02,0.12C307.02,524.86,307.22,528.85,306.19,532.61L306.19,532.61z"/>
	<path id="Tracé_128-16" class="st46" d="M320.31,449.9c0.02-0.04,0.02-0.09,0-0.13c-0.07-0.16-0.15-0.32-0.23-0.48
		c-1.48-3.68-4.05-7.07-7.79-8.61c-1.88-0.73-3.82-1.29-5.8-1.66c-1.52-0.31-3.32-0.52-4.71,0.33c-0.01-0.01-0.02-0.01-0.03-0.01
		c-0.04-0.02-0.09-0.03-0.13-0.02c-4.96,1.21-9.18,4.46-11.63,8.95c-2.44,4.53-2.46,9.98-0.05,14.53c2.32,4.46,6.3,7.82,11.08,9.37
		c4.69,1.38,9.76,0.51,13.73-2.35c1.73-1.18,3.23-2.68,4.41-4.42l0.02,0.03c0.05-0.09,0.09-0.18,0.13-0.27
		c0.03-0.06,0.07-0.12,0.11-0.17c0.72-1.12,1.29-2.32,1.7-3.59C322.3,457.73,321.63,453.46,320.31,449.9z M320.71,461.59
		c-0.08,0.27-0.18,0.54-0.28,0.81c-0.05,0.28-0.16,0.54-0.33,0.78c-0.27,0.6-0.58,1.17-0.94,1.72l-0.01-0.01
		c-0.06,0.11-0.12,0.21-0.19,0.31l0,0c-0.33,0.49-0.69,0.96-1.08,1.41c-0.1,0.22-0.25,0.41-0.43,0.57
		c-0.36,0.32-0.68,0.66-1.06,0.95c-0.03,0.02-0.06,0.04-0.08,0.07c-0.1,0.09-0.21,0.18-0.31,0.27v-0.01l-0.01-0.02
		c-0.06,0.04-0.12,0.08-0.18,0.12l0.05,0.03c-0.58,0.48-1.2,0.93-1.84,1.33c-0.01-0.03-0.02-0.06-0.03-0.09
		c-0.04,0.03-0.07,0.06-0.11,0.09c0.01,0.02,0.02,0.04,0.03,0.07l0,0c-1.49,0.93-3.11,1.63-4.81,2.09c-2.29,0.6-4.68,0.61-6.98,0.04
		c0-0.03,0.01-0.07,0.02-0.1l-0.17-0.01c0,0.02-0.01,0.05-0.01,0.07c-1.46-0.37-2.86-0.93-4.17-1.67v-0.02
		c-0.05-0.03-0.11-0.07-0.17-0.1v0.03c-1.32-0.76-2.54-1.67-3.65-2.71c-4.38-4.11-6.6-10.21-4.97-16.09
		c1.76-5.8,6.44-10.25,12.32-11.74l-0.01,0.01c0.18-0.06,0.35-0.14,0.53-0.2c0-0.01,0.01-0.02,0.01-0.03
		c0.28-0.16,0.59-0.28,0.9-0.37c0.62-0.25,1.3-0.31,1.95-0.15l0,0h0.04c0.07,0,0.13,0,0.2,0c0.05,0,0.11,0.01,0.16,0.03
		c1.21,0.18,2.41,0.47,3.57,0.86v0.01c0.23,0.04,0.45,0.1,0.67,0.19c0.1,0.03,0.21,0.07,0.31,0.09l-0.01-0.01l0.26,0.08
		c0.07,0.02,0.14,0.04,0.21,0.06c0.53,0.16,1.05,0.33,1.57,0.52c0.37,0.11,0.73,0.25,1.07,0.43c0.32,0.14,0.65,0.3,0.96,0.47
		c1.45,0.88,2.7,2.04,3.69,3.42c0.47,0.61,0.9,1.25,1.28,1.92c0.15,0.18,0.29,0.37,0.4,0.58c0.13,0.26,0.24,0.53,0.36,0.78
		c0.26,0.53,0.46,1.05,0.67,1.59c0.01,0.04,0.02,0.08,0.02,0.12C321.54,453.84,321.75,457.83,320.71,461.59L320.71,461.59z"/>
	<path id="Tracé_128-17" class="st46" d="M148.78,493.38c0.02-0.05,0.02-0.1,0-0.14c-0.08-0.18-0.17-0.36-0.26-0.54
		c-1.68-4.19-4.61-8.05-8.87-9.8c-2.14-0.83-4.35-1.47-6.6-1.89c-1.73-0.35-3.78-0.59-5.36,0.37c-0.01-0.01-0.03-0.01-0.04-0.02
		c-0.04-0.03-0.1-0.04-0.15-0.03c-5.65,1.38-10.46,5.08-13.24,10.18c-2.78,5.16-2.8,11.36-0.06,16.54
		c2.64,5.07,7.17,8.9,12.61,10.67c5.34,1.57,11.11,0.58,15.63-2.68c1.97-1.35,3.68-3.05,5.02-5.03c0.01,0.01,0.02,0.02,0.03,0.03
		c0.06-0.1,0.11-0.2,0.15-0.3c0.03-0.07,0.07-0.14,0.13-0.19c0.81-1.27,1.46-2.65,1.93-4.08
		C151.05,502.29,150.28,497.43,148.78,493.38z M149.24,506.68c-0.1,0.31-0.2,0.62-0.32,0.92c-0.05,0.32-0.18,0.62-0.37,0.88
		c-0.31,0.68-0.67,1.33-1.07,1.96l-0.01-0.01c-0.06,0.12-0.14,0.24-0.22,0.35l0,0c-0.38,0.56-0.79,1.1-1.23,1.61
		c-0.12,0.25-0.28,0.47-0.49,0.65c-0.4,0.36-0.78,0.75-1.2,1.08c-0.03,0.03-0.07,0.05-0.1,0.07c-0.12,0.1-0.24,0.21-0.35,0.31v-0.01
		l-0.01-0.03l-0.2,0.14l0.06,0.03c-0.67,0.55-1.37,1.06-2.1,1.52c-0.01-0.03-0.02-0.07-0.04-0.1c-0.04,0.03-0.09,0.07-0.13,0.1
		c0.01,0.03,0.02,0.05,0.04,0.08l0,0c-1.7,1.06-3.55,1.86-5.48,2.38c-2.6,0.68-5.33,0.69-7.94,0.05c0-0.04,0.01-0.08,0.02-0.11
		c-0.07-0.01-0.13-0.01-0.2-0.02c0,0.03-0.01,0.05-0.01,0.08c-1.66-0.42-3.26-1.06-4.75-1.9l0.01-0.02
		c-0.06-0.04-0.13-0.08-0.19-0.11v0.03c-1.5-0.86-2.89-1.9-4.15-3.08c-4.98-4.68-7.51-11.63-5.66-18.32
		c2.01-6.6,7.33-11.67,14.02-13.36l-0.01,0.02c0.2-0.07,0.4-0.16,0.61-0.22c0-0.01,0.01-0.02,0.01-0.03
		c0.32-0.18,0.67-0.32,1.03-0.42c0.7-0.29,1.48-0.35,2.22-0.17l0,0h0.05c0.07,0,0.15,0,0.22,0c0.06,0,0.12,0.01,0.18,0.04
		c1.38,0.21,2.74,0.53,4.07,0.98l-0.01,0.02c0.26,0.05,0.52,0.12,0.76,0.22c0.12,0.04,0.24,0.07,0.36,0.11l-0.01-0.01l0.3,0.09
		c0.08,0.02,0.16,0.04,0.24,0.07c0.6,0.18,1.2,0.37,1.79,0.59c0.42,0.12,0.83,0.29,1.22,0.49c0.37,0.16,0.74,0.34,1.09,0.54
		c1.65,1,3.08,2.33,4.2,3.9c0.53,0.7,1.02,1.43,1.46,2.19c0.17,0.2,0.33,0.42,0.46,0.66c0.14,0.29,0.27,0.6,0.41,0.89
		c0.29,0.6,0.52,1.19,0.76,1.81c0.02,0.04,0.02,0.09,0.02,0.14C150.18,497.87,150.41,502.41,149.24,506.68L149.24,506.68z"/>
	<path id="Tracé_128-18" class="st46" d="M259.78,520.46c0.02-0.05,0.02-0.1,0-0.14c-0.08-0.18-0.17-0.36-0.26-0.54
		c-1.68-4.19-4.62-8.05-8.87-9.8c-2.14-0.83-4.35-1.47-6.6-1.89c-1.73-0.35-3.78-0.59-5.36,0.37c-0.01-0.01-0.03-0.01-0.04-0.02
		c-0.04-0.03-0.1-0.04-0.15-0.03c-5.65,1.38-10.46,5.07-13.24,10.19c-2.78,5.16-2.8,11.36-0.06,16.54
		c2.64,5.07,7.17,8.9,12.61,10.67c5.34,1.57,11.11,0.58,15.63-2.68c1.97-1.35,3.68-3.05,5.02-5.03l0.03,0.03
		c0.05-0.1,0.1-0.2,0.15-0.3c0.03-0.07,0.07-0.14,0.13-0.19c0.81-1.27,1.46-2.65,1.93-4.08
		C262.04,529.38,261.28,524.51,259.78,520.46z M260.23,533.77c-0.1,0.31-0.2,0.62-0.32,0.92c-0.05,0.32-0.18,0.62-0.37,0.88
		c-0.31,0.68-0.67,1.33-1.07,1.96l-0.01-0.01c-0.07,0.12-0.14,0.24-0.22,0.35l0,0c-0.38,0.56-0.79,1.1-1.23,1.61
		c-0.12,0.25-0.29,0.47-0.49,0.65c-0.4,0.36-0.78,0.75-1.2,1.08c-0.03,0.03-0.07,0.05-0.1,0.07c-0.12,0.1-0.24,0.21-0.36,0.31v-0.01
		l-0.01-0.03l-0.2,0.14l0.06,0.03c-0.66,0.55-1.36,1.06-2.09,1.52c-0.01-0.03-0.02-0.07-0.04-0.1c-0.04,0.03-0.08,0.07-0.13,0.1
		c0.01,0.03,0.02,0.05,0.04,0.08l0,0c-1.7,1.06-3.55,1.86-5.48,2.38c-2.6,0.68-5.33,0.69-7.94,0.05c0-0.04,0.01-0.08,0.02-0.11
		c-0.07-0.01-0.13-0.01-0.2-0.02c0,0.03-0.01,0.05-0.01,0.08c-1.66-0.42-3.26-1.06-4.75-1.9l0.01-0.02
		c-0.06-0.04-0.13-0.08-0.19-0.11v0.03c-1.5-0.86-2.89-1.9-4.15-3.08c-4.98-4.67-7.51-11.63-5.66-18.32
		c2.01-6.61,7.33-11.68,14.02-13.37l-0.01,0.02c0.2-0.07,0.4-0.16,0.61-0.22c0-0.01,0.01-0.02,0.01-0.03
		c0.32-0.18,0.67-0.33,1.03-0.42c0.7-0.29,1.48-0.35,2.22-0.17l0,0h0.05c0.08,0,0.15,0,0.22,0c0.06,0,0.12,0.01,0.18,0.04
		c1.38,0.21,2.74,0.53,4.07,0.98l-0.01,0.02c0.26,0.05,0.52,0.12,0.76,0.22c0.12,0.04,0.24,0.07,0.36,0.11l-0.01-0.01l0.3,0.09
		c0.08,0.02,0.16,0.04,0.24,0.07c0.6,0.18,1.2,0.37,1.79,0.59c0.42,0.12,0.83,0.29,1.22,0.49c0.37,0.16,0.73,0.34,1.09,0.54
		c1.65,1,3.08,2.33,4.2,3.9c0.53,0.7,1.02,1.43,1.46,2.19c0.17,0.2,0.33,0.42,0.45,0.66c0.14,0.29,0.27,0.6,0.41,0.89
		c0.29,0.6,0.52,1.19,0.76,1.81c0.02,0.04,0.02,0.09,0.02,0.14C261.18,524.95,261.41,529.49,260.23,533.77L260.23,533.77z"/>
	<path id="Tracé_128-19" class="st46" d="M277.84,431.24c0.02-0.05,0.02-0.1,0-0.14c-0.08-0.18-0.17-0.36-0.26-0.54
		c-1.68-4.19-4.61-8.05-8.87-9.8c-2.14-0.83-4.35-1.47-6.6-1.89c-1.73-0.35-3.78-0.59-5.36,0.37c-0.01-0.01-0.03-0.01-0.04-0.02
		c-0.04-0.03-0.1-0.04-0.15-0.03c-5.65,1.38-10.46,5.08-13.23,10.18c-2.78,5.16-2.8,11.36-0.06,16.54
		c2.64,5.07,7.17,8.9,12.61,10.67c5.34,1.57,11.11,0.58,15.63-2.68c1.97-1.35,3.68-3.05,5.02-5.03c0.01,0.01,0.02,0.02,0.03,0.03
		c0.06-0.1,0.11-0.2,0.15-0.3c0.03-0.07,0.07-0.14,0.13-0.19c0.81-1.27,1.46-2.65,1.93-4.08
		C280.1,440.15,279.34,435.29,277.84,431.24z M278.29,444.55c-0.1,0.31-0.2,0.62-0.32,0.92c-0.05,0.32-0.18,0.62-0.37,0.88
		c-0.31,0.68-0.67,1.33-1.07,1.96l-0.01-0.01c-0.06,0.12-0.14,0.24-0.22,0.35l0,0c-0.38,0.56-0.79,1.1-1.23,1.61
		c-0.12,0.25-0.28,0.47-0.49,0.65c-0.4,0.36-0.78,0.75-1.2,1.08c-0.03,0.03-0.07,0.05-0.1,0.07c-0.12,0.1-0.23,0.21-0.36,0.31v-0.01
		l-0.01-0.03l-0.2,0.14l0.06,0.03c-0.67,0.55-1.37,1.06-2.1,1.52c-0.01-0.03-0.02-0.07-0.04-0.1c-0.04,0.03-0.08,0.07-0.13,0.1
		c0.01,0.03,0.02,0.05,0.04,0.08l0,0c-1.7,1.06-3.55,1.86-5.48,2.38c-2.6,0.68-5.33,0.69-7.94,0.05c0-0.04,0.01-0.08,0.02-0.11
		c-0.07-0.01-0.13-0.01-0.2-0.02c0,0.03-0.01,0.05-0.01,0.08c-1.66-0.42-3.26-1.06-4.75-1.9l0.01-0.02
		c-0.06-0.04-0.13-0.08-0.19-0.11v0.03c-1.5-0.86-2.89-1.9-4.15-3.08c-4.98-4.67-7.51-11.63-5.66-18.32
		c2.01-6.6,7.33-11.67,14.02-13.36l-0.01,0.02c0.2-0.07,0.4-0.16,0.61-0.22c0-0.01,0.01-0.02,0.01-0.03
		c0.32-0.18,0.67-0.32,1.03-0.42c0.7-0.29,1.48-0.35,2.22-0.17l0,0h0.05c0.08,0,0.15,0,0.22,0c0.06,0,0.12,0.01,0.18,0.04
		c1.38,0.21,2.74,0.53,4.07,0.98l-0.01,0.02c0.26,0.05,0.52,0.12,0.76,0.22c0.12,0.04,0.24,0.07,0.36,0.11l-0.01-0.01l0.3,0.09
		c0.08,0.02,0.16,0.04,0.24,0.07c0.6,0.18,1.2,0.37,1.79,0.59c0.42,0.12,0.83,0.29,1.22,0.49c0.37,0.16,0.73,0.34,1.09,0.54
		c1.65,1,3.08,2.33,4.2,3.9c0.53,0.7,1.02,1.43,1.46,2.19c0.17,0.2,0.33,0.42,0.45,0.66c0.14,0.29,0.27,0.6,0.41,0.89
		c0.29,0.6,0.52,1.19,0.76,1.81c0.02,0.04,0.03,0.09,0.03,0.14C279.23,435.73,279.47,440.27,278.29,444.55L278.29,444.55z"/>
	<text transform="matrix(1 0 0 1 38.4373 235.1004)" class="st48 st49">AGRONOMIE ET BIOTECH</text>
	<text transform="matrix(1 0 0 1 247.4371 224.1004)" class="st48 st49">INGÉNIERIE</text>
	<text transform="matrix(1 0 0 1 197.6631 360.5384)" class="st48 st49">ARCHI</text>
	<text transform="matrix(1 0 0 1 89.4371 36.4844)" class="st48 st49">GESTION</text>
	<text transform="matrix(1 0 0 1 117.4371 104.4305)" class="st48 st49">ÉCONOMIE</text>
	<text transform="matrix(1 0 0 1 200.1221 61.6365)" class="st48 st49">SOCIOLOGIE</text>
	<text transform="matrix(1 0 0 1 34.4373 95.4244)" class="st48 st49">PÉDAGOGIE</text>
	<text transform="matrix(1 0 0 1 262.4102 111.8854)" class="st48 st49">SCIENCES</text>
	<text transform="matrix(1 0 0 1 281.335 123.8854)" class="st48 st49">PO</text>
	<text transform="matrix(1 0 0 1 283.4371 333.4114)" class="st48 st49">PSYCHO</text>
	<text transform="matrix(1 0 0 1 281.0245 403.3104)" class="st48 st49">COMMU</text>
	<text transform="matrix(1 0 0 1 255.4371 491.6394)" class="st48 st49">ARTS</text>
	<text transform="matrix(1 0 0 1 227.4371 529.7284)" class="st48 st49">PHILO</text>
	<text transform="matrix(1 0 0 1 242.7672 437.8844)" class="st48 st49">PHAR-</text>
	<text transform="matrix(1 0 0 1 251.3375 449.8844)" class="st48 st49">MA</text>
	<text transform="matrix(1 0 0 1 114.9581 497.1144)" class="st48 st49">THÉO-</text>
	<text transform="matrix(1 0 0 1 116.1983 509.1144)" class="st48 st49">LOGIE</text>
	<text transform="matrix(1 0 0 1 198.2374 130.5714)" class="st48 st49">DROIT/</text>
	<text transform="matrix(1 0 0 1 193.8824 142.5714)" class="st48 st49">CRIMINO</text>
	<text transform="matrix(1 0 0 1 184.1631 471.2414)" class="st48 st49">VÉTE</text>
	<text transform="matrix(1 0 0 1 65.9512 415.5524)" class="st48 st49">SCIENCES</text>
	<text transform="matrix(1 0 0 1 293.3853 453.3104)" class="st48 st49">LET-</text>
	<text transform="matrix(1 0 0 1 295.105 465.3104)" class="st48 st49">TRE</text>
	<text transform="matrix(1 0 0 1 277.4205 526.2494)" class="st48 st49">SAN-</text>
	<text transform="matrix(1 0 0 1 284.7852 538.2494)" class="st48 st49">TÉ</text>
</g>
</svg>
