<?xml version="1.0" encoding="utf-8"?>
<!-- Generator: Adobe Illustrator 23.1.1, SVG Export Plug-In . SVG Version: 6.00 Build 0)  -->
<svg version="1.1" id="Calque_1" xmlns="http://www.w3.org/2000/svg" xmlns:xlink="http://www.w3.org/1999/xlink" x="0px" y="0px"
	 viewBox="0 0 1017.02 66.19" style="enable-background:new 0 0 1017.02 66.19;" xml:space="preserve">
<style type="text/css">
	.st0{fill:#F5FAFA;}
	.st1{fill:#EFEEE4;}
	.st2{fill:#EBF7EF;}
	.st3{fill:#048D14;}
	.st4{fill:#5AA86F;}
	.st5{fill:#485175;}
	.st6{fill:#F7E8D3;}
	.st7{fill:#E7F4EC;}
	.st8{fill:#547146;}
	.st9{fill:#BCCBBC;}
	.st10{fill:#EAE9DC;}
	.st11{fill:#275E39;}
	.st12{fill:#050008;}
	.st13{fill:#2F5418;}
	.st14{fill:#F9F8F4;}
	.st15{fill:#148B20;}
	.st16{enable-background:new    ;}
	.st17{fill:#F8F7F3;}
	.st18{font-family:'Avara-Black';}
	.st19{font-size:34px;}
</style>
<g id="Groupe_126" transform="translate(-38.184 -3069.638)">
	<g id="Groupe_122" transform="translate(403.555 2854.088) rotate(-3)">
		<path id="Tracé_119" class="st15" d="M-377.27,217.57l6.58,45.12l290.2-4.81l4.61-46.02L-377.27,217.57z"/>
		<text transform="matrix(1 0 0 1 -364.2988 250.9836)" class="st17 st18 st19">AUJOURD’HUI</text>
	</g>
	<g id="Groupe_123" transform="translate(823.555 2845.856) rotate(-3)">
		<path id="Tracé_120" class="st15" d="M-290.44,223.12l0.59,41.82l53.32-2.57l62.29,0.6l5.82-40.76L-290.44,223.12z"/>
		<text transform="matrix(1 0 0 1 -280.8655 255.3562)" class="st17 st18 st19">2045</text>
	</g>
	<g id="Groupe_124" transform="translate(1113.555 2845.856) rotate(-3)">
		<path id="Tracé_120-2" class="st15" d="M-192.01,221.32l0.59,41.82l53.32-2.57l62.29,0.6l5.82-40.76L-192.01,221.32z"/>
		<text transform="matrix(1 0 0 1 -182.4319 253.5552)" class="st17 st18 st19">2060</text>
	</g>
</g>
</svg>
