<?xml version="1.0" encoding="utf-8"?>
<!-- Generator: Adobe Illustrator 23.1.1, SVG Export Plug-In . SVG Version: 6.00 Build 0)  -->
<svg version="1.1" id="Calque_1" xmlns="http://www.w3.org/2000/svg" xmlns:xlink="http://www.w3.org/1999/xlink" x="0px" y="0px"
	 viewBox="0 0 335.65 349.5" style="enable-background:new 0 0 335.65 349.5;" xml:space="preserve">
<style type="text/css">
	.st0{stroke:#000000;stroke-width:1.7532;stroke-miterlimit:10;}
	.st1{fill:none;stroke:#000000;stroke-width:7;stroke-linecap:round;stroke-linejoin:round;stroke-miterlimit:10;}
	.st2{fill:none;stroke:#048D14;stroke-width:2;}
	.st3{enable-background:new    ;}
	.st4{fill:#048D14;}
	.st5{stroke:#000000;stroke-miterlimit:10;}
	.st6{fill:#F9F8F4;}
</style>
<g>
	<path id="Tracé_121" d="M321.45,111.05c0.16-0.41,0.15-0.86-0.03-1.26c-0.71-1.61-1.48-3.19-2.29-4.75
		c-14.78-36.69-40.51-70.48-77.87-85.76c-18.36-7.51-38.54-12.6-57.97-16.58c-15.17-3.11-33.19-5.14-47.04,3.23
		c-0.1-0.07-0.22-0.11-0.34-0.13c-0.39-0.24-0.86-0.32-1.31-0.23C85.54,16.06,42.32,51.55,18.42,94.73
		c-25.15,45.45-23.8,99.02-0.49,144.75c22.38,43.9,63.8,78.47,110.71,93.39c47.12,14.99,96.93,3.89,137.17-23.46
		c17.33-11.79,32.29-26.72,44.1-44.04c0.08,0.08,0.16,0.16,0.24,0.24c0.49-0.86,0.93-1.75,1.32-2.66c0.25-0.63,0.64-1.21,1.14-1.68
		c7.15-11.14,12.85-23.15,16.95-35.74C341.34,189.08,334.61,146.49,321.45,111.05z M325.45,227.51c-0.84,2.72-1.8,5.39-2.82,8.04
		c-0.48,2.79-1.59,5.43-3.25,7.72c-2.71,5.93-5.84,11.66-9.36,17.15c-0.02-0.02-0.04-0.04-0.06-0.07c-0.57,1.07-1.21,2.1-1.93,3.08
		l0.01,0.01c-3.32,4.9-6.93,9.6-10.79,14.08c-1.03,2.18-2.5,4.12-4.31,5.71c-3.55,3.15-6.82,6.55-10.57,9.49
		c-0.28,0.22-0.57,0.42-0.85,0.64c-1.03,0.91-2.06,1.83-3.12,2.72c-0.01-0.03-0.02-0.06-0.03-0.08l-0.13-0.23
		c-0.59,0.42-1.19,0.83-1.78,1.24c0.16,0.09,0.32,0.19,0.49,0.28c-5.84,4.81-11.99,9.24-18.39,13.27c-0.12-0.31-0.21-0.61-0.32-0.91
		c-0.37,0.3-0.74,0.61-1.11,0.92c0.1,0.22,0.2,0.44,0.32,0.66c0,0.01,0.01,0.01,0.01,0.02c-14.92,9.25-31.12,16.25-48.08,20.79
		c-22.84,5.94-46.81,6.08-69.72,0.41c0.04-0.34,0.09-0.66,0.15-0.99c-0.58-0.05-1.16-0.1-1.74-0.14c-0.03,0.25-0.07,0.48-0.09,0.73
		c-14.56-3.7-28.57-9.31-41.67-16.68c0.02-0.07,0.03-0.14,0.05-0.21c-0.56-0.32-1.12-0.65-1.67-0.99c0,0.09-0.01,0.18-0.01,0.27
		c-13.15-7.55-25.38-16.61-36.45-26.98C14.46,246.54-7.75,185.7,8.51,127.12c15.48-55.75,66.24-104,123.08-116.97
		c-0.03,0.04-0.07,0.09-0.1,0.13c1.79-0.57,3.52-1.39,5.32-1.97c0.04-0.08,0.07-0.17,0.1-0.26c2.84-1.61,5.88-2.85,9.04-3.69
		c5.56-3.67,12.61-1.82,19.48-1.5l-0.03-0.02c0.15,0.01,0.3,0.03,0.45,0.04c0.65,0.02,1.31,0.04,1.96,0.02
		c0.55-0.02,1.09,0.1,1.58,0.33c12.19,1.44,24.69,5.23,35.7,8.57c-0.02,0.04-0.03,0.09-0.05,0.13c2.29,0.41,4.53,1.04,6.7,1.89
		c1.03,0.35,2.08,0.64,3.13,0.93c-0.04-0.03-0.07-0.06-0.11-0.08c0.88,0.25,1.76,0.52,2.64,0.77c0.71,0.19,1.41,0.4,2.11,0.62
		c5.29,1.58,10.54,3.25,15.7,5.13c3.69,1.07,7.26,2.51,10.67,4.3c3.25,1.45,6.45,3.02,9.6,4.74c14.8,8.11,26.65,20.9,36.84,34.11
		c4.67,6.1,8.95,12.49,12.8,19.14c1.53,1.77,2.87,3.7,3.99,5.76c1.27,2.57,2.36,5.23,3.62,7.81c2.54,5.24,4.6,10.44,6.65,15.87
		c0.15,0.39,0.22,0.81,0.22,1.23C333.12,150.59,336.43,191.66,325.45,227.51L325.45,227.51z"/>
	<path id="Tracé_122" class="st5" d="M246.96,141.48c0.09-0.21,0.08-0.45-0.02-0.66c-0.37-0.84-0.77-1.66-1.19-2.48
		c-7.7-19.17-21.1-36.82-40.56-44.81c-9.57-3.92-20.07-6.58-30.2-8.66c-7.9-1.62-17.29-2.69-24.5,1.69
		c-0.05-0.03-0.12-0.06-0.18-0.07c-0.2-0.13-0.45-0.17-0.68-0.12c-25.55,5.48-48.07,24.02-60.52,46.58
		c-13.1,23.75-12.4,51.73-0.26,75.62c11.66,22.93,33.23,40.99,57.67,48.79c24.55,7.83,50.49,2.03,71.46-12.26
		c9.03-6.16,16.82-13.97,22.97-23.01c0.04,0.04,0.08,0.08,0.12,0.13c0.26-0.45,0.49-0.91,0.69-1.39c0.13-0.33,0.34-0.63,0.59-0.88
		c3.72-5.82,6.69-12.1,8.83-18.67C257.33,182.25,253.82,160,246.96,141.48z M249.05,202.33c-0.44,1.42-0.93,2.82-1.47,4.2
		c-0.25,1.46-0.83,2.84-1.69,4.03c-1.41,3.1-3.04,6.09-4.88,8.96l-0.03-0.04c-0.3,0.56-0.63,1.1-1.01,1.61l0.01,0.01
		c-1.73,2.56-3.61,5.01-5.62,7.35c-0.54,1.14-1.3,2.15-2.24,2.98c-1.85,1.64-3.55,3.42-5.5,4.96c-0.15,0.11-0.3,0.22-0.44,0.33
		c-0.54,0.48-1.08,0.95-1.63,1.42c-0.01-0.02-0.01-0.03-0.02-0.04c-0.02-0.04-0.04-0.08-0.07-0.12c-0.31,0.22-0.62,0.43-0.93,0.65
		l0.26,0.15c-3.04,2.51-6.24,4.83-9.58,6.93c-0.06-0.16-0.11-0.32-0.17-0.48c-0.19,0.16-0.39,0.32-0.58,0.48
		c0.05,0.11,0.11,0.23,0.17,0.35l0.01,0.01c-7.77,4.83-16.21,8.49-25.05,10.86c-11.9,3.1-24.39,3.18-36.32,0.22
		c0.02-0.18,0.05-0.34,0.07-0.52c-0.3-0.03-0.6-0.05-0.91-0.07c-0.01,0.13-0.04,0.25-0.05,0.38c-7.59-1.94-14.89-4.87-21.71-8.71
		c0.01-0.04,0.02-0.07,0.03-0.11c-0.29-0.17-0.58-0.34-0.87-0.52c0,0.05,0,0.09-0.01,0.14c-6.85-3.95-13.23-8.68-18.99-14.1
		c-22.79-21.38-34.36-53.16-25.89-83.77c8.06-29.12,34.51-54.33,64.12-61.11l-0.05,0.07c0.93-0.3,1.83-0.73,2.77-1.03
		c0.02-0.04,0.04-0.09,0.05-0.14c1.48-0.84,3.06-1.49,4.71-1.93c2.9-1.91,6.57-0.95,10.15-0.78l-0.02-0.01
		c0.08,0.01,0.15,0.01,0.23,0.02c0.34,0.01,0.68,0.02,1.02,0.01c0.28-0.01,0.57,0.05,0.82,0.17c6.35,0.75,12.86,2.73,18.6,4.48
		c-0.01,0.02-0.02,0.05-0.03,0.07c1.19,0.21,2.36,0.54,3.49,0.99c0.54,0.18,1.08,0.33,1.63,0.49l-0.06-0.04
		c0.46,0.13,0.92,0.27,1.37,0.4c0.37,0.1,0.73,0.21,1.1,0.32c2.76,0.82,5.49,1.7,8.18,2.68c1.92,0.56,3.79,1.31,5.56,2.24
		c1.69,0.76,3.36,1.58,5,2.48c7.71,4.24,13.88,10.92,19.19,17.82c2.44,3.19,4.66,6.53,6.67,10c0.8,0.92,1.5,1.93,2.08,3.01
		c0.66,1.34,1.23,2.73,1.88,4.08c1.33,2.74,2.4,5.45,3.46,8.29c0.08,0.2,0.12,0.42,0.12,0.64
		C253.05,162.14,254.77,183.6,249.05,202.33L249.05,202.33z"/>
	<path id="Tracé_123" class="st5" d="M206.12,157.14c0.04-0.1,0.04-0.22-0.01-0.32c-0.18-0.41-0.38-0.82-0.58-1.22
		c-3.77-9.39-10.33-18.03-19.86-21.94c-4.79-1.86-9.74-3.28-14.79-4.24c-3.87-0.8-8.47-1.31-12,0.83c-0.03-0.02-0.06-0.03-0.09-0.03
		c-0.1-0.06-0.22-0.08-0.33-0.06c-12.51,2.68-23.54,11.76-29.64,22.81c-6.42,11.63-6.07,25.33-0.13,37.03
		c5.92,11.36,16.06,19.94,28.24,23.89c12.02,3.83,24.72,1,34.99-6c4.42-3.02,8.24-6.84,11.25-11.27c0.02,0.02,0.04,0.04,0.06,0.06
		c0.13-0.22,0.24-0.45,0.34-0.68c0.07-0.16,0.16-0.31,0.29-0.43c1.82-2.85,3.28-5.92,4.32-9.14
		C211.2,177.11,209.48,166.21,206.12,157.14z M207.14,186.94c-0.21,0.7-0.46,1.38-0.72,2.06c-0.12,0.71-0.4,1.39-0.83,1.97
		c-0.69,1.52-1.49,2.98-2.39,4.39l-0.02-0.02c-0.14,0.27-0.31,0.54-0.49,0.79l0,0c-0.85,1.25-1.77,2.45-2.75,3.6
		c-0.26,0.56-0.64,1.06-1.1,1.46c-0.91,0.81-1.74,1.68-2.7,2.43c-0.07,0.06-0.15,0.11-0.22,0.16c-0.26,0.23-0.53,0.47-0.8,0.69
		c0-0.01,0-0.01-0.01-0.02l-0.03-0.06c-0.15,0.11-0.3,0.21-0.45,0.32l0.13,0.07c-1.49,1.23-3.06,2.37-4.69,3.4
		c-0.03-0.08-0.06-0.16-0.08-0.23c-0.1,0.08-0.19,0.16-0.28,0.23c0.03,0.06,0.05,0.11,0.08,0.17l0,0
		c-3.81,2.37-7.94,4.16-12.27,5.32c-5.83,1.52-11.94,1.55-17.79,0.1c0.01-0.09,0.02-0.17,0.04-0.25c-0.15-0.01-0.3-0.03-0.44-0.04
		c-0.01,0.06-0.02,0.12-0.02,0.19c-3.72-0.95-7.29-2.38-10.63-4.27c0-0.02,0.01-0.04,0.01-0.05c-0.14-0.08-0.28-0.17-0.43-0.25
		c0,0.02,0,0.05,0,0.07c-3.36-1.93-6.48-4.25-9.3-6.9c-11.16-10.47-16.83-26.03-12.68-41.02c3.95-14.26,16.9-26.61,31.4-29.93
		l-0.03,0.03c0.45-0.15,0.9-0.36,1.36-0.5c0.01-0.02,0.02-0.04,0.03-0.07c0.72-0.41,1.5-0.73,2.3-0.94
		c1.42-0.94,3.22-0.46,4.97-0.38l-0.01-0.01l0.11,0.01c0.17,0.01,0.33,0.01,0.5,0.01c0.14,0,0.28,0.03,0.4,0.08
		c3.09,0.47,6.14,1.2,9.11,2.19c-0.01,0.01-0.01,0.02-0.01,0.03c0.58,0.1,1.16,0.27,1.71,0.48c0.26,0.09,0.53,0.17,0.8,0.24
		l-0.03-0.02c0.22,0.06,0.45,0.13,0.67,0.2c0.18,0.05,0.36,0.1,0.54,0.16c1.35,0.4,2.69,0.83,4,1.31c0.94,0.27,1.85,0.64,2.72,1.1
		c0.83,0.37,1.65,0.77,2.45,1.21c3.78,2.08,6.8,5.35,9.4,8.73c1.19,1.56,2.28,3.2,3.27,4.9c0.39,0.45,0.73,0.95,1.02,1.47
		c0.32,0.66,0.6,1.34,0.92,2c0.65,1.34,1.17,2.67,1.7,4.06c0.04,0.1,0.06,0.21,0.06,0.31C209.1,167.26,209.95,177.77,207.14,186.94
		L207.14,186.94z"/>
	<path id="Tracé_124_1_" class="st5" d="M181.76,166.1c0.02-0.04,0.02-0.09,0-0.13c-0.07-0.17-0.15-0.33-0.24-0.49
		c-1.52-3.79-4.17-7.28-8.02-8.86c-1.93-0.75-3.93-1.33-5.97-1.71c-1.56-0.32-3.42-0.53-4.85,0.33c-0.01-0.01-0.02-0.01-0.04-0.01
		c-0.04-0.03-0.09-0.03-0.14-0.02c-5.11,1.25-9.46,4.59-11.97,9.21c-2.51,4.66-2.53,10.27-0.05,14.95c2.39,4.59,6.48,8.05,11.4,9.65
		c4.83,1.42,10.05,0.52,14.13-2.42c1.79-1.22,3.33-2.76,4.54-4.55l0.03,0.03c0.05-0.09,0.1-0.18,0.14-0.28
		c0.03-0.07,0.07-0.12,0.12-0.17c0.74-1.15,1.32-2.39,1.75-3.69C183.81,174.16,183.12,169.76,181.76,166.1z M182.17,178.14
		c-0.09,0.28-0.19,0.56-0.29,0.83c-0.05,0.29-0.16,0.56-0.33,0.8c-0.28,0.61-0.6,1.2-0.96,1.77l-0.01-0.01
		c-0.06,0.11-0.13,0.22-0.2,0.32l0,0c-0.34,0.51-0.71,0.99-1.11,1.45c-0.11,0.22-0.26,0.43-0.44,0.59c-0.37,0.32-0.7,0.68-1.09,0.98
		c-0.03,0.02-0.06,0.04-0.09,0.07c-0.11,0.09-0.21,0.19-0.32,0.28v-0.01l-0.01-0.02l-0.18,0.13l0.05,0.03
		c-0.6,0.5-1.23,0.95-1.89,1.37c-0.01-0.03-0.02-0.06-0.03-0.09l-0.11,0.09c0.01,0.02,0.02,0.05,0.03,0.07l0,0
		c-1.54,0.96-3.21,1.68-4.95,2.15c-2.35,0.61-4.82,0.63-7.18,0.04c0-0.04,0.01-0.07,0.02-0.1l-0.18-0.01c0,0.03-0.01,0.05-0.01,0.07
		c-1.5-0.38-2.94-0.96-4.29-1.72v-0.02c-0.06-0.03-0.11-0.07-0.17-0.1v0.03c-1.36-0.78-2.62-1.72-3.76-2.79
		c-4.51-4.23-6.8-10.51-5.12-16.57c1.82-5.97,6.63-10.56,12.68-12.08l-0.01,0.01c0.18-0.06,0.36-0.14,0.55-0.2
		c0-0.01,0.01-0.02,0.01-0.03c0.29-0.17,0.61-0.29,0.93-0.38c0.64-0.26,1.34-0.31,2.01-0.16l0,0h0.05c0.07,0,0.13,0,0.2,0
		c0.06,0,0.11,0.01,0.16,0.03c1.25,0.19,2.48,0.48,3.68,0.89c0,0,0,0.01,0,0.01c0.24,0.04,0.47,0.11,0.69,0.2
		c0.11,0.04,0.21,0.07,0.32,0.1l-0.01-0.01l0.27,0.08c0.07,0.02,0.15,0.04,0.22,0.06c0.55,0.16,1.09,0.34,1.62,0.53
		c0.38,0.11,0.75,0.26,1.1,0.44c0.33,0.15,0.66,0.31,0.99,0.49c1.49,0.9,2.78,2.1,3.8,3.52c0.48,0.63,0.92,1.29,1.32,1.98
		c0.16,0.18,0.3,0.38,0.41,0.59c0.13,0.27,0.24,0.54,0.37,0.81c0.26,0.54,0.47,1.08,0.69,1.64c0.02,0.04,0.02,0.08,0.02,0.13
		C183.03,170.17,183.24,174.27,182.17,178.14L182.17,178.14z"/>
	<g id="Groupe_128" transform="translate(-452.631 -3599.104)">
		<path id="Tracé_126" class="st4" d="M601.48,3780.49l2.94,19.84l31.35-2.51l1.88-17.33L601.48,3780.49z"/>
		<g class="st3">
			<path class="st6" d="M611.41,3788.98v-1.18h0.38c0.5,0,0.93-0.03,1.27-0.1c0.35-0.06,0.62-0.17,0.83-0.31
				c0.21-0.14,0.36-0.33,0.45-0.56c0.09-0.23,0.14-0.51,0.14-0.84c0-0.55-0.19-0.99-0.58-1.3c-0.39-0.31-1-0.46-1.83-0.46
				c-0.82,0-1.45,0.16-1.9,0.46c-0.44,0.31-0.67,0.75-0.7,1.33h-1.62c0.03-0.99,0.4-1.75,1.11-2.28c0.71-0.53,1.71-0.79,3-0.79
				c1.32,0,2.34,0.26,3.06,0.79c0.72,0.53,1.08,1.28,1.08,2.25c0,0.58-0.15,1.07-0.45,1.47s-0.68,0.7-1.15,0.9
				c0.6,0.2,1.08,0.53,1.44,0.98s0.54,0.99,0.54,1.63c0,0.48-0.11,0.92-0.32,1.31c-0.21,0.39-0.51,0.73-0.9,1.02
				s-0.86,0.5-1.42,0.65c-0.56,0.15-1.19,0.22-1.88,0.22s-1.32-0.07-1.86-0.22c-0.55-0.14-1.02-0.35-1.41-0.62s-0.69-0.59-0.9-0.98
				c-0.21-0.38-0.33-0.82-0.34-1.3h1.62c0.01,0.32,0.09,0.59,0.25,0.82s0.36,0.42,0.62,0.57s0.56,0.26,0.9,0.33
				c0.35,0.07,0.72,0.1,1.13,0.1c0.93,0,1.64-0.16,2.15-0.48c0.51-0.32,0.76-0.8,0.76-1.44c0-1.32-1.03-1.98-3.09-1.98H611.41z"/>
			<path class="st6" d="M618.61,3785.63c0-0.34,0.04-0.68,0.12-1.02s0.22-0.64,0.42-0.9c0.2-0.27,0.46-0.48,0.8-0.65
				c0.34-0.17,0.75-0.25,1.26-0.25c0.51,0,0.93,0.08,1.26,0.26c0.33,0.17,0.59,0.39,0.79,0.66c0.2,0.27,0.33,0.58,0.41,0.93
				s0.11,0.7,0.11,1.05c0,2.09-0.86,3.14-2.58,3.14c-0.85,0-1.5-0.26-1.94-0.78C618.83,3787.54,618.61,3786.73,618.61,3785.63z
				 M619.7,3785.73c0,0.21,0.01,0.45,0.04,0.7c0.03,0.25,0.09,0.49,0.19,0.71c0.1,0.22,0.25,0.41,0.45,0.56s0.47,0.22,0.82,0.22
				c0.33,0,0.59-0.07,0.79-0.22s0.35-0.34,0.46-0.56c0.11-0.22,0.17-0.46,0.2-0.72c0.03-0.26,0.04-0.49,0.04-0.69
				c0-0.21-0.02-0.44-0.06-0.67c-0.04-0.23-0.11-0.45-0.22-0.64s-0.26-0.35-0.46-0.48c-0.2-0.13-0.45-0.19-0.76-0.19
				c-0.33,0-0.59,0.06-0.79,0.19c-0.2,0.13-0.35,0.29-0.46,0.49s-0.18,0.41-0.21,0.65S619.7,3785.53,619.7,3785.73z M630.1,3782.74
				l-8.08,11.97l-1.15-0.53l8.06-11.94L630.1,3782.74z M627.41,3790.88c0-0.34,0.04-0.68,0.12-1.02s0.22-0.64,0.42-0.9
				s0.46-0.48,0.8-0.65c0.34-0.17,0.75-0.25,1.26-0.25c0.51,0,0.93,0.08,1.26,0.26c0.33,0.17,0.59,0.39,0.78,0.66
				c0.19,0.27,0.33,0.58,0.41,0.93s0.12,0.7,0.12,1.05c0,2.09-0.86,3.14-2.58,3.14c-0.86,0-1.51-0.26-1.94-0.78
				C627.63,3792.79,627.41,3791.98,627.41,3790.88z M628.48,3790.98c0,0.21,0.01,0.45,0.04,0.7c0.03,0.25,0.09,0.49,0.19,0.71
				c0.1,0.22,0.25,0.41,0.46,0.56c0.2,0.15,0.48,0.22,0.83,0.22c0.33,0,0.59-0.07,0.79-0.22s0.35-0.34,0.45-0.56
				c0.1-0.22,0.17-0.46,0.19-0.72c0.03-0.26,0.04-0.49,0.04-0.69c0-0.21-0.02-0.44-0.06-0.67c-0.04-0.23-0.11-0.45-0.22-0.64
				s-0.26-0.35-0.45-0.48c-0.19-0.13-0.44-0.19-0.75-0.19c-0.33,0-0.6,0.06-0.8,0.19c-0.2,0.13-0.36,0.29-0.46,0.49
				s-0.18,0.41-0.21,0.65S628.48,3790.77,628.48,3790.98z"/>
		</g>
	</g>
	<g id="Groupe_129" transform="translate(-452.631 -3574.797)">
		<path id="Tracé_126-2" class="st4" d="M601.48,3780.49l2.94,19.84l31.35-2.51l1.88-17.33L601.48,3780.49z"/>
		<g class="st3">
			<path class="st6" d="M616.04,3783.12v1.28c-0.44,0.38-0.86,0.79-1.26,1.22c-0.34,0.36-0.7,0.78-1.06,1.24
				c-0.37,0.46-0.67,0.94-0.9,1.42c-0.38,0.79-0.69,1.53-0.9,2.22c-0.22,0.69-0.39,1.29-0.5,1.82c-0.13,0.61-0.22,1.17-0.27,1.7
				h-1.76c0.03-0.49,0.11-1.03,0.22-1.62c0.11-0.51,0.27-1.11,0.5-1.78c0.22-0.68,0.54-1.41,0.94-2.2c0.34-0.66,0.71-1.24,1.1-1.74
				s0.75-0.92,1.08-1.26c0.38-0.39,0.76-0.73,1.14-1.01h-7.07v-1.28H616.04z"/>
			<path class="st6" d="M617.59,3785.63c0-0.34,0.04-0.68,0.12-1.02s0.22-0.64,0.42-0.9s0.46-0.48,0.8-0.65
				c0.34-0.17,0.75-0.25,1.26-0.25c0.51,0,0.93,0.08,1.26,0.26c0.33,0.17,0.59,0.39,0.79,0.66c0.2,0.27,0.33,0.58,0.41,0.93
				c0.07,0.35,0.11,0.7,0.11,1.05c0,2.09-0.86,3.14-2.58,3.14c-0.85,0-1.5-0.26-1.94-0.78
				C617.81,3787.54,617.59,3786.73,617.59,3785.63z M618.67,3785.73c0,0.21,0.01,0.45,0.04,0.7c0.03,0.25,0.09,0.49,0.19,0.71
				c0.1,0.22,0.25,0.41,0.45,0.56c0.2,0.15,0.47,0.22,0.82,0.22c0.33,0,0.59-0.07,0.79-0.22c0.2-0.15,0.35-0.34,0.46-0.56
				c0.11-0.22,0.17-0.46,0.2-0.72s0.04-0.49,0.04-0.69c0-0.21-0.02-0.44-0.06-0.67c-0.04-0.23-0.11-0.45-0.22-0.64
				c-0.11-0.19-0.26-0.35-0.46-0.48c-0.2-0.13-0.45-0.19-0.76-0.19c-0.33,0-0.59,0.06-0.79,0.19c-0.2,0.13-0.35,0.29-0.46,0.49
				c-0.11,0.2-0.18,0.41-0.21,0.65C618.69,3785.31,618.67,3785.53,618.67,3785.73z M629.08,3782.74L621,3794.7l-1.15-0.53
				l8.06-11.94L629.08,3782.74z M626.39,3790.88c0-0.34,0.04-0.68,0.12-1.02s0.22-0.64,0.42-0.9s0.46-0.48,0.8-0.65
				c0.34-0.17,0.75-0.25,1.26-0.25c0.51,0,0.93,0.08,1.26,0.26c0.33,0.17,0.59,0.39,0.78,0.66c0.19,0.27,0.33,0.58,0.41,0.93
				s0.12,0.7,0.12,1.05c0,2.09-0.86,3.14-2.58,3.14c-0.86,0-1.51-0.26-1.94-0.78C626.6,3792.79,626.39,3791.98,626.39,3790.88z
				 M627.46,3790.98c0,0.21,0.01,0.45,0.04,0.7c0.03,0.25,0.09,0.49,0.19,0.71c0.1,0.22,0.25,0.41,0.46,0.56
				c0.2,0.15,0.48,0.22,0.83,0.22c0.33,0,0.59-0.07,0.79-0.22c0.2-0.15,0.35-0.34,0.45-0.56c0.1-0.22,0.17-0.46,0.19-0.72
				s0.04-0.49,0.04-0.69c0-0.21-0.02-0.44-0.06-0.67c-0.04-0.23-0.11-0.45-0.22-0.64c-0.11-0.19-0.26-0.35-0.45-0.48
				c-0.19-0.13-0.44-0.19-0.75-0.19c-0.33,0-0.6,0.06-0.8,0.19c-0.2,0.13-0.36,0.29-0.46,0.49s-0.18,0.41-0.21,0.65
				C627.48,3790.56,627.46,3790.77,627.46,3790.98z"/>
		</g>
	</g>
	<g id="Groupe_130" transform="translate(-452.631 -3529.529)">
		<path id="Tracé_126-3" class="st4" d="M601.48,3780.49l2.94,19.84l31.35-2.51l1.88-17.33L601.48,3780.49z"/>
		<g class="st3">
			<path class="st6" d="M609.57,3791.33c0.02,0.2,0.08,0.41,0.18,0.61c0.1,0.2,0.23,0.39,0.42,0.55c0.18,0.17,0.42,0.3,0.71,0.4
				c0.29,0.1,0.65,0.15,1.08,0.15c0.97,0,1.73-0.35,2.27-1.06s0.82-1.79,0.82-3.26c-0.1,0.18-0.24,0.36-0.44,0.54
				s-0.44,0.34-0.73,0.48c-0.29,0.14-0.62,0.26-0.98,0.35s-0.77,0.14-1.19,0.14c-0.71,0-1.33-0.1-1.84-0.3
				c-0.51-0.2-0.93-0.47-1.26-0.82c-0.33-0.34-0.57-0.74-0.73-1.2c-0.15-0.46-0.23-0.94-0.23-1.44c0-0.52,0.1-1.01,0.31-1.46
				s0.5-0.85,0.87-1.18s0.82-0.6,1.34-0.79c0.52-0.19,1.09-0.29,1.72-0.29c0.86,0,1.59,0.13,2.17,0.39c0.58,0.26,1.05,0.62,1.4,1.07
				s0.6,0.99,0.75,1.62c0.15,0.63,0.22,1.31,0.22,2.05c0,0.94-0.07,1.79-0.21,2.57s-0.37,1.43-0.7,1.98
				c-0.33,0.55-0.77,0.98-1.33,1.28c-0.55,0.3-1.25,0.46-2.1,0.46c-0.82,0-1.49-0.09-2-0.27c-0.51-0.18-0.92-0.41-1.22-0.7
				c-0.3-0.28-0.51-0.59-0.63-0.92c-0.12-0.33-0.2-0.65-0.23-0.94H609.57z M614.77,3786.34c0-0.34-0.07-0.66-0.22-0.95
				c-0.14-0.29-0.34-0.54-0.6-0.75c-0.26-0.21-0.56-0.37-0.91-0.49c-0.35-0.12-0.73-0.18-1.14-0.18c-0.42,0-0.79,0.07-1.12,0.2
				c-0.33,0.13-0.62,0.31-0.86,0.53c-0.24,0.22-0.42,0.47-0.55,0.75c-0.13,0.28-0.19,0.58-0.19,0.88c0,0.31,0.04,0.62,0.14,0.94
				c0.09,0.32,0.24,0.61,0.46,0.87c0.21,0.26,0.49,0.48,0.84,0.64c0.35,0.17,0.78,0.25,1.29,0.25c0.9,0,1.6-0.24,2.1-0.71
				C614.52,3787.86,614.77,3787.2,614.77,3786.34z"/>
			<path class="st6" d="M618.24,3785.63c0-0.34,0.04-0.68,0.12-1.02s0.22-0.64,0.42-0.9s0.46-0.48,0.8-0.65
				c0.34-0.17,0.75-0.25,1.26-0.25c0.51,0,0.93,0.08,1.26,0.26c0.33,0.17,0.59,0.39,0.79,0.66c0.2,0.27,0.33,0.58,0.41,0.93
				c0.07,0.35,0.11,0.7,0.11,1.05c0,2.09-0.86,3.14-2.58,3.14c-0.85,0-1.5-0.26-1.94-0.78
				C618.46,3787.54,618.24,3786.73,618.24,3785.63z M619.33,3785.73c0,0.21,0.01,0.45,0.04,0.7c0.03,0.25,0.09,0.49,0.19,0.71
				c0.1,0.22,0.25,0.41,0.45,0.56c0.2,0.15,0.47,0.22,0.82,0.22c0.33,0,0.59-0.07,0.79-0.22c0.2-0.15,0.35-0.34,0.46-0.56
				c0.11-0.22,0.17-0.46,0.2-0.72s0.04-0.49,0.04-0.69c0-0.21-0.02-0.44-0.06-0.67c-0.04-0.23-0.11-0.45-0.22-0.64
				c-0.11-0.19-0.26-0.35-0.46-0.48c-0.2-0.13-0.45-0.19-0.76-0.19c-0.33,0-0.59,0.06-0.79,0.19c-0.2,0.13-0.35,0.29-0.46,0.49
				c-0.11,0.2-0.18,0.41-0.21,0.65C619.35,3785.31,619.33,3785.53,619.33,3785.73z M629.73,3782.74l-8.08,11.97l-1.15-0.53
				l8.06-11.94L629.73,3782.74z M627.04,3790.88c0-0.34,0.04-0.68,0.12-1.02s0.22-0.64,0.42-0.9s0.46-0.48,0.8-0.65
				c0.34-0.17,0.75-0.25,1.26-0.25c0.51,0,0.93,0.08,1.26,0.26c0.33,0.17,0.59,0.39,0.78,0.66c0.19,0.27,0.33,0.58,0.41,0.93
				s0.12,0.7,0.12,1.05c0,2.09-0.86,3.14-2.58,3.14c-0.86,0-1.51-0.26-1.94-0.78C627.26,3792.79,627.04,3791.98,627.04,3790.88z
				 M628.12,3790.98c0,0.21,0.01,0.45,0.04,0.7c0.03,0.25,0.09,0.49,0.19,0.71c0.1,0.22,0.25,0.41,0.46,0.56
				c0.2,0.15,0.48,0.22,0.83,0.22c0.33,0,0.59-0.07,0.79-0.22c0.2-0.15,0.35-0.34,0.45-0.56c0.1-0.22,0.17-0.46,0.19-0.72
				s0.04-0.49,0.04-0.69c0-0.21-0.02-0.44-0.06-0.67c-0.04-0.23-0.11-0.45-0.22-0.64c-0.11-0.19-0.26-0.35-0.45-0.48
				c-0.19-0.13-0.44-0.19-0.75-0.19c-0.33,0-0.6,0.06-0.8,0.19c-0.2,0.13-0.36,0.29-0.46,0.49s-0.18,0.41-0.21,0.65
				C628.13,3790.56,628.12,3790.77,628.12,3790.98z"/>
		</g>
	</g>
	<g id="Groupe_131" transform="translate(-461.197 -3450.828)">
		<path id="Tracé_126-4" class="st4" d="M601.48,3780.49l4.47,19.84l47.73-2.51l2.86-17.33L601.48,3780.49z"/>
		<g class="st3">
			<path class="st6" d="M611.48,3783.07V3794h-1.66v-8.02h-2.98v-0.9c0.41,0,0.79-0.04,1.15-0.13c0.36-0.08,0.68-0.21,0.96-0.37
				c0.28-0.16,0.5-0.36,0.66-0.59c0.17-0.23,0.25-0.5,0.25-0.78v-0.14H611.48z"/>
			<path class="st6" d="M614.42,3788.18c0-0.64,0.07-1.27,0.22-1.9s0.41-1.18,0.78-1.68s0.86-0.9,1.48-1.21
				c0.62-0.31,1.4-0.46,2.35-0.46s1.74,0.16,2.36,0.48c0.62,0.32,1.12,0.74,1.48,1.25c0.36,0.51,0.62,1.09,0.76,1.74
				c0.14,0.65,0.22,1.29,0.22,1.94c0,1.96-0.41,3.43-1.22,4.39c-0.81,0.97-2.01,1.45-3.6,1.45c-1.59,0-2.79-0.49-3.61-1.47
				C614.83,3791.72,614.42,3790.21,614.42,3788.18z M616.13,3788.34c0.01,0.44,0.04,0.92,0.1,1.44c0.06,0.52,0.19,1.01,0.4,1.47
				s0.51,0.84,0.92,1.15s0.97,0.46,1.7,0.46c0.7,0,1.26-0.16,1.67-0.47c0.41-0.31,0.72-0.7,0.94-1.16c0.21-0.46,0.35-0.95,0.41-1.47
				c0.06-0.52,0.09-1,0.09-1.42c0-0.44-0.04-0.9-0.12-1.38s-0.23-0.93-0.46-1.33c-0.22-0.4-0.54-0.73-0.94-0.99
				c-0.41-0.26-0.93-0.39-1.58-0.39c-0.68,0-1.23,0.13-1.64,0.4c-0.41,0.27-0.73,0.6-0.94,1.01s-0.36,0.85-0.43,1.33
				C616.17,3787.46,616.13,3787.91,616.13,3788.34z"/>
			<path class="st6" d="M625.51,3788.18c0-0.64,0.07-1.27,0.22-1.9s0.41-1.18,0.78-1.68s0.86-0.9,1.48-1.21
				c0.62-0.31,1.4-0.46,2.35-0.46s1.74,0.16,2.36,0.48c0.62,0.32,1.12,0.74,1.48,1.25c0.36,0.51,0.62,1.09,0.76,1.74
				c0.14,0.65,0.22,1.29,0.22,1.94c0,1.96-0.41,3.43-1.22,4.39c-0.81,0.97-2.01,1.45-3.6,1.45c-1.59,0-2.79-0.49-3.61-1.47
				C625.92,3791.72,625.51,3790.21,625.51,3788.18z M627.22,3788.34c0.01,0.44,0.04,0.92,0.1,1.44c0.06,0.52,0.19,1.01,0.4,1.47
				s0.51,0.84,0.92,1.15s0.97,0.46,1.7,0.46c0.7,0,1.26-0.16,1.67-0.47c0.41-0.31,0.72-0.7,0.94-1.16c0.21-0.46,0.35-0.95,0.41-1.47
				c0.06-0.52,0.09-1,0.09-1.42c0-0.44-0.04-0.9-0.12-1.38s-0.23-0.93-0.46-1.33c-0.22-0.4-0.54-0.73-0.94-0.99
				c-0.41-0.26-0.93-0.39-1.58-0.39c-0.68,0-1.23,0.13-1.64,0.4c-0.41,0.27-0.73,0.6-0.94,1.01s-0.36,0.85-0.43,1.33
				C627.25,3787.46,627.22,3787.91,627.22,3788.34z"/>
			<path class="st6" d="M636.84,3785.63c0-0.34,0.04-0.68,0.12-1.02s0.22-0.64,0.42-0.9c0.2-0.27,0.46-0.48,0.8-0.65
				c0.34-0.17,0.75-0.25,1.26-0.25c0.51,0,0.93,0.08,1.26,0.26c0.33,0.17,0.59,0.39,0.79,0.66c0.2,0.27,0.33,0.58,0.41,0.93
				s0.11,0.7,0.11,1.05c0,2.09-0.86,3.14-2.58,3.14c-0.85,0-1.5-0.26-1.94-0.78C637.05,3787.54,636.84,3786.73,636.84,3785.63z
				 M637.92,3785.73c0,0.21,0.01,0.45,0.04,0.7c0.03,0.25,0.09,0.49,0.19,0.71c0.1,0.22,0.25,0.41,0.45,0.56s0.47,0.22,0.82,0.22
				c0.33,0,0.59-0.07,0.79-0.22s0.35-0.34,0.46-0.56c0.11-0.22,0.17-0.46,0.2-0.72c0.03-0.26,0.04-0.49,0.04-0.69
				c0-0.21-0.02-0.44-0.06-0.67c-0.04-0.23-0.11-0.45-0.22-0.64s-0.26-0.35-0.46-0.48c-0.2-0.13-0.45-0.19-0.76-0.19
				c-0.33,0-0.59,0.06-0.79,0.19c-0.2,0.13-0.35,0.29-0.46,0.49s-0.18,0.41-0.21,0.65S637.92,3785.53,637.92,3785.73z
				 M648.32,3782.74l-8.08,11.97l-1.15-0.53l8.06-11.94L648.32,3782.74z M645.64,3790.88c0-0.34,0.04-0.68,0.12-1.02
				s0.22-0.64,0.42-0.9s0.46-0.48,0.8-0.65c0.34-0.17,0.75-0.25,1.26-0.25c0.51,0,0.93,0.08,1.26,0.26
				c0.33,0.17,0.59,0.39,0.78,0.66c0.19,0.27,0.33,0.58,0.41,0.93s0.12,0.7,0.12,1.05c0,2.09-0.86,3.14-2.58,3.14
				c-0.86,0-1.51-0.26-1.94-0.78C645.85,3792.79,645.64,3791.98,645.64,3790.88z M646.71,3790.98c0,0.21,0.01,0.45,0.04,0.7
				c0.03,0.25,0.09,0.49,0.19,0.71c0.1,0.22,0.25,0.41,0.46,0.56c0.2,0.15,0.48,0.22,0.83,0.22c0.33,0,0.59-0.07,0.79-0.22
				s0.35-0.34,0.45-0.56c0.1-0.22,0.17-0.46,0.19-0.72c0.03-0.26,0.04-0.49,0.04-0.69c0-0.21-0.02-0.44-0.06-0.67
				c-0.04-0.23-0.11-0.45-0.22-0.64s-0.26-0.35-0.45-0.48c-0.19-0.13-0.44-0.19-0.75-0.19c-0.33,0-0.6,0.06-0.8,0.19
				c-0.2,0.13-0.36,0.29-0.46,0.49s-0.18,0.41-0.21,0.65S646.71,3790.77,646.71,3790.98z"/>
		</g>
	</g>
	<g class="st3">
		<path d="M164.14,173.28c0,1.27-0.44,2.19-1.3,2.76c-0.87,0.57-2.19,0.86-3.97,0.86h-5.62v-12.47h4.99c1.8,0,3.16,0.29,4.08,0.85
			c0.92,0.57,1.38,1.49,1.38,2.75c0,0.56-0.14,1.07-0.43,1.51c-0.29,0.44-0.67,0.78-1.13,1.01c0.54,0.22,1,0.56,1.39,1.03
			C163.91,172.05,164.12,172.62,164.14,173.28z M155.75,166.4v3.24h2.97c0.83,0,1.44-0.12,1.84-0.36c0.4-0.24,0.59-0.66,0.59-1.26
			c0-0.54-0.22-0.95-0.65-1.21c-0.43-0.27-1.03-0.41-1.78-0.41H155.75z M155.75,171.61v3.33h3.38c0.79,0,1.4-0.12,1.82-0.37
			c0.42-0.25,0.63-0.67,0.63-1.29c0-0.54-0.22-0.95-0.67-1.24c-0.45-0.29-1.04-0.43-1.77-0.43H155.75z"/>
		<path d="M173.19,176.9l-2.56-3.08l-2.5,3.08h-2.99l4.12-4.57l-3.91-4.27h2.99l2.36,2.83l2.27-2.83h2.97l-3.89,4.27l4.09,4.57
			H173.19z"/>
		<path d="M180.86,176.9h-2.84v-2.38h2.84V176.9z"/>
	</g>
	<g class="st3">
		<path d="M166.19,147.34c0.25-0.76,0.5-1.56,0.75-2.41c0.25-0.85,0.5-1.71,0.75-2.57s0.5-1.72,0.75-2.56s0.49-1.63,0.73-2.38h2.66
			l-4.36,12.47h-2.57l-3.04-9.43l-3.06,9.43h-2.59l-4.38-12.47h2.77l2.9,9.92l3.13-9.92h2.48L166.19,147.34z"/>
		<path d="M175.68,149.9h-2.84v-2.38h2.84V149.9z"/>
	</g>
	<g class="st3">
		<path d="M162.27,108.39h-6.46v3.37h6.17v1.93h-6.17v5.22h-2.56v-12.47h9.02V108.39z"/>
		<path d="M166.26,106.42v12.47h-2.38v-12.47H166.26z"/>
		<path d="M171.95,118.9h-2.84v-2.38h2.84V118.9z"/>
	</g>
</g>
</svg>
