<?xml version="1.0" encoding="utf-8"?>
<!-- Generator: Adobe Illustrator 23.1.1, SVG Export Plug-In . SVG Version: 6.00 Build 0)  -->
<svg version="1.1" id="Calque_1" xmlns="http://www.w3.org/2000/svg" xmlns:xlink="http://www.w3.org/1999/xlink" x="0px" y="0px"
	 viewBox="0 0 119.03 30.79" style="enable-background:new 0 0 119.03 30.79;" xml:space="preserve">
<style type="text/css">
	.st0{stroke:#000000;stroke-width:1.7532;stroke-miterlimit:10;}
	.st1{fill:none;stroke:#000000;stroke-width:7;stroke-linecap:round;stroke-linejoin:round;stroke-miterlimit:10;}
	.st2{fill:none;stroke:#048D14;stroke-width:2;}
	.st3{enable-background:new    ;}
	.st4{fill:#048D14;}
</style>
<g id="Composant_5_5" transform="translate(64.998 49.032)">
	<path id="Tracé_14-2" class="st2" d="M-63.75-44.31l5.77,25.05l111.01-3.02V-48L-63.75-44.31z"/>
	<g class="st3">
		<path class="st4" d="M-34.94-31.25c0,1.27-0.44,2.19-1.31,2.76c-0.87,0.57-2.19,0.86-3.97,0.86h-5.62v-12.47h4.99
			c1.8,0,3.16,0.29,4.08,0.85c0.92,0.57,1.38,1.49,1.38,2.75c0,0.56-0.14,1.07-0.43,1.51c-0.29,0.44-0.67,0.78-1.13,1.01
			c0.54,0.22,1,0.56,1.4,1.03C-35.17-32.48-34.97-31.91-34.94-31.25z M-43.33-38.13v3.24h2.97c0.83,0,1.44-0.12,1.84-0.36
			c0.4-0.24,0.59-0.66,0.59-1.26c0-0.54-0.22-0.95-0.65-1.21c-0.43-0.27-1.03-0.41-1.78-0.41H-43.33z M-43.33-32.92v3.33h3.38
			c0.79,0,1.4-0.12,1.82-0.37s0.63-0.67,0.63-1.29c0-0.54-0.22-0.95-0.67-1.24s-1.04-0.43-1.77-0.43H-43.33z"/>
		<path class="st4" d="M-28.21-34.92c-0.8,0-1.41,0.2-1.83,0.6c-0.41,0.4-0.62,1.04-0.62,1.92v4.77h-2.38v-8.84h2.3v0.68
			c0.3-0.31,0.67-0.53,1.12-0.67c0.44-0.13,0.91-0.2,1.4-0.2c0.17,0,0.39,0,0.67,0.01s0.53,0.03,0.77,0.08v1.8
			c-0.12-0.02-0.25-0.05-0.39-0.07c-0.14-0.02-0.27-0.04-0.4-0.05c-0.13-0.01-0.25-0.02-0.37-0.03
			C-28.05-34.92-28.14-34.92-28.21-34.92z"/>
		<path class="st4" d="M-18.02-27.63l-0.04-0.86c-0.34,0.37-0.77,0.64-1.29,0.8c-0.52,0.16-1.02,0.24-1.5,0.24
			c-1.37,0-2.45-0.26-3.24-0.77s-1.19-1.34-1.19-2.48v-5.76h2.38v5.62c0,0.26,0.06,0.5,0.19,0.71s0.3,0.39,0.51,0.53
			c0.22,0.14,0.47,0.26,0.76,0.33c0.29,0.08,0.59,0.12,0.92,0.12c0.7,0,1.27-0.17,1.71-0.5c0.44-0.34,0.67-0.8,0.67-1.4v-5.4h2.38
			v8.84H-18.02z"/>
		<path class="st4" d="M-6.61-27.63l-2.56-3.08l-2.5,3.08h-2.99l4.12-4.57l-3.91-4.27h2.99l2.36,2.83l2.27-2.83h2.97l-3.89,4.27
			l4.09,4.57H-6.61z"/>
		<path class="st4" d="M6.71-30.57c-0.14,0.58-0.36,1.06-0.65,1.46c-0.29,0.4-0.64,0.72-1.05,0.96s-0.88,0.42-1.4,0.53
			c-0.52,0.11-1.08,0.16-1.67,0.16c-0.89,0-1.65-0.12-2.29-0.35c-0.64-0.23-1.17-0.55-1.58-0.96s-0.72-0.89-0.92-1.45
			c-0.2-0.56-0.3-1.17-0.3-1.83c0-0.78,0.12-1.46,0.37-2.03c0.25-0.58,0.59-1.05,1.03-1.43c0.44-0.38,0.97-0.66,1.59-0.85
			c0.62-0.19,1.31-0.28,2.07-0.28c0.72,0,1.38,0.1,1.97,0.29s1.1,0.48,1.52,0.85c0.42,0.38,0.74,0.85,0.97,1.42
			c0.23,0.57,0.34,1.23,0.34,1.99v0.63h-7.42c0.04,0.31,0.11,0.61,0.22,0.88c0.11,0.28,0.27,0.52,0.48,0.73
			c0.21,0.21,0.47,0.38,0.79,0.5c0.32,0.12,0.7,0.18,1.16,0.18c1.24,0,2-0.47,2.29-1.4H6.71z M4.21-33.09
			c-0.02-0.25-0.1-0.49-0.22-0.72c-0.12-0.23-0.28-0.43-0.48-0.6c-0.2-0.17-0.43-0.31-0.7-0.41c-0.27-0.1-0.57-0.15-0.91-0.15
			c-0.4,0-0.75,0.05-1.05,0.16c-0.31,0.11-0.57,0.25-0.78,0.42c-0.22,0.17-0.38,0.38-0.5,0.6c-0.12,0.23-0.2,0.46-0.23,0.7H4.21z"/>
		<path class="st4" d="M10.85-40.11v12.47H8.47v-12.47H10.85z"/>
		<path class="st4" d="M15.39-40.11v12.47h-2.38v-12.47H15.39z"/>
		<path class="st4" d="M27.01-30.57c-0.14,0.58-0.36,1.06-0.65,1.46c-0.29,0.4-0.64,0.72-1.05,0.96s-0.88,0.42-1.4,0.53
			c-0.52,0.11-1.08,0.16-1.67,0.16c-0.89,0-1.65-0.12-2.29-0.35c-0.64-0.23-1.17-0.55-1.58-0.96s-0.72-0.89-0.92-1.45
			c-0.2-0.56-0.3-1.17-0.3-1.83c0-0.78,0.12-1.46,0.37-2.03c0.25-0.58,0.59-1.05,1.03-1.43c0.44-0.38,0.97-0.66,1.59-0.85
			c0.62-0.19,1.31-0.28,2.07-0.28c0.72,0,1.38,0.1,1.97,0.29s1.1,0.48,1.52,0.85c0.42,0.38,0.74,0.85,0.97,1.42
			c0.23,0.57,0.34,1.23,0.34,1.99v0.63H19.6c0.04,0.31,0.11,0.61,0.22,0.88c0.11,0.28,0.27,0.52,0.48,0.73
			c0.21,0.21,0.47,0.38,0.79,0.5c0.32,0.12,0.7,0.18,1.16,0.18c1.24,0,2-0.47,2.29-1.4H27.01z M24.51-33.09
			c-0.02-0.25-0.1-0.49-0.22-0.72c-0.12-0.23-0.28-0.43-0.48-0.6c-0.2-0.17-0.43-0.31-0.7-0.41c-0.27-0.1-0.57-0.15-0.91-0.15
			c-0.4,0-0.75,0.05-1.05,0.16c-0.31,0.11-0.57,0.25-0.78,0.42c-0.22,0.17-0.38,0.38-0.5,0.6c-0.12,0.23-0.2,0.46-0.23,0.7H24.51z"
			/>
		<path class="st4" d="M30.7-30.12c0.05,0.31,0.25,0.55,0.62,0.71c0.37,0.16,0.79,0.24,1.27,0.24c0.2,0,0.41-0.01,0.61-0.04
			c0.2-0.03,0.39-0.09,0.56-0.17c0.17-0.08,0.31-0.19,0.41-0.33c0.11-0.14,0.16-0.31,0.16-0.51c0-0.17-0.05-0.31-0.16-0.42
			c-0.11-0.11-0.26-0.21-0.45-0.28c-0.19-0.07-0.41-0.13-0.66-0.18s-0.51-0.09-0.8-0.13c-0.46-0.07-0.91-0.15-1.36-0.23
			s-0.86-0.22-1.22-0.4c-0.37-0.18-0.66-0.43-0.89-0.76c-0.23-0.32-0.34-0.76-0.34-1.3c0-0.48,0.11-0.89,0.32-1.23
			c0.22-0.34,0.5-0.62,0.86-0.85c0.36-0.22,0.78-0.38,1.26-0.49c0.48-0.1,0.99-0.15,1.53-0.15c0.55,0,1.06,0.06,1.53,0.17
			c0.47,0.11,0.87,0.28,1.22,0.5c0.34,0.22,0.61,0.48,0.81,0.8c0.2,0.32,0.3,0.69,0.3,1.11h-2.23c-0.02-0.13-0.09-0.25-0.19-0.37
			s-0.23-0.21-0.38-0.29s-0.32-0.14-0.5-0.19c-0.19-0.05-0.38-0.07-0.57-0.07c-0.42,0-0.79,0.08-1.13,0.23
			c-0.33,0.16-0.5,0.37-0.5,0.65c0,0.19,0.06,0.35,0.18,0.48c0.12,0.13,0.28,0.23,0.5,0.32c0.21,0.08,0.45,0.15,0.72,0.2
			c0.27,0.05,0.55,0.09,0.84,0.13c0.44,0.06,0.88,0.13,1.32,0.22c0.44,0.09,0.83,0.23,1.18,0.42c0.35,0.19,0.63,0.46,0.85,0.79
			c0.22,0.34,0.32,0.78,0.32,1.33c0,0.52-0.12,0.95-0.37,1.31c-0.25,0.35-0.57,0.64-0.96,0.85c-0.4,0.22-0.84,0.37-1.32,0.46
			c-0.49,0.09-0.97,0.13-1.45,0.13c-0.59,0-1.14-0.05-1.67-0.15c-0.52-0.1-0.98-0.26-1.38-0.48c-0.4-0.22-0.71-0.49-0.95-0.83
			s-0.36-0.74-0.37-1.21H30.7z"/>
	</g>
</g>
</svg>
