<?xml version="1.0" encoding="utf-8"?>
<!-- Generator: Adobe Illustrator 23.1.1, SVG Export Plug-In . SVG Version: 6.00 Build 0)  -->
<svg version="1.1" id="Calque_1" xmlns="http://www.w3.org/2000/svg" xmlns:xlink="http://www.w3.org/1999/xlink" x="0px" y="0px"
	 viewBox="0 0 119.03 30.79" style="enable-background:new 0 0 119.03 30.79;" xml:space="preserve">
<style type="text/css">
	.st0{stroke:#000000;stroke-width:1.7532;stroke-miterlimit:10;}
	.st1{fill:none;stroke:#000000;stroke-width:7;stroke-linecap:round;stroke-linejoin:round;stroke-miterlimit:10;}
	.st2{fill:none;stroke:#048D14;stroke-width:2;}
	.st3{enable-background:new    ;}
	.st4{fill:#048D14;}
</style>
<g id="Composant_5_3" transform="translate(1.248 1.032)">
	<path id="Tracé_14" class="st2" d="M0,3.69l5.77,25.05l111.01-3.02V0L0,3.69z"/>
	<g class="st3">
		<path class="st4" d="M34.86,17.81c0.25-0.76,0.5-1.56,0.75-2.41c0.25-0.85,0.5-1.71,0.75-2.57s0.5-1.72,0.75-2.56
			c0.25-0.84,0.49-1.63,0.73-2.38h2.66l-4.36,12.47h-2.57l-3.04-9.43l-3.06,9.43h-2.59L20.5,7.89h2.77l2.9,9.92l3.13-9.92h2.48
			L34.86,17.81z"/>
		<path class="st4" d="M41.14,14.07c0.04-0.37,0.16-0.72,0.36-1.05s0.49-0.62,0.85-0.86s0.81-0.44,1.32-0.58
			c0.52-0.14,1.1-0.22,1.76-0.22c0.8,0,1.48,0.09,2.02,0.26s0.97,0.42,1.3,0.75s0.56,0.71,0.7,1.17s0.21,0.96,0.21,1.51v4.01
			c0,0.28,0.01,0.5,0.02,0.68s0.03,0.31,0.05,0.4c0.02,0.12,0.05,0.2,0.07,0.23h-2.12c-0.02-0.05-0.05-0.13-0.07-0.23
			c-0.02-0.1-0.04-0.22-0.05-0.38c-0.01-0.16-0.02-0.37-0.02-0.65c-0.12,0.22-0.29,0.41-0.5,0.58s-0.44,0.32-0.69,0.45
			s-0.52,0.22-0.81,0.3c-0.29,0.07-0.58,0.11-0.86,0.11c-0.5,0-1-0.05-1.48-0.15c-0.49-0.1-0.92-0.26-1.31-0.48s-0.71-0.5-0.95-0.85
			c-0.24-0.35-0.36-0.78-0.36-1.29c0-0.47,0.12-0.87,0.37-1.21c0.25-0.34,0.56-0.63,0.94-0.86c0.38-0.23,0.82-0.4,1.31-0.51
			c0.49-0.11,0.96-0.18,1.43-0.19l2.7-0.09v-0.4c0-0.5-0.17-0.88-0.5-1.12s-0.79-0.37-1.4-0.37c-0.52,0-0.95,0.1-1.3,0.29
			c-0.35,0.19-0.55,0.45-0.58,0.77L41.14,14.07z M47.35,16.53l-2.59,0.09c-0.6,0.02-1.05,0.14-1.34,0.35s-0.44,0.49-0.44,0.84
			c0,0.28,0.17,0.51,0.5,0.69c0.34,0.19,0.77,0.28,1.3,0.28c0.37,0,0.72-0.05,1.04-0.16c0.32-0.11,0.59-0.26,0.82-0.45
			c0.23-0.19,0.41-0.41,0.53-0.65s0.19-0.5,0.19-0.77V16.53z"/>
		<path class="st4" d="M54.14,7.89v12.47h-2.38V7.89H54.14z"/>
		<path class="st4" d="M58.67,7.89v12.47H56.3V7.89H58.67z"/>
		<path class="st4" d="M65.48,11.37c0.86,0,1.61,0.11,2.25,0.33c0.64,0.22,1.16,0.53,1.57,0.94c0.41,0.4,0.71,0.88,0.91,1.44
			s0.3,1.18,0.3,1.86c0,1.48-0.42,2.61-1.25,3.41s-2.09,1.2-3.77,1.2c-1.67,0-2.93-0.4-3.77-1.2s-1.27-1.94-1.27-3.41
			c0-0.68,0.1-1.31,0.3-1.86s0.5-1.04,0.92-1.44c0.41-0.4,0.94-0.71,1.58-0.94C63.86,11.48,64.61,11.37,65.48,11.37z M65.48,13.02
			c-0.47,0-0.87,0.08-1.2,0.24c-0.33,0.16-0.6,0.38-0.81,0.66c-0.21,0.28-0.36,0.59-0.46,0.95c-0.1,0.35-0.14,0.72-0.14,1.09
			c0,0.37,0.05,0.73,0.14,1.08c0.1,0.35,0.25,0.65,0.46,0.92c0.21,0.26,0.48,0.48,0.81,0.64c0.33,0.16,0.73,0.24,1.2,0.24
			c0.47,0,0.87-0.08,1.2-0.24c0.33-0.16,0.6-0.37,0.81-0.64c0.21-0.26,0.36-0.57,0.46-0.92c0.1-0.35,0.14-0.71,0.14-1.08
			c0-0.37-0.05-0.73-0.14-1.09c-0.1-0.35-0.25-0.67-0.46-0.95c-0.21-0.28-0.48-0.5-0.81-0.66C66.34,13.11,65.95,13.02,65.48,13.02z"
			/>
		<path class="st4" d="M74.48,11.53v0.86c0.34-0.37,0.76-0.64,1.27-0.8c0.51-0.16,1-0.24,1.49-0.24c1.37,0,2.45,0.26,3.26,0.77
			c0.8,0.52,1.21,1.34,1.21,2.48v5.76h-2.38v-5.65c0-0.26-0.06-0.5-0.19-0.71c-0.13-0.21-0.3-0.39-0.51-0.53
			c-0.22-0.14-0.47-0.25-0.76-0.33s-0.59-0.12-0.92-0.12c-0.7,0-1.27,0.17-1.71,0.5c-0.44,0.34-0.67,0.8-0.67,1.4v5.44h-2.38v-8.84
			H74.48z"/>
		<path class="st4" d="M83.78,9.84V7.7h2.5v2.14H83.78z M83.84,20.37v-8.84h2.38v8.84H83.84z"/>
		<path class="st4" d="M97.91,17.43c-0.14,0.58-0.36,1.06-0.65,1.46c-0.29,0.4-0.64,0.72-1.05,0.96s-0.88,0.42-1.4,0.53
			c-0.52,0.11-1.08,0.16-1.67,0.16c-0.89,0-1.65-0.12-2.29-0.35c-0.64-0.23-1.17-0.55-1.58-0.96s-0.72-0.89-0.92-1.45
			c-0.2-0.56-0.3-1.17-0.3-1.83c0-0.78,0.12-1.46,0.37-2.03c0.25-0.58,0.59-1.05,1.03-1.43c0.44-0.38,0.97-0.66,1.59-0.85
			c0.62-0.19,1.31-0.28,2.07-0.28c0.72,0,1.38,0.1,1.97,0.29s1.1,0.48,1.52,0.85c0.42,0.38,0.74,0.85,0.97,1.42
			c0.23,0.57,0.34,1.23,0.34,1.99v0.63H90.5c0.04,0.31,0.11,0.61,0.22,0.88c0.11,0.28,0.27,0.52,0.48,0.73
			c0.21,0.21,0.47,0.38,0.79,0.5c0.32,0.12,0.7,0.18,1.16,0.18c1.24,0,2-0.47,2.29-1.4H97.91z M95.41,14.91
			c-0.02-0.25-0.1-0.49-0.22-0.72c-0.12-0.23-0.28-0.43-0.48-0.6c-0.2-0.17-0.43-0.31-0.7-0.41c-0.27-0.1-0.57-0.15-0.91-0.15
			c-0.4,0-0.75,0.05-1.05,0.16c-0.31,0.11-0.57,0.25-0.78,0.42c-0.22,0.17-0.38,0.38-0.5,0.6c-0.12,0.23-0.2,0.46-0.23,0.7H95.41z"
			/>
	</g>
</g>
</svg>
