<?xml version="1.0" encoding="utf-8"?>
<!-- Generator: Adobe Illustrator 23.1.1, SVG Export Plug-In . SVG Version: 6.00 Build 0)  -->
<svg version="1.1" id="Calque_1" xmlns="http://www.w3.org/2000/svg" xmlns:xlink="http://www.w3.org/1999/xlink" x="0px" y="0px"
	 viewBox="0 0 343.62 348.63" style="enable-background:new 0 0 343.62 348.63;" xml:space="preserve">
<style type="text/css">
	.st0{fill:#FFFFFF;}
	.st1{fill:#5AA86F;}
	.st2{fill:#485175;}
	.st3{fill:#F7E8D3;}
	.st4{fill:#F1573F;}
	.st5{fill:#2D302F;}
	.st6{fill:#FFFFFF;stroke:#000000;stroke-miterlimit:10;}
	.st7{fill:#E7F4EC;}
	.st8{fill:#547146;}
	.st9{fill:#BCCBBC;}
	.st10{fill:#EAE9DC;}
	.st11{fill:#275E39;}
	.st12{fill:#050008;}
	.st13{clip-path:url(#SVGID_2_);}
	.st14{stroke:#000000;stroke-width:1.7036;stroke-miterlimit:10;}
	.st15{fill:#F9F8F4;}
	.st16{fill:#148B20;stroke:#1C881F;stroke-miterlimit:10;}
	.st17{fill:#148B20;stroke:#148B20;stroke-miterlimit:10;}
	.st18{stroke:#000000;stroke-miterlimit:10;}
	.st19{fill:#148B20;}
	.st20{enable-background:new    ;}
	.st21{fill:#F8F7F3;}
	.st22{fill:#1C8B20;stroke:#1C8B20;}
</style>
<path id="Tracé_124" class="st16" d="M328.62,114.18c0.17-0.42,0.15-0.88-0.03-1.29c-0.72-1.65-1.52-3.27-2.34-4.86
	c-15.08-37.56-41.35-72.15-79.48-87.79c-18.74-7.69-39.33-12.9-59.17-16.97C172.11,0.08,153.72-2,139.58,6.58
	c-0.11-0.07-0.23-0.12-0.35-0.13c-0.4-0.25-0.88-0.33-1.33-0.23C87.82,16.94,43.7,53.27,19.3,97.48
	C-6.37,144.01-5,198.85,18.8,245.66c22.84,44.94,65.12,80.33,113,95.6c48.1,15.34,98.94,3.99,140.02-24.01
	c17.7-12.07,32.96-27.36,45.01-45.08c0.08,0.08,0.16,0.16,0.24,0.25c0.5-0.88,0.95-1.79,1.34-2.73c0.26-0.65,0.66-1.24,1.17-1.72
	c7.3-11.41,13.11-23.71,17.3-36.59C348.93,194.07,342.06,150.47,328.62,114.18z M332.7,233.41c-0.85,2.79-1.83,5.52-2.88,8.23
	c-0.49,2.85-1.62,5.55-3.31,7.9c-2.77,6.07-5.96,11.94-9.56,17.56l-0.05-0.06c-0.58,1.1-1.24,2.15-1.98,3.15l0.01,0.01
	c-3.39,5.01-7.07,9.82-11.01,14.41c-1.05,2.23-2.55,4.22-4.4,5.85c-3.62,3.22-6.95,6.71-10.78,9.71c-0.29,0.23-0.58,0.43-0.87,0.66
	c-1.06,0.94-2.11,1.87-3.19,2.78l-0.03-0.09l-0.13-0.23c-0.6,0.43-1.21,0.85-1.82,1.27l0.5,0.29c-5.96,4.92-12.23,9.46-18.77,13.59
	c-0.12-0.31-0.22-0.62-0.33-0.93c-0.38,0.31-0.76,0.62-1.13,0.94c0.1,0.23,0.21,0.45,0.32,0.68l0.02,0.02
	c-15.23,9.47-31.77,16.64-49.09,21.29c-23.32,6.08-47.78,6.22-71.17,0.42c0.04-0.35,0.1-0.67,0.15-1.01
	c-0.59-0.05-1.19-0.1-1.78-0.14c-0.03,0.25-0.07,0.49-0.09,0.74c-14.87-3.79-29.17-9.53-42.54-17.07l0.05-0.21
	c-0.57-0.33-1.14-0.67-1.7-1.02l-0.01,0.28c-13.43-7.73-25.92-17-37.21-27.62C15.27,252.89-7.4,190.61,9.2,130.63
	C25,73.56,76.82,24.17,134.84,10.89l-0.1,0.14c1.82-0.59,3.59-1.42,5.43-2.02c0.04-0.09,0.07-0.17,0.1-0.27
	c2.9-1.64,6-2.91,9.22-3.78c5.68-3.75,12.87-1.86,19.89-1.53l-0.03-0.02c0.15,0.01,0.3,0.03,0.46,0.04
	c0.67,0.03,1.33,0.04,1.99,0.02c0.56-0.02,1.11,0.1,1.62,0.34c12.44,1.47,25.2,5.35,36.44,8.77c-0.02,0.04-0.03,0.09-0.05,0.13
	c2.34,0.42,4.63,1.07,6.84,1.93c1.05,0.36,2.12,0.66,3.19,0.95l-0.11-0.08c0.9,0.26,1.79,0.53,2.7,0.79
	c0.72,0.2,1.43,0.41,2.15,0.64c5.4,1.61,10.76,3.32,16.02,5.25c3.77,1.1,7.42,2.57,10.89,4.4c3.31,1.48,6.58,3.08,9.8,4.85
	c15.11,8.31,27.2,21.39,37.6,34.92c4.77,6.24,9.14,12.79,13.07,19.59c1.57,1.81,2.93,3.79,4.08,5.89c1.29,2.63,2.41,5.36,3.69,8
	c2.6,5.37,4.7,10.69,6.79,16.24c0.15,0.4,0.23,0.83,0.23,1.26C340.54,154.66,343.92,196.7,332.7,233.41z"/>
</svg>
