<?xml version="1.0" encoding="utf-8"?>
<!-- Generator: Adobe Illustrator 23.1.1, SVG Export Plug-In . SVG Version: 6.00 Build 0)  -->
<svg version="1.1" id="Calque_1" xmlns="http://www.w3.org/2000/svg" xmlns:xlink="http://www.w3.org/1999/xlink" x="0px" y="0px"
	 viewBox="0 0 335.15 340.05" style="enable-background:new 0 0 335.15 340.05;" xml:space="preserve">
<style type="text/css">
	.st0{fill:#FFFFFF;}
	.st1{fill:#5AA86F;}
	.st2{fill:#485175;}
	.st3{fill:#F7E8D3;}
	.st4{fill:#F1573F;}
	.st5{fill:#2D302F;}
	.st6{fill:#FFFFFF;stroke:#000000;stroke-miterlimit:10;}
	.st7{fill:#E7F4EC;}
	.st8{fill:#547146;}
	.st9{fill:#BCCBBC;}
	.st10{fill:#EAE9DC;}
	.st11{fill:#275E39;}
	.st12{fill:#050008;}
	.st13{clip-path:url(#SVGID_2_);}
	.st14{stroke:#000000;stroke-width:1.7036;stroke-miterlimit:10;}
	.st15{fill:#F9F8F4;}
	.st16{fill:#148B20;stroke:#1C881F;stroke-miterlimit:10;}
	.st17{fill:#148B20;stroke:#148B20;stroke-miterlimit:10;}
	.st18{stroke:#000000;stroke-miterlimit:10;}
	.st19{fill:#148B20;}
	.st20{enable-background:new    ;}
	.st21{fill:#F8F7F3;}
	.st22{fill:#1C8B20;stroke:#1C8B20;}
</style>
<path id="Tracé_122" class="st17" d="M320.51,111.37c0.16-0.41,0.15-0.86-0.03-1.26c-0.71-1.61-1.48-3.18-2.28-4.74
	C303.49,68.74,277.87,35,240.68,19.75c-18.28-7.5-38.36-12.58-57.71-16.55c-15.1-3.1-33.04-5.13-46.83,3.23
	c-0.1-0.07-0.22-0.11-0.34-0.13c-0.39-0.24-0.86-0.32-1.31-0.23C85.66,16.54,42.63,51.97,18.84,95.08
	c-25.04,45.38-23.7,98.87-0.49,144.53c22.28,43.83,63.51,78.34,110.21,93.24c46.91,14.96,96.49,3.89,136.56-23.42
	c17.26-11.77,32.15-26.69,43.9-43.97c0.08,0.08,0.16,0.16,0.23,0.24c0.49-0.86,0.93-1.75,1.31-2.66c0.25-0.63,0.64-1.21,1.14-1.68
	c7.12-11.13,12.79-23.12,16.88-35.69C340.32,189.29,333.62,146.76,320.51,111.37z M324.49,227.65c-0.83,2.72-1.79,5.39-2.8,8.03
	c-0.47,2.78-1.58,5.42-3.23,7.71c-2.7,5.92-5.81,11.64-9.32,17.12l-0.06-0.07c-0.56,1.07-1.21,2.1-1.92,3.07l0.01,0.01
	c-3.31,4.89-6.89,9.58-10.74,14.05c-1.03,2.17-2.49,4.12-4.29,5.71c-3.54,3.14-6.78,6.54-10.52,9.48c-0.28,0.22-0.57,0.42-0.85,0.64
	c-1.03,0.91-2.06,1.83-3.11,2.71c-0.01-0.03-0.01-0.06-0.03-0.08c-0.04-0.08-0.08-0.15-0.13-0.23c-0.59,0.42-1.18,0.83-1.77,1.24
	l0.49,0.28c-5.82,4.8-11.94,9.23-18.32,13.25c-0.12-0.31-0.21-0.61-0.32-0.91c-0.37,0.3-0.74,0.61-1.1,0.92
	c0.1,0.22,0.2,0.44,0.32,0.66l0.01,0.01c-14.85,9.23-30.98,16.23-47.87,20.76c-22.74,5.93-46.6,6.07-69.41,0.41
	c0.04-0.34,0.09-0.66,0.14-0.99c-0.58-0.05-1.15-0.1-1.73-0.14c-0.03,0.25-0.07,0.48-0.09,0.73c-14.5-3.7-28.45-9.3-41.48-16.65
	c0.02-0.07,0.03-0.14,0.05-0.21c-0.56-0.32-1.11-0.65-1.66-0.99c0,0.09-0.01,0.18-0.01,0.27c-13.1-7.54-25.28-16.58-36.29-26.94
	C14.91,246.66-7.2,185.91,8.99,127.42C24.4,71.76,74.93,23.59,131.52,10.63l-0.1,0.13c1.78-0.57,3.5-1.39,5.3-1.97
	c0.04-0.08,0.07-0.17,0.1-0.26c2.83-1.61,5.85-2.84,8.99-3.69c5.54-3.66,12.55-1.81,19.4-1.5l-0.03-0.02
	c0.15,0.01,0.3,0.03,0.44,0.04c0.65,0.03,1.3,0.04,1.95,0.02c0.54-0.02,1.08,0.09,1.58,0.33c12.13,1.44,24.58,5.22,35.54,8.55
	c-0.02,0.04-0.03,0.09-0.05,0.13c2.28,0.41,4.52,1.04,6.67,1.89c1.03,0.35,2.07,0.64,3.12,0.93c-0.04-0.03-0.07-0.06-0.11-0.08
	c0.88,0.25,1.75,0.51,2.62,0.77c0.7,0.19,1.4,0.4,2.1,0.62c5.27,1.57,10.49,3.24,15.63,5.13c3.68,1.07,7.23,2.51,10.62,4.29
	c3.23,1.45,6.42,3.01,9.56,4.73c14.74,8.1,26.53,20.86,36.68,34.06c4.66,6.09,8.91,12.47,12.74,19.11c1.53,1.77,2.86,3.69,3.97,5.75
	c1.27,2.57,2.35,5.22,3.6,7.8c2.53,5.24,4.58,10.42,6.62,15.84c0.15,0.39,0.22,0.81,0.22,1.22
	C332.14,150.85,335.43,191.85,324.49,227.65L324.49,227.65z"/>
<path id="Tracé_123_1_" class="st18" d="M293.72,119.87c0.14-0.34,0.13-0.72-0.03-1.05c-0.59-1.34-1.23-2.65-1.9-3.95
	c-12.26-30.52-33.6-58.62-64.58-71.33c-15.23-6.25-31.96-10.48-48.08-13.79c-12.58-2.58-27.53-4.28-39.01,2.69
	c-0.09-0.05-0.18-0.09-0.29-0.1c-0.32-0.2-0.71-0.27-1.09-0.19c-40.68,8.72-76.54,38.24-96.35,74.16
	c-20.86,37.81-19.75,82.37-0.41,120.41c18.56,36.51,52.91,65.27,91.82,77.68c39.08,12.46,80.39,3.24,113.77-19.51
	c14.38-9.81,26.78-22.24,36.57-36.63c0.07,0.07,0.13,0.13,0.19,0.21c0.41-0.72,0.77-1.46,1.09-2.22c0.21-0.53,0.53-1,0.95-1.4
	c5.93-9.27,10.65-19.26,14.06-29.73C310.22,184.79,304.64,149.36,293.72,119.87z M297.04,216.75c-0.69,2.26-1.49,4.49-2.34,6.69
	c-0.4,2.32-1.32,4.51-2.69,6.42c-2.25,4.93-4.84,9.7-7.76,14.27l-0.05-0.05c-0.47,0.89-1,1.75-1.6,2.56l0.01,0.01
	c-2.76,4.07-5.74,7.98-8.95,11.71c-0.85,1.81-2.07,3.43-3.57,4.75c-2.95,2.62-5.65,5.45-8.76,7.9c-0.23,0.18-0.47,0.35-0.71,0.53
	c-0.86,0.76-1.71,1.52-2.59,2.26c-0.01-0.02-0.01-0.05-0.02-0.07l-0.1-0.19c-0.49,0.35-0.98,0.69-1.48,1.03l0.41,0.23
	c-4.84,4-9.94,7.69-15.25,11.04c-0.1-0.26-0.18-0.51-0.26-0.76c-0.31,0.25-0.62,0.5-0.92,0.76c0.09,0.18,0.17,0.36,0.26,0.55
	l0.01,0.01c-12.37,7.69-25.81,13.52-39.88,17.29c-18.95,4.94-38.82,5.06-57.83,0.34c0.03-0.28,0.08-0.55,0.12-0.82
	c-0.48-0.04-0.96-0.08-1.44-0.11c-0.02,0.2-0.06,0.4-0.08,0.61c-12.08-3.08-23.7-7.75-34.56-13.87c0.01-0.06,0.02-0.11,0.04-0.17
	c-0.47-0.27-0.93-0.54-1.38-0.82c0,0.07-0.01,0.15-0.01,0.23c-10.91-6.29-21.06-13.82-30.23-22.44
	c-36.28-34.03-54.71-84.64-41.21-133.37c12.84-46.37,54.94-86.51,102.08-97.3l-0.08,0.11c1.48-0.48,2.92-1.16,4.41-1.64
	c0.03-0.07,0.06-0.14,0.08-0.21c2.36-1.34,4.88-2.37,7.49-3.07c4.61-3.05,10.46-1.51,16.16-1.25l-0.03-0.02
	c0.12,0.01,0.25,0.02,0.37,0.03c0.54,0.02,1.08,0.03,1.62,0.02c0.45-0.01,0.9,0.08,1.31,0.27c10.11,1.19,20.47,4.35,29.61,7.12
	c-0.02,0.04-0.03,0.07-0.04,0.11c1.9,0.34,3.76,0.86,5.56,1.57c0.86,0.29,1.73,0.54,2.6,0.77l-0.09-0.07
	c0.73,0.21,1.45,0.43,2.18,0.64c0.59,0.16,1.17,0.33,1.75,0.51c4.39,1.31,8.74,2.7,13.02,4.27c3.06,0.89,6.02,2.09,8.85,3.57
	c2.69,1.21,5.35,2.51,7.96,3.94c12.28,6.75,22.1,17.38,30.55,28.38c3.88,5.07,7.42,10.39,10.62,15.92c1.27,1.47,2.38,3.08,3.31,4.79
	c1.05,2.14,1.96,4.35,3,6.5c2.11,4.36,3.82,8.68,5.52,13.2c0.12,0.33,0.18,0.67,0.18,1.02C303.4,152.76,306.15,186.92,297.04,216.75
	L297.04,216.75z"/>
<path id="Tracé_124_2_" class="st18" d="M285.97,122.63c0.13-0.32,0.12-0.67-0.03-0.98c-0.55-1.26-1.16-2.49-1.79-3.71
	c-11.52-28.7-31.59-55.12-60.73-67.08c-14.32-5.88-30.05-9.86-45.21-12.97c-11.83-2.43-25.89-4.02-36.69,2.53
	c-0.08-0.05-0.17-0.09-0.27-0.1c-0.3-0.19-0.67-0.25-1.02-0.18c-38.26,8.2-71.97,35.95-90.61,69.73
	c-19.62,35.55-18.57,77.45-0.38,113.22c17.45,34.34,49.76,61.38,86.34,73.05c36.75,11.72,75.59,3.05,106.98-18.35
	c13.52-9.22,25.19-20.91,34.39-34.44c0.06,0.06,0.12,0.12,0.19,0.19c0.38-0.67,0.72-1.37,1.03-2.08c0.2-0.5,0.5-0.94,0.89-1.31
	c5.58-8.72,10.02-18.11,13.22-27.96C301.48,183.67,296.24,150.35,285.97,122.63z M289.09,213.73c-0.65,2.13-1.4,4.22-2.2,6.29
	c-0.37,2.18-1.24,4.24-2.53,6.04c-2.11,4.64-4.55,9.12-7.3,13.42l-0.04-0.05c-0.44,0.84-0.95,1.64-1.51,2.4l0.01,0.01
	c-2.59,3.83-5.4,7.51-8.41,11.01c-0.8,1.7-1.95,3.22-3.36,4.47c-2.77,2.46-5.31,5.13-8.24,7.42c-0.22,0.17-0.44,0.33-0.66,0.5
	c-0.81,0.72-1.61,1.43-2.44,2.13l-0.02-0.07l-0.1-0.18c-0.46,0.32-0.92,0.65-1.39,0.97l0.38,0.22c-4.56,3.76-9.35,7.23-14.34,10.38
	c-0.1-0.24-0.17-0.48-0.25-0.71c-0.29,0.24-0.58,0.48-0.86,0.72c0.08,0.17,0.16,0.34,0.24,0.52l0.01,0.01
	c-11.63,7.23-24.27,12.71-37.5,16.26c-17.82,4.64-36.51,4.75-54.38,0.32c0.03-0.26,0.07-0.51,0.11-0.77
	c-0.45-0.04-0.91-0.08-1.36-0.11c-0.02,0.19-0.05,0.37-0.07,0.57c-11.36-2.9-22.29-7.28-32.5-13.04l0.04-0.16
	c-0.44-0.25-0.87-0.51-1.3-0.78l-0.01,0.21c-10.26-5.91-19.8-12.99-28.43-21.1c-34.12-32-51.44-79.6-38.76-125.42
	c12.07-43.61,51.66-81.35,96-91.49l-0.08,0.1c1.39-0.45,2.74-1.09,4.15-1.54c0.03-0.06,0.06-0.13,0.07-0.2
	c2.22-1.26,4.59-2.23,7.05-2.89c4.34-2.87,9.83-1.42,15.2-1.17l-0.03-0.02c0.11,0.01,0.23,0.02,0.35,0.03
	c0.51,0.02,1.02,0.03,1.52,0.02c0.43-0.01,0.85,0.08,1.24,0.26c9.51,1.12,19.25,4.09,27.84,6.7c-0.02,0.03-0.02,0.07-0.04,0.1
	c1.79,0.32,3.54,0.81,5.23,1.48c0.81,0.27,1.62,0.5,2.44,0.73l-0.08-0.06c0.69,0.2,1.37,0.4,2.06,0.6c0.55,0.15,1.1,0.32,1.65,0.49
	c4.12,1.23,8.22,2.54,12.24,4.01c2.88,0.84,5.67,1.96,8.32,3.36c2.53,1.13,5.03,2.36,7.49,3.71c11.54,6.35,20.78,16.34,28.73,26.68
	c3.65,4.77,6.98,9.77,9.99,14.97c1.2,1.38,2.24,2.89,3.11,4.5c0.99,2.01,1.84,4.09,2.82,6.11c1.98,4.1,3.59,8.17,5.18,12.41
	c0.12,0.31,0.17,0.63,0.17,0.96C295.07,153.56,297.66,185.68,289.09,213.73L289.09,213.73z"/>
</svg>
