<?xml version="1.0" encoding="utf-8"?>
<!-- Generator: Adobe Illustrator 23.1.1, SVG Export Plug-In . SVG Version: 6.00 Build 0)  -->
<svg version="1.1" id="Calque_1" xmlns="http://www.w3.org/2000/svg" xmlns:xlink="http://www.w3.org/1999/xlink" x="0px" y="0px"
	 viewBox="0 0 113.68 30.79" style="enable-background:new 0 0 113.68 30.79;" xml:space="preserve">
<style type="text/css">
	.st0{fill:#F5FAFA;}
	.st1{fill:#EFEEE4;}
	.st2{fill:#EBF7EF;}
	.st3{fill:#048D14;}
	.st4{fill:#5AA86F;}
	.st5{fill:#485175;}
	.st6{fill:#F7E8D3;}
	.st7{fill:#E7F4EC;}
	.st8{fill:#547146;}
	.st9{fill:#BCCBBC;}
	.st10{fill:#EAE9DC;}
	.st11{fill:#275E39;}
	.st12{fill:#050008;}
	.st13{fill:#2F5418;}
	.st14{fill:#F9F8F4;}
	.st15{fill:#148B20;}
	.st16{enable-background:new    ;}
</style>
<g id="Composant_5_1" transform="translate(1.235 1.034)">
	<path class="st15" d="M4.71,29.76L-1.24,2.73l113.68-3.76v27.72L4.71,29.76z M1.23,4.65L6.3,27.71l104.14-2.97V1.03L1.23,4.65z"/>
	<g class="st16">
		<path class="st15" d="M22.71,16.15c-0.17,1.09-0.66,1.93-1.49,2.52s-1.92,0.88-3.29,0.88c-1.67,0-2.92-0.4-3.77-1.2
			s-1.27-1.94-1.27-3.41c0-0.68,0.1-1.31,0.3-1.86c0.2-0.56,0.5-1.04,0.92-1.44c0.41-0.4,0.94-0.71,1.57-0.94
			c0.63-0.22,1.38-0.33,2.26-0.33c0.58,0,1.13,0.07,1.66,0.2s1,0.33,1.41,0.58s0.76,0.58,1.04,0.95s0.48,0.81,0.58,1.3h-2.52
			c-0.17-0.42-0.45-0.76-0.84-1.01c-0.39-0.25-0.84-0.38-1.34-0.38c-0.47,0-0.87,0.08-1.2,0.24c-0.33,0.16-0.6,0.38-0.82,0.66
			c-0.22,0.28-0.37,0.59-0.47,0.95c-0.1,0.35-0.14,0.72-0.14,1.09s0.05,0.73,0.14,1.08c0.1,0.35,0.25,0.65,0.47,0.92
			c0.22,0.26,0.49,0.48,0.82,0.64c0.33,0.16,0.73,0.24,1.2,0.24c0.66,0,1.18-0.15,1.56-0.46c0.38-0.31,0.63-0.72,0.75-1.23H22.71z"
			/>
		<path class="st15" d="M29.28,10.37c0.86,0,1.61,0.11,2.25,0.33c0.64,0.22,1.16,0.53,1.57,0.94c0.41,0.4,0.71,0.88,0.91,1.44
			c0.2,0.56,0.3,1.18,0.3,1.86c0,1.48-0.42,2.61-1.25,3.41c-0.83,0.8-2.09,1.2-3.77,1.2c-1.67,0-2.92-0.4-3.77-1.2
			c-0.85-0.8-1.27-1.94-1.27-3.41c0-0.68,0.1-1.31,0.3-1.86c0.2-0.56,0.5-1.04,0.92-1.44c0.41-0.4,0.94-0.71,1.58-0.94
			C27.66,10.48,28.41,10.37,29.28,10.37z M29.28,12.02c-0.47,0-0.87,0.08-1.2,0.24c-0.33,0.16-0.6,0.38-0.81,0.66
			c-0.21,0.28-0.36,0.59-0.46,0.95c-0.1,0.35-0.14,0.72-0.14,1.09s0.05,0.73,0.14,1.08c0.1,0.35,0.25,0.65,0.46,0.92
			c0.21,0.26,0.48,0.48,0.81,0.64c0.33,0.16,0.73,0.24,1.2,0.24s0.87-0.08,1.2-0.24c0.33-0.16,0.6-0.37,0.81-0.64
			c0.21-0.26,0.36-0.57,0.46-0.92c0.1-0.35,0.14-0.71,0.14-1.08s-0.05-0.73-0.14-1.09c-0.1-0.35-0.25-0.67-0.46-0.95
			c-0.21-0.28-0.48-0.5-0.81-0.66C30.14,12.11,29.74,12.02,29.28,12.02z"/>
		<path class="st15" d="M38.28,10.53v0.86c0.34-0.37,0.76-0.64,1.27-0.8c0.51-0.16,1-0.24,1.48-0.24c1.37,0,2.45,0.26,3.26,0.77
			c0.8,0.52,1.21,1.34,1.21,2.48v5.76h-2.38v-5.65c0-0.26-0.06-0.5-0.19-0.71s-0.3-0.39-0.51-0.53c-0.22-0.14-0.47-0.25-0.76-0.33
			c-0.29-0.08-0.59-0.12-0.92-0.12c-0.7,0-1.27,0.17-1.71,0.5c-0.44,0.34-0.67,0.8-0.67,1.4v5.44h-2.38v-8.84H38.28z"/>
		<path class="st15" d="M46.68,10.53h1.73V9.22c0-0.76,0.24-1.36,0.72-1.81c0.48-0.45,1.19-0.67,2.12-0.67
			c0.25,0,0.58,0.01,0.98,0.04c0.4,0.02,0.78,0.07,1.14,0.13v1.69c-0.17-0.01-0.34-0.02-0.51-0.04c-0.17-0.01-0.34-0.02-0.5-0.03
			s-0.29-0.01-0.41-0.01s-0.2,0-0.25,0c-0.6,0-0.9,0.33-0.9,0.99v1.03h2.57v1.75H50.8v7.09h-2.39v-7.09h-1.73V10.53z"/>
		<path class="st15" d="M54.64,8.84V6.7h2.5v2.14H54.64z M54.69,19.37v-8.84h2.38v8.84H54.69z"/>
		<path class="st15" d="M64.05,12.08c-0.8,0-1.41,0.2-1.83,0.6c-0.41,0.4-0.62,1.04-0.62,1.92v4.77h-2.38v-8.84h2.3v0.68
			c0.3-0.31,0.67-0.53,1.12-0.67c0.44-0.13,0.91-0.2,1.4-0.2c0.17,0,0.39,0,0.67,0.01s0.53,0.03,0.77,0.08v1.8
			c-0.12-0.02-0.25-0.05-0.39-0.07c-0.14-0.02-0.27-0.04-0.4-0.05c-0.13-0.01-0.25-0.02-0.37-0.03
			C64.22,12.08,64.12,12.08,64.05,12.08z"/>
		<path class="st15" d="M71.85,10.35c0.44,0,0.83,0.02,1.15,0.07c0.32,0.05,0.61,0.11,0.85,0.2s0.45,0.19,0.62,0.32
			s0.33,0.27,0.48,0.42c0.37-0.32,0.81-0.57,1.31-0.75s1.09-0.26,1.75-0.26c1.43,0,2.46,0.26,3.09,0.77
			c0.63,0.52,0.95,1.34,0.95,2.48v5.76h-2.38v-5.65c0-0.59-0.16-1.02-0.48-1.29c-0.32-0.27-0.8-0.4-1.45-0.4
			c-0.65,0-1.14,0.16-1.49,0.48c-0.34,0.32-0.51,0.79-0.51,1.43v5.44h-2.38v-5.65c0-0.59-0.16-1.02-0.49-1.29
			c-0.32-0.27-0.81-0.4-1.46-0.4c-1.32,0-1.98,0.64-1.98,1.91v5.44h-2.38v-8.84h2.3v0.83c0.13-0.14,0.29-0.28,0.48-0.41
			c0.19-0.13,0.39-0.23,0.61-0.32c0.22-0.09,0.45-0.16,0.69-0.21C71.38,10.37,71.62,10.35,71.85,10.35z"/>
		<path class="st15" d="M93.59,16.43c-0.14,0.58-0.36,1.06-0.65,1.46c-0.29,0.4-0.64,0.72-1.05,0.96s-0.88,0.42-1.4,0.53
			c-0.52,0.11-1.08,0.16-1.67,0.16c-0.89,0-1.65-0.12-2.29-0.35c-0.64-0.23-1.17-0.55-1.58-0.96s-0.72-0.89-0.92-1.45
			c-0.2-0.56-0.3-1.17-0.3-1.83c0-0.78,0.12-1.46,0.37-2.03c0.25-0.58,0.59-1.05,1.03-1.43c0.44-0.38,0.97-0.66,1.59-0.85
			c0.62-0.19,1.31-0.28,2.07-0.28c0.72,0,1.38,0.1,1.97,0.29s1.1,0.48,1.52,0.85c0.42,0.38,0.74,0.85,0.97,1.42
			c0.23,0.57,0.34,1.23,0.34,1.99v0.63h-7.42c0.04,0.31,0.11,0.61,0.22,0.88c0.11,0.28,0.27,0.52,0.48,0.73
			c0.21,0.21,0.47,0.38,0.79,0.5c0.32,0.12,0.7,0.18,1.16,0.18c1.24,0,2-0.47,2.29-1.4H93.59z M91.09,13.91
			c-0.02-0.25-0.1-0.49-0.22-0.72c-0.12-0.23-0.28-0.43-0.48-0.6c-0.2-0.17-0.43-0.31-0.7-0.41c-0.27-0.1-0.57-0.15-0.91-0.15
			c-0.4,0-0.75,0.05-1.05,0.16c-0.31,0.11-0.57,0.25-0.78,0.42c-0.22,0.17-0.38,0.38-0.5,0.6c-0.12,0.23-0.2,0.46-0.23,0.7H91.09z"
			/>
		<path class="st15" d="M100.29,12.08c-0.8,0-1.41,0.2-1.83,0.6c-0.41,0.4-0.62,1.04-0.62,1.92v4.77h-2.38v-8.84h2.3v0.68
			c0.3-0.31,0.67-0.53,1.12-0.67c0.44-0.13,0.91-0.2,1.4-0.2c0.17,0,0.39,0,0.67,0.01s0.53,0.03,0.77,0.08v1.8
			c-0.12-0.02-0.25-0.05-0.39-0.07c-0.14-0.02-0.27-0.04-0.4-0.05c-0.13-0.01-0.25-0.02-0.37-0.03
			C100.45,12.08,100.36,12.08,100.29,12.08z"/>
	</g>
</g>
</svg>
